<svg width="70" height="69" viewBox="0 0 70 69" fill="none" xmlns="http://www.w3.org/2000/svg">
<g filter="url(#filter0_di_127_29590)">
<path d="M48.3333 27.9998C48.3333 20.6398 42.36 14.6665 35 14.6665C27.64 14.6665 21.6666 20.6398 21.6666 27.9998C21.6666 34.4532 26.2533 39.8265 32.3333 41.0665V31.9998H29.6666V27.9998H32.3333V24.6665C32.3333 22.0932 34.4266 19.9998 37 19.9998H40.3333V23.9998H37.6666C36.9333 23.9998 36.3333 24.5998 36.3333 25.3332V27.9998H40.3333V31.9998H36.3333V41.2665C43.0666 40.5998 48.3333 34.9198 48.3333 27.9998Z" fill="url(#paint0_linear_127_29590)" shape-rendering="crispEdges"/>
<path d="M48.3333 27.9998C48.3333 20.6398 42.36 14.6665 35 14.6665C27.64 14.6665 21.6666 20.6398 21.6666 27.9998C21.6666 34.4532 26.2533 39.8265 32.3333 41.0665V31.9998H29.6666V27.9998H32.3333V24.6665C32.3333 22.0932 34.4266 19.9998 37 19.9998H40.3333V23.9998H37.6666C36.9333 23.9998 36.3333 24.5998 36.3333 25.3332V27.9998H40.3333V31.9998H36.3333V41.2665C43.0666 40.5998 48.3333 34.9198 48.3333 27.9998Z" stroke="url(#paint1_radial_127_29590)" stroke-width="1.47873" stroke-linecap="round" stroke-linejoin="round" style="mix-blend-mode:plus-lighter" shape-rendering="crispEdges"/>
</g>
<defs>
<filter id="filter0_di_127_29590" x="0.726881" y="0.460336" width="68.5461" height="68.4793" filterUnits="userSpaceOnUse" color-interpolation-filters="sRGB">
<feFlood flood-opacity="0" result="BackgroundImageFix"/>
<feColorMatrix in="SourceAlpha" type="matrix" values="0 0 0 0 0 0 0 0 0 0 0 0 0 0 0 0 0 0 127 0" result="hardAlpha"/>
<feOffset dy="6.73346"/>
<feGaussianBlur stdDeviation="10.1002"/>
<feComposite in2="hardAlpha" operator="out"/>
<feColorMatrix type="matrix" values="0 0 0 0 1 0 0 0 0 1 0 0 0 0 1 0 0 0 0.2 0"/>
<feBlend mode="normal" in2="BackgroundImageFix" result="effect1_dropShadow_127_29590"/>
<feBlend mode="normal" in="SourceGraphic" in2="effect1_dropShadow_127_29590" result="shape"/>
<feColorMatrix in="SourceAlpha" type="matrix" values="0 0 0 0 0 0 0 0 0 0 0 0 0 0 0 0 0 0 127 0" result="hardAlpha"/>
<feOffset/>
<feGaussianBlur stdDeviation="2.79314"/>
<feComposite in2="hardAlpha" operator="arithmetic" k2="-1" k3="1"/>
<feColorMatrix type="matrix" values="0 0 0 0 1 0 0 0 0 1 0 0 0 0 1 0 0 0 1 0"/>
<feBlend mode="normal" in2="shape" result="effect2_innerShadow_127_29590"/>
</filter>
<linearGradient id="paint0_linear_127_29590" x1="31.5275" y1="19.6965" x2="41.2164" y2="41.0048" gradientUnits="userSpaceOnUse">
<stop stop-color="white"/>
<stop offset="0.770693" stop-color="#848484"/>
</linearGradient>
<radialGradient id="paint1_radial_127_29590" cx="0" cy="0" r="1" gradientUnits="userSpaceOnUse" gradientTransform="translate(35 14.6665) rotate(90) scale(35.1633 35.2514)">
<stop stop-color="#D3D3D3"/>
<stop offset="0.82495" stop-color="white" stop-opacity="0"/>
</radialGradient>
</defs>
</svg>
