<svg width="56" height="63" viewBox="0 0 56 63" fill="none" xmlns="http://www.w3.org/2000/svg">
<g filter="url(#filter0_di_127_29668)">
<path d="M28 24.5C27.337 24.5 26.7011 24.2366 26.2322 23.7678C25.7634 23.2989 25.5 22.663 25.5 22C25.5 21.337 25.7634 20.7011 26.2322 20.2322C26.7011 19.7634 27.337 19.5 28 19.5C28.663 19.5 29.2989 19.7634 29.7678 20.2322C30.2366 20.7011 30.5 21.337 30.5 22C30.5 22.3283 30.4353 22.6534 30.3097 22.9567C30.1841 23.26 29.9999 23.5356 29.7678 23.7678C29.5356 23.9999 29.26 24.1841 28.9567 24.3097C28.6534 24.4353 28.3283 24.5 28 24.5ZM28 15C26.1435 15 24.363 15.7375 23.0503 17.0503C21.7375 18.363 21 20.1435 21 22C21 27.25 28 35 28 35C28 35 35 27.25 35 22C35 20.1435 34.2625 18.363 32.9497 17.0503C31.637 15.7375 29.8565 15 28 15Z" fill="url(#paint0_linear_127_29668)" shape-rendering="crispEdges"/>
<path d="M28 24.5C27.337 24.5 26.7011 24.2366 26.2322 23.7678C25.7634 23.2989 25.5 22.663 25.5 22C25.5 21.337 25.7634 20.7011 26.2322 20.2322C26.7011 19.7634 27.337 19.5 28 19.5C28.663 19.5 29.2989 19.7634 29.7678 20.2322C30.2366 20.7011 30.5 21.337 30.5 22C30.5 22.3283 30.4353 22.6534 30.3097 22.9567C30.1841 23.26 29.9999 23.5356 29.7678 23.7678C29.5356 23.9999 29.26 24.1841 28.9567 24.3097C28.6534 24.4353 28.3283 24.5 28 24.5ZM28 15C26.1435 15 24.363 15.7375 23.0503 17.0503C21.7375 18.363 21 20.1435 21 22C21 27.25 28 35 28 35C28 35 35 27.25 35 22C35 20.1435 34.2625 18.363 32.9497 17.0503C31.637 15.7375 29.8565 15 28 15Z" stroke="url(#paint1_radial_127_29668)" stroke-width="1.47873" stroke-linecap="round" stroke-linejoin="round" style="mix-blend-mode:plus-lighter" shape-rendering="crispEdges"/>
</g>
<defs>
<filter id="filter0_di_127_29668" x="0.0603771" y="0.793832" width="55.8792" height="61.8792" filterUnits="userSpaceOnUse" color-interpolation-filters="sRGB">
<feFlood flood-opacity="0" result="BackgroundImageFix"/>
<feColorMatrix in="SourceAlpha" type="matrix" values="0 0 0 0 0 0 0 0 0 0 0 0 0 0 0 0 0 0 127 0" result="hardAlpha"/>
<feOffset dy="6.73346"/>
<feGaussianBlur stdDeviation="10.1002"/>
<feComposite in2="hardAlpha" operator="out"/>
<feColorMatrix type="matrix" values="0 0 0 0 1 0 0 0 0 1 0 0 0 0 1 0 0 0 0.2 0"/>
<feBlend mode="normal" in2="BackgroundImageFix" result="effect1_dropShadow_127_29668"/>
<feBlend mode="normal" in="SourceGraphic" in2="effect1_dropShadow_127_29668" result="shape"/>
<feColorMatrix in="SourceAlpha" type="matrix" values="0 0 0 0 0 0 0 0 0 0 0 0 0 0 0 0 0 0 127 0" result="hardAlpha"/>
<feOffset/>
<feGaussianBlur stdDeviation="2.79314"/>
<feComposite in2="hardAlpha" operator="arithmetic" k2="-1" k3="1"/>
<feColorMatrix type="matrix" values="0 0 0 0 1 0 0 0 0 1 0 0 0 0 1 0 0 0 1 0"/>
<feBlend mode="normal" in2="shape" result="effect2_innerShadow_127_29668"/>
</filter>
<linearGradient id="paint0_linear_127_29668" x1="26.177" y1="18.782" x2="35.018" y2="32.3584" gradientUnits="userSpaceOnUse">
<stop stop-color="white"/>
<stop offset="0.770693" stop-color="#848484"/>
</linearGradient>
<radialGradient id="paint1_radial_127_29668" cx="0" cy="0" r="1" gradientUnits="userSpaceOnUse" gradientTransform="translate(28 15) rotate(90) scale(26.4385 18.507)">
<stop stop-color="#D3D3D3"/>
<stop offset="0.82495" stop-color="white" stop-opacity="0"/>
</radialGradient>
</defs>
</svg>
