<svg width="70" height="69" viewBox="0 0 70 69" fill="none" xmlns="http://www.w3.org/2000/svg">
<g filter="url(#filter0_di_158_9)">
<path d="M36.3707 14.6665C37.8707 14.6705 38.632 14.6785 39.2893 14.6972L39.548 14.7065C39.8467 14.7172 40.1413 14.7305 40.4973 14.7465C41.916 14.8132 42.884 15.0372 43.7333 15.3665C44.6133 15.7052 45.3547 16.1638 46.096 16.9038C46.7742 17.5701 47.2989 18.3765 47.6333 19.2665C47.9627 20.1158 48.1867 21.0838 48.2533 22.5038C48.2693 22.8585 48.2827 23.1532 48.2933 23.4532L48.3013 23.7118C48.3213 24.3678 48.3293 25.1292 48.332 26.6292L48.3333 27.6238V29.3705C48.3366 30.343 48.3263 31.3156 48.3027 32.2878L48.2947 32.5465C48.284 32.8465 48.2707 33.1412 48.2547 33.4958C48.188 34.9158 47.9613 35.8825 47.6333 36.7332C47.2989 37.6232 46.7742 38.4295 46.096 39.0958C45.4297 39.7741 44.6234 40.2987 43.7333 40.6332C42.884 40.9625 41.916 41.1865 40.4973 41.2532L39.548 41.2932L39.2893 41.3012C38.632 41.3198 37.8707 41.3292 36.3707 41.3318L35.376 41.3332H33.6307C32.6577 41.3366 31.6847 41.3264 30.712 41.3025L30.4533 41.2945C30.1368 41.2825 29.8203 41.2687 29.504 41.2532C28.0853 41.1865 27.1173 40.9625 26.2667 40.6332C25.3771 40.2986 24.5712 39.7739 23.9053 39.0958C23.2266 38.4297 22.7015 37.6233 22.3667 36.7332C22.0373 35.8838 21.8133 34.9158 21.7467 33.4958L21.7067 32.5465L21.7 32.2878C21.6754 31.3156 21.6643 30.3431 21.6667 29.3705V26.6292C21.663 25.6566 21.6727 24.6841 21.696 23.7118L21.7053 23.4532C21.716 23.1532 21.7293 22.8585 21.7453 22.5038C21.812 21.0838 22.036 20.1172 22.3653 19.2665C22.7009 18.3761 23.2269 17.5698 23.9067 16.9038C24.5722 16.2259 25.3776 15.7013 26.2667 15.3665C27.1173 15.0372 28.084 14.8132 29.504 14.7465C29.8587 14.7305 30.1547 14.7172 30.4533 14.7065L30.712 14.6985C31.6842 14.6748 32.6568 14.6646 33.6293 14.6678L36.3707 14.6665ZM35 21.3332C33.2319 21.3332 31.5362 22.0355 30.2859 23.2858C29.0357 24.536 28.3333 26.2317 28.3333 27.9998C28.3333 29.7679 29.0357 31.4636 30.2859 32.7139C31.5362 33.9641 33.2319 34.6665 35 34.6665C36.7681 34.6665 38.4638 33.9641 39.714 32.7139C40.9643 31.4636 41.6667 29.7679 41.6667 27.9998C41.6667 26.2317 40.9643 24.536 39.714 23.2858C38.4638 22.0355 36.7681 21.3332 35 21.3332ZM35 23.9998C35.5253 23.9998 36.0454 24.1031 36.5308 24.3041C37.0161 24.505 37.4571 24.7996 37.8286 25.1709C38.2001 25.5423 38.4948 25.9832 38.6959 26.4685C38.897 26.9538 39.0006 27.4739 39.0007 27.9992C39.0007 28.5245 38.8974 29.0446 38.6964 29.53C38.4955 30.0153 38.2009 30.4563 37.8296 30.8278C37.4582 31.1993 37.0173 31.494 36.532 31.6951C36.0467 31.8962 35.5266 31.9998 35.0013 31.9998C33.9405 31.9998 32.923 31.5784 32.1729 30.8283C31.4227 30.0781 31.0013 29.0607 31.0013 27.9998C31.0013 26.939 31.4227 25.9216 32.1729 25.1714C32.923 24.4213 33.9405 23.9998 35.0013 23.9998M42.0013 19.3332C41.5593 19.3332 41.1354 19.5088 40.8228 19.8213C40.5102 20.1339 40.3347 20.5578 40.3347 20.9998C40.3347 21.4419 40.5102 21.8658 40.8228 22.1783C41.1354 22.4909 41.5593 22.6665 42.0013 22.6665C42.4433 22.6665 42.8673 22.4909 43.1798 22.1783C43.4924 21.8658 43.668 21.4419 43.668 20.9998C43.668 20.5578 43.4924 20.1339 43.1798 19.8213C42.8673 19.5088 42.4433 19.3332 42.0013 19.3332Z" fill="url(#paint0_linear_158_9)" shape-rendering="crispEdges"/>
<path d="M35 23.9998C35.5253 23.9997 36.0454 24.1031 36.5308 24.3041C37.0161 24.505 37.4571 24.7996 37.8286 25.1709C38.2001 25.5423 38.4948 25.9832 38.6959 26.4685C38.897 26.9538 39.0006 27.4739 39.0007 27.9992C39.0007 28.5245 38.8974 29.0446 38.6964 29.53C38.4955 30.0153 38.2009 30.4563 37.8296 30.8278C37.4582 31.1993 37.0173 31.494 36.532 31.6951C36.0467 31.8962 35.5266 31.9998 35.0013 31.9998C33.9405 31.9998 32.923 31.5784 32.1729 30.8283C31.4227 30.0781 31.0013 29.0607 31.0013 27.9998C31.0013 26.939 31.4227 25.9216 32.1729 25.1714C32.923 24.4213 33.9405 23.9998 35.0013 23.9998M36.3707 14.6665C37.8707 14.6705 38.632 14.6785 39.2893 14.6972L39.548 14.7065C39.8467 14.7172 40.1413 14.7305 40.4973 14.7465C41.916 14.8132 42.884 15.0372 43.7333 15.3665C44.6133 15.7052 45.3547 16.1638 46.096 16.9038C46.7742 17.5701 47.2989 18.3765 47.6333 19.2665C47.9627 20.1158 48.1867 21.0838 48.2533 22.5038C48.2693 22.8585 48.2827 23.1532 48.2933 23.4532L48.3013 23.7118C48.3213 24.3678 48.3293 25.1292 48.332 26.6292L48.3333 27.6238V29.3705C48.3366 30.343 48.3263 31.3156 48.3027 32.2878L48.2947 32.5465C48.284 32.8465 48.2707 33.1412 48.2547 33.4958C48.188 34.9158 47.9613 35.8825 47.6333 36.7332C47.2989 37.6232 46.7742 38.4295 46.096 39.0958C45.4297 39.7741 44.6234 40.2988 43.7333 40.6332C42.884 40.9625 41.916 41.1865 40.4973 41.2532L39.548 41.2932L39.2893 41.3012C38.632 41.3198 37.8707 41.3292 36.3707 41.3318L35.376 41.3332H33.6307C32.6577 41.3366 31.6847 41.3264 30.712 41.3025L30.4533 41.2945C30.1368 41.2825 29.8203 41.2687 29.504 41.2532C28.0853 41.1865 27.1173 40.9625 26.2667 40.6332C25.3771 40.2986 24.5712 39.7739 23.9053 39.0958C23.2266 38.4297 22.7015 37.6233 22.3667 36.7332C22.0373 35.8838 21.8133 34.9158 21.7467 33.4958L21.7067 32.5465L21.7 32.2878C21.6754 31.3156 21.6643 30.3431 21.6667 29.3705V26.6292C21.663 25.6566 21.6727 24.6841 21.696 23.7118L21.7053 23.4532C21.716 23.1532 21.7293 22.8585 21.7453 22.5038C21.812 21.0838 22.036 20.1172 22.3653 19.2665C22.7009 18.3761 23.2269 17.5698 23.9067 16.9038C24.5722 16.2259 25.3776 15.7013 26.2667 15.3665C27.1173 15.0372 28.084 14.8132 29.504 14.7465C29.8587 14.7305 30.1547 14.7172 30.4533 14.7065L30.712 14.6985C31.6842 14.6748 32.6568 14.6646 33.6293 14.6678L36.3707 14.6665ZM35 21.3332C33.2319 21.3332 31.5362 22.0355 30.2859 23.2858C29.0357 24.536 28.3333 26.2317 28.3333 27.9998C28.3333 29.7679 29.0357 31.4636 30.2859 32.7139C31.5362 33.9641 33.2319 34.6665 35 34.6665C36.7681 34.6665 38.4638 33.9641 39.714 32.7139C40.9643 31.4636 41.6667 29.7679 41.6667 27.9998C41.6667 26.2317 40.9643 24.536 39.714 23.2858C38.4638 22.0355 36.7681 21.3332 35 21.3332ZM42.0013 19.3332C41.5593 19.3332 41.1354 19.5088 40.8228 19.8213C40.5102 20.1339 40.3347 20.5578 40.3347 20.9998C40.3347 21.4419 40.5102 21.8658 40.8228 22.1783C41.1354 22.4909 41.5593 22.6665 42.0013 22.6665C42.4433 22.6665 42.8673 22.4909 43.1798 22.1783C43.4924 21.8658 43.668 21.4419 43.668 20.9998C43.668 20.5578 43.4924 20.1339 43.1798 19.8213C42.8673 19.5088 42.4433 19.3332 42.0013 19.3332Z" stroke="url(#paint1_radial_158_9)" stroke-width="1.47873" stroke-linecap="round" stroke-linejoin="round" style="mix-blend-mode:plus-lighter" shape-rendering="crispEdges"/>
</g>
<defs>
<filter id="filter0_di_158_9" x="0.726149" y="0.460336" width="68.5475" height="68.5467" filterUnits="userSpaceOnUse" color-interpolation-filters="sRGB">
<feFlood flood-opacity="0" result="BackgroundImageFix"/>
<feColorMatrix in="SourceAlpha" type="matrix" values="0 0 0 0 0 0 0 0 0 0 0 0 0 0 0 0 0 0 127 0" result="hardAlpha"/>
<feOffset dy="6.73346"/>
<feGaussianBlur stdDeviation="10.1002"/>
<feComposite in2="hardAlpha" operator="out"/>
<feColorMatrix type="matrix" values="0 0 0 0 1 0 0 0 0 1 0 0 0 0 1 0 0 0 0.2 0"/>
<feBlend mode="normal" in2="BackgroundImageFix" result="effect1_dropShadow_158_9"/>
<feBlend mode="normal" in="SourceGraphic" in2="effect1_dropShadow_158_9" result="shape"/>
<feColorMatrix in="SourceAlpha" type="matrix" values="0 0 0 0 0 0 0 0 0 0 0 0 0 0 0 0 0 0 127 0" result="hardAlpha"/>
<feOffset/>
<feGaussianBlur stdDeviation="2.79314"/>
<feComposite in2="hardAlpha" operator="arithmetic" k2="-1" k3="1"/>
<feColorMatrix type="matrix" values="0 0 0 0 1 0 0 0 0 1 0 0 0 0 1 0 0 0 1 0"/>
<feBlend mode="normal" in2="shape" result="effect2_innerShadow_158_9"/>
</filter>
<linearGradient id="paint0_linear_158_9" x1="31.5273" y1="19.7093" x2="41.2565" y2="41.0533" gradientUnits="userSpaceOnUse">
<stop stop-color="white"/>
<stop offset="0.770693" stop-color="#848484"/>
</linearGradient>
<radialGradient id="paint1_radial_158_9" cx="0" cy="0" r="1" gradientUnits="userSpaceOnUse" gradientTransform="translate(34.9999 14.6665) rotate(90) scale(35.2522 35.2532)">
<stop stop-color="#D3D3D3"/>
<stop offset="0.82495" stop-color="white" stop-opacity="0"/>
</radialGradient>
</defs>
</svg>
