<svg width="62" height="66" viewBox="0 0 62 66" fill="none" xmlns="http://www.w3.org/2000/svg">
<g filter="url(#filter0_di_2002_2)">
<path d="M18 45C16.9 45 15.9587 44.6087 15.176 43.826C14.3933 43.0433 14.0013 42.1013 14 41V21C14 19.9 14.392 18.9587 15.176 18.176C15.96 17.3933 16.9013 17.0013 18 17H20V13C20 10.2333 20.9753 7.87533 22.926 5.926C24.8767 3.97667 27.2347 3.00133 30 3C32.7653 2.99867 35.124 3.974 37.076 5.926C39.028 7.878 40.0027 10.236 40 13V17H42C43.1 17 44.042 17.392 44.826 18.176C45.61 18.96 46.0013 19.9013 46 21V41C46 42.1 45.6087 43.042 44.826 43.826C44.0433 44.61 43.1013 45.0013 42 45H18ZM30 35C31.1 35 32.042 34.6087 32.826 33.826C33.61 33.0433 34.0013 32.1013 34 31C33.9987 29.8987 33.6073 28.9573 32.826 28.176C32.0447 27.3947 31.1027 27.0027 30 27C28.8973 26.9973 27.956 27.3893 27.176 28.176C26.396 28.9627 26.004 29.904 26 31C25.996 32.096 26.388 33.038 27.176 33.826C27.964 34.614 28.9053 35.0053 30 35ZM24 17H36V13C36 11.3333 35.4167 9.91667 34.25 8.75C33.0833 7.58333 31.6667 7 30 7C28.3333 7 26.9167 7.58333 25.75 8.75C24.5833 9.91667 24 11.3333 24 13V17Z" fill="url(#paint0_linear_2002_2)" shape-rendering="crispEdges"/>
<path d="M18 45C16.9 45 15.9587 44.6087 15.176 43.826C14.3933 43.0433 14.0013 42.1013 14 41V21C14 19.9 14.392 18.9587 15.176 18.176C15.96 17.3933 16.9013 17.0013 18 17H20V13C20 10.2333 20.9753 7.87533 22.926 5.926C24.8767 3.97667 27.2347 3.00133 30 3C32.7653 2.99867 35.124 3.974 37.076 5.926C39.028 7.878 40.0027 10.236 40 13V17H42C43.1 17 44.042 17.392 44.826 18.176C45.61 18.96 46.0013 19.9013 46 21V41C46 42.1 45.6087 43.042 44.826 43.826C44.0433 44.61 43.1013 45.0013 42 45H18ZM30 35C31.1 35 32.042 34.6087 32.826 33.826C33.61 33.0433 34.0013 32.1013 34 31C33.9987 29.8987 33.6073 28.9573 32.826 28.176C32.0447 27.3947 31.1027 27.0027 30 27C28.8973 26.9973 27.956 27.3893 27.176 28.176C26.396 28.9627 26.004 29.904 26 31C25.996 32.096 26.388 33.038 27.176 33.826C27.964 34.614 28.9053 35.0053 30 35ZM24 17H36V13C36 11.3333 35.4167 9.91667 34.25 8.75C33.0833 7.58333 31.6667 7 30 7C28.3333 7 26.9167 7.58333 25.75 8.75C24.5833 9.91667 24 11.3333 24 13V17Z" stroke="url(#paint1_radial_2002_2)" stroke-width="1.10905" stroke-linecap="round" stroke-linejoin="round" style="mix-blend-mode:plus-lighter" shape-rendering="crispEdges"/>
</g>
<defs>
<filter id="filter0_di_2002_2" x="-1.70484" y="-7.6547" width="63.4097" height="73.4096" filterUnits="userSpaceOnUse" color-interpolation-filters="sRGB">
<feFlood flood-opacity="0" result="BackgroundImageFix"/>
<feColorMatrix in="SourceAlpha" type="matrix" values="0 0 0 0 0 0 0 0 0 0 0 0 0 0 0 0 0 0 127 0" result="hardAlpha"/>
<feOffset dy="5.05009"/>
<feGaussianBlur stdDeviation="7.57514"/>
<feComposite in2="hardAlpha" operator="out"/>
<feColorMatrix type="matrix" values="0 0 0 0 1 0 0 0 0 1 0 0 0 0 1 0 0 0 0.2 0"/>
<feBlend mode="normal" in2="BackgroundImageFix" result="effect1_dropShadow_2002_2"/>
<feBlend mode="normal" in="SourceGraphic" in2="effect1_dropShadow_2002_2" result="shape"/>
<feColorMatrix in="SourceAlpha" type="matrix" values="0 0 0 0 0 0 0 0 0 0 0 0 0 0 0 0 0 0 127 0" result="hardAlpha"/>
<feOffset/>
<feGaussianBlur stdDeviation="2.09485"/>
<feComposite in2="hardAlpha" operator="arithmetic" k2="-1" k3="1"/>
<feColorMatrix type="matrix" values="0 0 0 0 1 0 0 0 0 1 0 0 0 0 1 0 0 0 1 0"/>
<feBlend mode="normal" in2="shape" result="effect2_innerShadow_2002_2"/>
</filter>
<linearGradient id="paint0_linear_2002_2" x1="25.8331" y1="10.9422" x2="43.7211" y2="40.8407" gradientUnits="userSpaceOnUse">
<stop stop-color="white"/>
<stop offset="0.770693" stop-color="#848484"/>
</linearGradient>
<radialGradient id="paint1_radial_2002_2" cx="0" cy="0" r="1" gradientUnits="userSpaceOnUse" gradientTransform="translate(30 3) rotate(90) scale(55.5209 42.3017)">
<stop stop-color="#D3D3D3"/>
<stop offset="0.82495" stop-color="white" stop-opacity="0"/>
</radialGradient>
</defs>
</svg>
