<svg width="62" height="59" viewBox="0 0 62 59" fill="none" xmlns="http://www.w3.org/2000/svg">
<g filter="url(#filter0_di_127_29666)">
<path d="M39 14.5H23C21.9 14.5 21.01 15.4 21.01 16.5L21 28.5C21 29.6 21.9 30.5 23 30.5H39C40.1 30.5 41 29.6 41 28.5V16.5C41 15.4 40.1 14.5 39 14.5ZM39 18.5L31 23.5L23 18.5V16.5L31 21.5L39 16.5V18.5Z" fill="url(#paint0_linear_127_29666)" shape-rendering="crispEdges"/>
<path d="M39 14.5H23C21.9 14.5 21.01 15.4 21.01 16.5L21 28.5C21 29.6 21.9 30.5 23 30.5H39C40.1 30.5 41 29.6 41 28.5V16.5C41 15.4 40.1 14.5 39 14.5ZM39 18.5L31 23.5L23 18.5V16.5L31 21.5L39 16.5V18.5Z" stroke="url(#paint1_radial_127_29666)" stroke-width="1.47873" stroke-linecap="round" stroke-linejoin="round" style="mix-blend-mode:plus-lighter" shape-rendering="crispEdges"/>
</g>
<defs>
<filter id="filter0_di_127_29666" x="0.0603771" y="0.293832" width="61.8792" height="57.8792" filterUnits="userSpaceOnUse" color-interpolation-filters="sRGB">
<feFlood flood-opacity="0" result="BackgroundImageFix"/>
<feColorMatrix in="SourceAlpha" type="matrix" values="0 0 0 0 0 0 0 0 0 0 0 0 0 0 0 0 0 0 127 0" result="hardAlpha"/>
<feOffset dy="6.73346"/>
<feGaussianBlur stdDeviation="10.1002"/>
<feComposite in2="hardAlpha" operator="out"/>
<feColorMatrix type="matrix" values="0 0 0 0 1 0 0 0 0 1 0 0 0 0 1 0 0 0 0.2 0"/>
<feBlend mode="normal" in2="BackgroundImageFix" result="effect1_dropShadow_127_29666"/>
<feBlend mode="normal" in="SourceGraphic" in2="effect1_dropShadow_127_29666" result="shape"/>
<feColorMatrix in="SourceAlpha" type="matrix" values="0 0 0 0 0 0 0 0 0 0 0 0 0 0 0 0 0 0 127 0" result="hardAlpha"/>
<feOffset/>
<feGaussianBlur stdDeviation="2.79314"/>
<feComposite in2="hardAlpha" operator="arithmetic" k2="-1" k3="1"/>
<feColorMatrix type="matrix" values="0 0 0 0 1 0 0 0 0 1 0 0 0 0 1 0 0 0 1 0"/>
<feBlend mode="normal" in2="shape" result="effect2_innerShadow_127_29666"/>
</filter>
<linearGradient id="paint0_linear_127_29666" x1="28.3957" y1="17.5256" x2="33.374" y2="31.1771" gradientUnits="userSpaceOnUse">
<stop stop-color="white"/>
<stop offset="0.770693" stop-color="#848484"/>
</linearGradient>
<radialGradient id="paint1_radial_127_29666" cx="0" cy="0" r="1" gradientUnits="userSpaceOnUse" gradientTransform="translate(31 14.5) rotate(90) scale(21.1508 26.4385)">
<stop stop-color="#D3D3D3"/>
<stop offset="0.82495" stop-color="white" stop-opacity="0"/>
</radialGradient>
</defs>
</svg>
