<svg width="83" height="79" viewBox="0 0 83 79" fill="none" xmlns="http://www.w3.org/2000/svg">
<g filter="url(#filter0_di_127_67)">
<path d="M57.5002 51C58.5611 51 59.5785 50.5786 60.3287 49.8284C61.0788 49.0783 61.5002 48.0609 61.5002 47V37.232C61.5002 36.1711 61.0788 35.1537 60.3287 34.4036C59.5785 33.6534 58.5611 33.232 57.5002 33.232H51.9482C51.9482 31.8267 52.0309 30.4213 52.1962 29.016C52.4442 27.528 52.8576 26.2053 53.4362 25.048C54.0149 23.8907 54.7602 22.98 55.6722 22.316C56.5789 21.572 57.7362 21.2 59.1442 21.2V15C56.8296 15 54.8029 15.496 53.0642 16.488C51.3376 17.4675 49.8541 18.8238 48.7242 20.456C47.5867 22.2526 46.7491 24.2223 46.2442 26.288C45.7338 28.567 45.4842 30.8966 45.5002 33.232V47C45.5002 48.0609 45.9217 49.0783 46.6718 49.8284C47.422 50.5786 48.4394 51 49.5002 51H57.5002ZM33.5002 51C34.5611 51 35.5785 50.5786 36.3287 49.8284C37.0788 49.0783 37.5002 48.0609 37.5002 47V37.232C37.5002 36.1711 37.0788 35.1537 36.3287 34.4036C35.5785 33.6534 34.5611 33.232 33.5002 33.232H27.9482C27.9482 31.8267 28.0309 30.4213 28.1962 29.016C28.4469 27.528 28.8602 26.2053 29.4362 25.048C30.0149 23.8907 30.7602 22.98 31.6722 22.316C32.5789 21.572 33.7362 21.2 35.1442 21.2V15C32.8296 15 30.8029 15.496 29.0642 16.488C27.3376 17.4675 25.8541 18.8238 24.7242 20.456C23.5867 22.2526 22.7491 24.2223 22.2442 26.288C21.7338 28.567 21.4842 30.8966 21.5002 33.232V47C21.5002 48.0609 21.9217 49.0783 22.6718 49.8284C23.422 50.5786 24.4394 51 25.5002 51H33.5002Z" fill="url(#paint0_linear_127_67)" shape-rendering="crispEdges"/>
<path d="M57.5002 51C58.5611 51 59.5785 50.5786 60.3287 49.8284C61.0788 49.0783 61.5002 48.0609 61.5002 47V37.232C61.5002 36.1711 61.0788 35.1537 60.3287 34.4036C59.5785 33.6534 58.5611 33.232 57.5002 33.232H51.9482C51.9482 31.8267 52.0309 30.4213 52.1962 29.016C52.4442 27.528 52.8576 26.2053 53.4362 25.048C54.0149 23.8907 54.7602 22.98 55.6722 22.316C56.5789 21.572 57.7362 21.2 59.1442 21.2V15C56.8296 15 54.8029 15.496 53.0642 16.488C51.3376 17.4675 49.8541 18.8238 48.7242 20.456C47.5867 22.2526 46.7491 24.2223 46.2442 26.288C45.7338 28.567 45.4842 30.8966 45.5002 33.232V47C45.5002 48.0609 45.9217 49.0783 46.6718 49.8284C47.422 50.5786 48.4394 51 49.5002 51H57.5002ZM33.5002 51C34.5611 51 35.5785 50.5786 36.3287 49.8284C37.0788 49.0783 37.5002 48.0609 37.5002 47V37.232C37.5002 36.1711 37.0788 35.1537 36.3287 34.4036C35.5785 33.6534 34.5611 33.232 33.5002 33.232H27.9482C27.9482 31.8267 28.0309 30.4213 28.1962 29.016C28.4469 27.528 28.8602 26.2053 29.4362 25.048C30.0149 23.8907 30.7602 22.98 31.6722 22.316C32.5789 21.572 33.7362 21.2 35.1442 21.2V15C32.8296 15 30.8029 15.496 29.0642 16.488C27.3376 17.4675 25.8541 18.8238 24.7242 20.456C23.5867 22.2526 22.7491 24.2223 22.2442 26.288C21.7338 28.567 21.4842 30.8966 21.5002 33.232V47C21.5002 48.0609 21.9217 49.0783 22.6718 49.8284C23.422 50.5786 24.4394 51 25.5002 51H33.5002Z" stroke="url(#paint1_radial_127_67)" stroke-width="1.47873" stroke-linecap="round" stroke-linejoin="round" style="mix-blend-mode:plus-lighter" shape-rendering="crispEdges"/>
</g>
<defs>
<filter id="filter0_di_127_67" x="0.559767" y="0.793832" width="81.8802" height="77.8792" filterUnits="userSpaceOnUse" color-interpolation-filters="sRGB">
<feFlood flood-opacity="0" result="BackgroundImageFix"/>
<feColorMatrix in="SourceAlpha" type="matrix" values="0 0 0 0 0 0 0 0 0 0 0 0 0 0 0 0 0 0 127 0" result="hardAlpha"/>
<feOffset dy="6.73346"/>
<feGaussianBlur stdDeviation="10.1002"/>
<feComposite in2="hardAlpha" operator="out"/>
<feColorMatrix type="matrix" values="0 0 0 0 1 0 0 0 0 1 0 0 0 0 1 0 0 0 0.2 0"/>
<feBlend mode="normal" in2="BackgroundImageFix" result="effect1_dropShadow_127_67"/>
<feBlend mode="normal" in="SourceGraphic" in2="effect1_dropShadow_127_67" result="shape"/>
<feColorMatrix in="SourceAlpha" type="matrix" values="0 0 0 0 0 0 0 0 0 0 0 0 0 0 0 0 0 0 127 0" result="hardAlpha"/>
<feOffset/>
<feGaussianBlur stdDeviation="2.79314"/>
<feComposite in2="hardAlpha" operator="arithmetic" k2="-1" k3="1"/>
<feColorMatrix type="matrix" values="0 0 0 0 1 0 0 0 0 1 0 0 0 0 1 0 0 0 1 0"/>
<feBlend mode="normal" in2="shape" result="effect2_innerShadow_127_67"/>
</filter>
<linearGradient id="paint0_linear_127_67" x1="36.2912" y1="21.8076" x2="48.5114" y2="51.5949" gradientUnits="userSpaceOnUse">
<stop stop-color="white"/>
<stop offset="0.770693" stop-color="#848484"/>
</linearGradient>
<radialGradient id="paint1_radial_127_67" cx="0" cy="0" r="1" gradientUnits="userSpaceOnUse" gradientTransform="translate(41.4999 15) rotate(90) scale(47.5894 52.878)">
<stop stop-color="#D3D3D3"/>
<stop offset="0.82495" stop-color="white" stop-opacity="0"/>
</radialGradient>
</defs>
</svg>
