<svg width="66" height="70" viewBox="0 0 66 70" fill="none" xmlns="http://www.w3.org/2000/svg">
<g filter="url(#filter0_di_154_108)">
<path d="M32.9999 11C33.7956 11 34.5587 11.3161 35.1213 11.8787C35.6839 12.4413 35.9999 13.2044 35.9999 14V24.804L45.3559 19.4C46.0446 19.0084 46.8602 18.9052 47.6247 19.1128C48.3893 19.3203 49.0407 19.8219 49.4368 20.5079C49.8329 21.194 49.9415 22.0089 49.7391 22.7748C49.5366 23.5406 49.0394 24.1953 48.3559 24.596L38.9999 30L48.3559 35.402C49.0394 35.8027 49.5366 36.4574 49.7391 37.2232C49.9415 37.9891 49.8329 38.804 49.4368 39.4901C49.0407 40.1761 48.3893 40.6777 47.6247 40.8852C46.8602 41.0928 46.0446 40.9895 45.3559 40.598L35.9999 35.198V46C35.9999 46.7957 35.6839 47.5587 35.1213 48.1213C34.5587 48.6839 33.7956 49 32.9999 49C32.2043 49 31.4412 48.6839 30.8786 48.1213C30.316 47.5587 29.9999 46.7957 29.9999 46V35.196L20.6439 40.6C20.3026 40.8001 19.9251 40.9307 19.5331 40.9843C19.1411 41.0379 18.7424 41.0134 18.3599 40.9123C17.9774 40.8112 17.6187 40.6354 17.3044 40.3951C16.9901 40.1547 16.7265 39.8546 16.5287 39.512C16.3308 39.1693 16.2027 38.791 16.1517 38.3986C16.1007 38.0063 16.1279 37.6077 16.2315 37.2259C16.3352 36.8441 16.5133 36.4866 16.7557 36.1739C16.9981 35.8612 17.3 35.5995 17.6439 35.404L26.9999 30L17.6439 24.598C16.9605 24.1973 16.4633 23.5426 16.2608 22.7768C16.0583 22.0109 16.167 21.196 16.5631 20.5099C16.9592 19.8239 17.6106 19.3223 18.3751 19.1148C19.1397 18.9072 19.9553 19.0105 20.6439 19.402L29.9999 24.802V14C29.9999 13.2044 30.316 12.4413 30.8786 11.8787C31.4412 11.3161 32.2043 11 32.9999 11Z" fill="url(#paint0_linear_154_108)" shape-rendering="crispEdges"/>
<path d="M32.9999 11C33.7956 11 34.5587 11.3161 35.1213 11.8787C35.6839 12.4413 35.9999 13.2044 35.9999 14V24.804L45.3559 19.4C46.0446 19.0084 46.8602 18.9052 47.6247 19.1128C48.3893 19.3203 49.0407 19.8219 49.4368 20.5079C49.8329 21.194 49.9415 22.0089 49.7391 22.7748C49.5366 23.5406 49.0394 24.1953 48.3559 24.596L38.9999 30L48.3559 35.402C49.0394 35.8027 49.5366 36.4574 49.7391 37.2232C49.9415 37.9891 49.8329 38.804 49.4368 39.4901C49.0407 40.1761 48.3893 40.6777 47.6247 40.8852C46.8602 41.0928 46.0446 40.9895 45.3559 40.598L35.9999 35.198V46C35.9999 46.7957 35.6839 47.5587 35.1213 48.1213C34.5587 48.6839 33.7956 49 32.9999 49C32.2043 49 31.4412 48.6839 30.8786 48.1213C30.316 47.5587 29.9999 46.7957 29.9999 46V35.196L20.6439 40.6C20.3026 40.8001 19.9251 40.9307 19.5331 40.9843C19.1411 41.0379 18.7424 41.0134 18.3599 40.9123C17.9774 40.8112 17.6187 40.6354 17.3044 40.3951C16.9901 40.1547 16.7265 39.8546 16.5287 39.512C16.3308 39.1693 16.2027 38.791 16.1517 38.3986C16.1007 38.0063 16.1279 37.6077 16.2315 37.2259C16.3352 36.8441 16.5133 36.4866 16.7557 36.1739C16.9981 35.8612 17.3 35.5995 17.6439 35.404L26.9999 30L17.6439 24.598C16.9605 24.1973 16.4633 23.5426 16.2608 22.7768C16.0583 22.0109 16.167 21.196 16.5631 20.5099C16.9592 19.8239 17.6106 19.3223 18.3751 19.1148C19.1397 18.9072 19.9553 19.0105 20.6439 19.402L29.9999 24.802V14C29.9999 13.2044 30.316 12.4413 30.8786 11.8787C31.4412 11.3161 32.2043 11 32.9999 11Z" stroke="url(#paint1_radial_154_108)" stroke-width="1.10905" stroke-linecap="round" stroke-linejoin="round" style="mix-blend-mode:plus-lighter" shape-rendering="crispEdges"/>
</g>
<defs>
<filter id="filter0_di_154_108" x="0.42187" y="0.345283" width="65.1216" height="69.4096" filterUnits="userSpaceOnUse" color-interpolation-filters="sRGB">
<feFlood flood-opacity="0" result="BackgroundImageFix"/>
<feColorMatrix in="SourceAlpha" type="matrix" values="0 0 0 0 0 0 0 0 0 0 0 0 0 0 0 0 0 0 127 0" result="hardAlpha"/>
<feOffset dy="5.05009"/>
<feGaussianBlur stdDeviation="7.57514"/>
<feComposite in2="hardAlpha" operator="out"/>
<feColorMatrix type="matrix" values="0 0 0 0 1 0 0 0 0 1 0 0 0 0 1 0 0 0 0.2 0"/>
<feBlend mode="normal" in2="BackgroundImageFix" result="effect1_dropShadow_154_108"/>
<feBlend mode="normal" in="SourceGraphic" in2="effect1_dropShadow_154_108" result="shape"/>
<feColorMatrix in="SourceAlpha" type="matrix" values="0 0 0 0 0 0 0 0 0 0 0 0 0 0 0 0 0 0 127 0" result="hardAlpha"/>
<feOffset/>
<feGaussianBlur stdDeviation="2.09485"/>
<feComposite in2="hardAlpha" operator="arithmetic" k2="-1" k3="1"/>
<feColorMatrix type="matrix" values="0 0 0 0 1 0 0 0 0 1 0 0 0 0 1 0 0 0 1 0"/>
<feBlend mode="normal" in2="shape" result="effect2_innerShadow_154_108"/>
</filter>
<linearGradient id="paint0_linear_154_108" x1="28.5929" y1="18.1858" x2="43.5253" y2="47.2473" gradientUnits="userSpaceOnUse">
<stop stop-color="white"/>
<stop offset="0.770693" stop-color="#848484"/>
</linearGradient>
<radialGradient id="paint1_radial_154_108" cx="0" cy="0" r="1" gradientUnits="userSpaceOnUse" gradientTransform="translate(32.9827 11) rotate(90) scale(50.2332 44.5648)">
<stop stop-color="#D3D3D3"/>
<stop offset="0.82495" stop-color="white" stop-opacity="0"/>
</radialGradient>
</defs>
</svg>
