<svg width="68" height="68" viewBox="0 0 68 68" fill="none" xmlns="http://www.w3.org/2000/svg">
<g filter="url(#filter0_di_127_29592)">
<path fill-rule="evenodd" clip-rule="evenodd" d="M46.7812 39.5L36.7847 24.9295L36.8018 24.9432L45.8151 14.5H42.8031L35.4606 23L29.6297 14.5H21.7302L31.063 28.1034L31.0618 28.1023L21.2188 39.5H24.2308L32.394 30.0432L38.8818 39.5H46.7812ZM28.4362 16.7727L42.4621 37.2273H40.0752L26.038 16.7727H28.4362Z" fill="url(#paint0_linear_127_29592)" shape-rendering="crispEdges"/>
<path fill-rule="evenodd" clip-rule="evenodd" d="M46.7812 39.5L36.7847 24.9295L36.8018 24.9432L45.8151 14.5H42.8031L35.4606 23L29.6297 14.5H21.7302L31.063 28.1034L31.0618 28.1023L21.2188 39.5H24.2308L32.394 30.0432L38.8818 39.5H46.7812ZM28.4362 16.7727L42.4621 37.2273H40.0752L26.038 16.7727H28.4362Z" stroke="url(#paint1_radial_127_29592)" stroke-width="1.47873" stroke-linecap="round" stroke-linejoin="round" style="mix-blend-mode:plus-lighter" shape-rendering="crispEdges"/>
</g>
<defs>
<filter id="filter0_di_127_29592" x="0.279005" y="0.293832" width="67.442" height="66.8792" filterUnits="userSpaceOnUse" color-interpolation-filters="sRGB">
<feFlood flood-opacity="0" result="BackgroundImageFix"/>
<feColorMatrix in="SourceAlpha" type="matrix" values="0 0 0 0 0 0 0 0 0 0 0 0 0 0 0 0 0 0 127 0" result="hardAlpha"/>
<feOffset dy="6.73346"/>
<feGaussianBlur stdDeviation="10.1002"/>
<feComposite in2="hardAlpha" operator="out"/>
<feColorMatrix type="matrix" values="0 0 0 0 1 0 0 0 0 1 0 0 0 0 1 0 0 0 0.2 0"/>
<feBlend mode="normal" in2="BackgroundImageFix" result="effect1_dropShadow_127_29592"/>
<feBlend mode="normal" in="SourceGraphic" in2="effect1_dropShadow_127_29592" result="shape"/>
<feColorMatrix in="SourceAlpha" type="matrix" values="0 0 0 0 0 0 0 0 0 0 0 0 0 0 0 0 0 0 127 0" result="hardAlpha"/>
<feOffset/>
<feGaussianBlur stdDeviation="2.79314"/>
<feComposite in2="hardAlpha" operator="arithmetic" k2="-1" k3="1"/>
<feColorMatrix type="matrix" values="0 0 0 0 1 0 0 0 0 1 0 0 0 0 1 0 0 0 1 0"/>
<feBlend mode="normal" in2="shape" result="effect2_innerShadow_127_29592"/>
</filter>
<linearGradient id="paint0_linear_127_29592" x1="30.6714" y1="19.2275" x2="39.659" y2="39.3878" gradientUnits="userSpaceOnUse">
<stop stop-color="white"/>
<stop offset="0.770693" stop-color="#848484"/>
</linearGradient>
<radialGradient id="paint1_radial_127_29592" cx="0" cy="0" r="1" gradientUnits="userSpaceOnUse" gradientTransform="translate(34 14.5) rotate(90) scale(33.0482 33.7918)">
<stop stop-color="#D3D3D3"/>
<stop offset="0.82495" stop-color="white" stop-opacity="0"/>
</radialGradient>
</defs>
</svg>
