<svg width="61" height="64" viewBox="0 0 61 64" fill="none" xmlns="http://www.w3.org/2000/svg">
<g filter="url(#filter0_di_165_41)">
<path d="M30.5 17.5312C37.382 17.5312 42.9609 23.1102 42.9609 29.9922V39.0938C42.9609 39.4253 42.8292 39.7432 42.5948 39.9776C42.3604 40.2121 42.0425 40.3438 41.7109 40.3438H19.2891C18.9575 40.3438 18.6396 40.2121 18.4052 39.9776C18.1708 39.7432 18.0391 39.4253 18.0391 39.0938V29.9922C18.0391 23.1102 23.618 17.5312 30.5 17.5312ZM29.4063 10.6562H31.5938C31.6766 10.6562 31.7561 10.6892 31.8147 10.7478C31.8733 10.8064 31.9062 10.8859 31.9062 10.9688V14.7188C31.9062 14.8016 31.8733 14.8811 31.8147 14.9397C31.7561 14.9983 31.6766 15.0312 31.5938 15.0312H29.4063C29.3234 15.0312 29.2439 14.9983 29.1853 14.9397C29.1267 14.8811 29.0938 14.8016 29.0938 14.7188V10.9688C29.0938 10.8859 29.1267 10.8064 29.1853 10.7478C29.2439 10.6892 29.3234 10.6562 29.4063 10.6562ZM17.4238 15.4867C17.4529 15.4577 17.4873 15.4346 17.5253 15.4189C17.5632 15.4032 17.6039 15.3951 17.6449 15.3951C17.686 15.3951 17.7267 15.4032 17.7646 15.4189C17.8025 15.4346 17.837 15.4577 17.866 15.4867L20.5176 18.1383C20.5761 18.1969 20.609 18.2763 20.609 18.3592C20.609 18.442 20.5761 18.5215 20.5176 18.5801L18.9707 20.127C18.9121 20.1855 18.8327 20.2184 18.7498 20.2184C18.667 20.2184 18.5875 20.1855 18.5289 20.127L15.8773 17.4754C15.8188 17.4168 15.7859 17.3373 15.7859 17.2545C15.7859 17.1716 15.8188 17.0922 15.8773 17.0336L17.4242 15.4867H17.4238ZM43.5801 15.4867L45.127 17.0336C45.1854 17.0922 45.2182 17.1715 45.2182 17.2543C45.2182 17.337 45.1854 17.4164 45.127 17.475L42.4754 20.1273C42.4464 20.1564 42.4119 20.1794 42.374 20.1952C42.336 20.2109 42.2954 20.219 42.2543 20.219C42.2132 20.219 42.1726 20.2109 42.1346 20.1952C42.0967 20.1794 42.0622 20.1564 42.0332 20.1273L40.4863 18.5805C40.4573 18.5514 40.4342 18.517 40.4185 18.479C40.4028 18.4411 40.3947 18.4004 40.3947 18.3594C40.3947 18.3183 40.4028 18.2776 40.4185 18.2397C40.4342 18.2018 40.4573 18.1673 40.4863 18.1383L43.1383 15.4867C43.1969 15.4282 43.2763 15.3953 43.3592 15.3953C43.442 15.3953 43.5215 15.4282 43.5801 15.4867ZM18 42.8438H43C43.3315 42.8438 43.6495 42.9754 43.8839 43.2099C44.1183 43.4443 44.25 43.7622 44.25 44.0938V45.0312C44.25 45.1141 44.2171 45.1936 44.1585 45.2522C44.0999 45.3108 44.0204 45.3438 43.9375 45.3438H17.0625C16.9796 45.3438 16.9001 45.3108 16.8415 45.2522C16.7829 45.1936 16.75 45.1141 16.75 45.0312V44.0938C16.75 43.7622 16.8817 43.4443 17.1161 43.2099C17.3505 42.9754 17.6685 42.8438 18 42.8438ZM23.7813 30.4609V40.3438H26.2813V30.4609H23.7813Z" fill="url(#paint0_linear_165_41)" shape-rendering="crispEdges"/>
<path d="M30.5 17.5312C37.382 17.5312 42.9609 23.1102 42.9609 29.9922V39.0938C42.9609 39.4253 42.8292 39.7432 42.5948 39.9776C42.3604 40.2121 42.0425 40.3438 41.7109 40.3438H19.2891C18.9575 40.3438 18.6396 40.2121 18.4052 39.9776C18.1708 39.7432 18.0391 39.4253 18.0391 39.0938V29.9922C18.0391 23.1102 23.618 17.5312 30.5 17.5312ZM29.4063 10.6562H31.5938C31.6766 10.6562 31.7561 10.6892 31.8147 10.7478C31.8733 10.8064 31.9062 10.8859 31.9062 10.9688V14.7188C31.9062 14.8016 31.8733 14.8811 31.8147 14.9397C31.7561 14.9983 31.6766 15.0312 31.5938 15.0312H29.4063C29.3234 15.0312 29.2439 14.9983 29.1853 14.9397C29.1267 14.8811 29.0938 14.8016 29.0938 14.7188V10.9688C29.0938 10.8859 29.1267 10.8064 29.1853 10.7478C29.2439 10.6892 29.3234 10.6562 29.4063 10.6562ZM17.4238 15.4867C17.4529 15.4577 17.4873 15.4346 17.5253 15.4189C17.5632 15.4032 17.6039 15.3951 17.6449 15.3951C17.686 15.3951 17.7267 15.4032 17.7646 15.4189C17.8025 15.4346 17.837 15.4577 17.866 15.4867L20.5176 18.1383C20.5761 18.1969 20.609 18.2763 20.609 18.3592C20.609 18.442 20.5761 18.5215 20.5176 18.5801L18.9707 20.127C18.9121 20.1855 18.8327 20.2184 18.7498 20.2184C18.667 20.2184 18.5875 20.1855 18.5289 20.127L15.8773 17.4754C15.8188 17.4168 15.7859 17.3373 15.7859 17.2545C15.7859 17.1716 15.8188 17.0922 15.8773 17.0336L17.4242 15.4867H17.4238ZM43.5801 15.4867L45.127 17.0336C45.1854 17.0922 45.2182 17.1715 45.2182 17.2543C45.2182 17.337 45.1854 17.4164 45.127 17.475L42.4754 20.1273C42.4464 20.1564 42.4119 20.1794 42.374 20.1952C42.336 20.2109 42.2954 20.219 42.2543 20.219C42.2132 20.219 42.1726 20.2109 42.1346 20.1952C42.0967 20.1794 42.0622 20.1564 42.0332 20.1273L40.4863 18.5805C40.4573 18.5514 40.4342 18.517 40.4185 18.479C40.4028 18.4411 40.3947 18.4004 40.3947 18.3594C40.3947 18.3183 40.4028 18.2776 40.4185 18.2397C40.4342 18.2018 40.4573 18.1673 40.4863 18.1383L43.1383 15.4867C43.1969 15.4282 43.2763 15.3953 43.3592 15.3953C43.442 15.3953 43.5215 15.4282 43.5801 15.4867ZM18 42.8438H43C43.3315 42.8438 43.6495 42.9754 43.8839 43.2099C44.1183 43.4443 44.25 43.7622 44.25 44.0938V45.0312C44.25 45.1141 44.2171 45.1936 44.1585 45.2522C44.0999 45.3108 44.0204 45.3438 43.9375 45.3438H17.0625C16.9796 45.3438 16.9001 45.3108 16.8415 45.2522C16.7829 45.1936 16.75 45.1141 16.75 45.0312V44.0938C16.75 43.7622 16.8817 43.4443 17.1161 43.2099C17.3505 42.9754 17.6685 42.8438 18 42.8438ZM23.7813 30.4609V40.3438H26.2813V30.4609H23.7813Z" stroke="url(#paint1_radial_165_41)" stroke-width="1.10905" stroke-linecap="round" stroke-linejoin="round" style="mix-blend-mode:plus-lighter" shape-rendering="crispEdges"/>
</g>
<defs>
<filter id="filter0_di_165_41" x="0.081172" y="0.00150251" width="60.8418" height="66.0972" filterUnits="userSpaceOnUse" color-interpolation-filters="sRGB">
<feFlood flood-opacity="0" result="BackgroundImageFix"/>
<feColorMatrix in="SourceAlpha" type="matrix" values="0 0 0 0 0 0 0 0 0 0 0 0 0 0 0 0 0 0 127 0" result="hardAlpha"/>
<feOffset dy="5.05009"/>
<feGaussianBlur stdDeviation="7.57514"/>
<feComposite in2="hardAlpha" operator="out"/>
<feColorMatrix type="matrix" values="0 0 0 0 1 0 0 0 0 1 0 0 0 0 1 0 0 0 0.2 0"/>
<feBlend mode="normal" in2="BackgroundImageFix" result="effect1_dropShadow_165_41"/>
<feBlend mode="normal" in="SourceGraphic" in2="effect1_dropShadow_165_41" result="shape"/>
<feColorMatrix in="SourceAlpha" type="matrix" values="0 0 0 0 0 0 0 0 0 0 0 0 0 0 0 0 0 0 127 0" result="hardAlpha"/>
<feOffset/>
<feGaussianBlur stdDeviation="2.09485"/>
<feComposite in2="hardAlpha" operator="arithmetic" k2="-1" k3="1"/>
<feColorMatrix type="matrix" values="0 0 0 0 1 0 0 0 0 1 0 0 0 0 1 0 0 0 1 0"/>
<feBlend mode="normal" in2="shape" result="effect2_innerShadow_165_41"/>
</filter>
<linearGradient id="paint0_linear_165_41" x1="26.6695" y1="17.2156" x2="40.6491" y2="43.2373" gradientUnits="userSpaceOnUse">
<stop stop-color="white"/>
<stop offset="0.770693" stop-color="#848484"/>
</linearGradient>
<radialGradient id="paint1_radial_165_41" cx="0" cy="0" r="1" gradientUnits="userSpaceOnUse" gradientTransform="translate(30.5021 10.6563) rotate(90) scale(45.8543 38.9074)">
<stop stop-color="#D3D3D3"/>
<stop offset="0.82495" stop-color="white" stop-opacity="0"/>
</radialGradient>
</defs>
</svg>
