<svg width="82" height="82" viewBox="0 0 82 82" fill="none" xmlns="http://www.w3.org/2000/svg">
<g filter="url(#filter0_di_165_80)">
<path fill-rule="evenodd" clip-rule="evenodd" d="M23.2968 54.9704C24.7625 53.1512 26.5283 51.5465 28.557 50.2323L32.2588 47.8345C30.511 45.7259 29.4525 42.9808 29.4525 39.9828C29.4525 33.3502 34.6327 27.954 41.0001 27.954C47.3675 27.954 52.5477 33.3502 52.5477 39.9828C52.5477 42.9833 51.4875 45.7306 49.737 47.8399L53.3969 50.2376C55.4464 51.5802 57.2296 53.2029 58.709 55.0296L57.9392 46.9482L71.7202 30.8177L51.4689 26.2056L41.0001 7.56848L30.5312 26.2056L10.28 30.8176L24.061 46.9481L23.2968 54.9704ZM59.9749 68.3187L59.7372 65.8243C58.8998 60.8659 55.9387 56.3721 51.4633 53.4401L46.7967 50.3829C45.0919 51.4179 43.1115 52.0117 41.0002 52.0117C38.8886 52.0117 36.9079 51.4179 35.2032 50.3827L30.475 53.4454C25.7942 56.4774 22.7906 61.3431 22.1761 66.7353L22.1125 67.4023C22.0867 67.7378 22.0701 68.0749 22.063 68.4138L41 59.7681L59.9767 68.4319L59.9762 68.3949L59.9762 68.3941C59.9758 68.3689 59.9754 68.3438 59.9749 68.3187ZM48.9156 39.9828C48.9156 44.5366 45.3717 48.2282 41.0001 48.2282C36.6284 48.2282 33.0845 44.5366 33.0845 39.9828C33.0845 35.429 36.6284 31.7374 41.0001 31.7374C45.3717 31.7374 48.9156 35.429 48.9156 39.9828Z" fill="url(#paint0_linear_165_80)" shape-rendering="crispEdges"/>
<path d="M28.557 50.2323L28.3641 49.9344L28.3641 49.9344L28.557 50.2323ZM23.2968 54.9704L22.9435 54.9367C22.9287 55.0927 23.0179 55.24 23.163 55.2991C23.3082 55.3581 23.4749 55.315 23.5732 55.193L23.2968 54.9704ZM32.2588 47.8345L32.4518 48.1324C32.5368 48.0773 32.5943 47.9884 32.6096 47.8882C32.625 47.788 32.5967 47.6861 32.532 47.608L32.2588 47.8345ZM49.737 47.8399L49.4639 47.6133C49.3994 47.6911 49.371 47.7927 49.3861 47.8926C49.4011 47.9926 49.458 48.0814 49.5425 48.1368L49.737 47.8399ZM53.3969 50.2376L53.2024 50.5345H53.2024L53.3969 50.2376ZM58.709 55.0296L58.4332 55.253C58.5318 55.3746 58.6984 55.4174 58.8433 55.3582C58.9882 55.299 59.0772 55.1518 59.0623 54.996L58.709 55.0296ZM57.9392 46.9482L57.6693 46.7177C57.6069 46.7908 57.5767 46.8861 57.5859 46.9818L57.9392 46.9482ZM71.7202 30.8177L71.99 31.0482C72.0707 30.9538 72.0961 30.824 72.057 30.7061C72.018 30.5881 71.9201 30.4992 71.799 30.4716L71.7202 30.8177ZM51.4689 26.2056L51.1595 26.3794C51.2086 26.4668 51.2923 26.5294 51.3901 26.5516L51.4689 26.2056ZM41.0001 7.56848L41.3095 7.39467C41.2467 7.28282 41.1284 7.21359 41.0001 7.21359C40.8718 7.21359 40.7535 7.28282 40.6907 7.39467L41.0001 7.56848ZM30.5312 26.2056L30.61 26.5516C30.7077 26.5294 30.7915 26.4668 30.8406 26.3794L30.5312 26.2056ZM10.28 30.8176L10.2012 30.4715C10.0801 30.4991 9.98221 30.588 9.94314 30.7059C9.90407 30.8239 9.92951 30.9536 10.0102 31.0481L10.28 30.8176ZM24.061 46.9481L24.4143 46.9817C24.4234 46.886 24.3933 46.7906 24.3309 46.7175L24.061 46.9481ZM59.7372 65.8243L60.0905 65.7906C60.0897 65.7821 60.0886 65.7736 60.0872 65.7652L59.7372 65.8243ZM59.9749 68.3187L60.3297 68.3107C60.3295 68.3021 60.329 68.2936 60.3282 68.285L59.9749 68.3187ZM51.4633 53.4401L51.6578 53.1432L51.4633 53.4401ZM46.7967 50.3829L46.9912 50.086C46.8768 50.011 46.7294 50.0085 46.6125 50.0795L46.7967 50.3829ZM35.2032 50.3827L35.3874 50.0794C35.271 50.0087 35.1245 50.0109 35.0102 50.0849L35.2032 50.3827ZM30.475 53.4454L30.282 53.1475L30.282 53.1475L30.475 53.4454ZM22.1761 66.7353L21.8234 66.6951L21.8228 66.7017L22.1761 66.7353ZM22.1125 67.4023L21.7591 67.3687L21.7587 67.3751L22.1125 67.4023ZM22.063 68.4138L21.7082 68.4063C21.7056 68.5284 21.766 68.6432 21.868 68.7103C21.97 68.7774 22.0993 68.7873 22.2104 68.7366L22.063 68.4138ZM41 59.7681L41.1474 59.4452C41.0538 59.4025 40.9463 59.4025 40.8527 59.4452L41 59.7681ZM59.9767 68.4319L59.8293 68.7548C59.94 68.8053 60.0689 68.7956 60.1708 68.7291C60.2726 68.6625 60.3333 68.5484 60.3316 68.4268L59.9767 68.4319ZM59.9762 68.3949L59.6213 68.3997L59.6213 68.4001L59.9762 68.3949ZM59.9762 68.3941L60.331 68.3893V68.3891L59.9762 68.3941ZM28.3641 49.9344C26.3035 51.2693 24.5096 52.8994 23.0205 54.7477L23.5732 55.193C25.0154 53.4029 26.7531 51.8237 28.75 50.5301L28.3641 49.9344ZM32.0659 47.5366L28.3641 49.9344L28.75 50.5302L32.4518 48.1324L32.0659 47.5366ZM29.0976 39.9828C29.0976 43.0653 30.1861 45.8901 31.9856 48.061L32.532 47.608C30.8358 45.5616 29.8073 42.8963 29.8073 39.9828H29.0976ZM41.0001 27.5991C34.4232 27.5991 29.0976 33.168 29.0976 39.9828H29.8073C29.8073 33.5324 34.8423 28.3089 41.0001 28.3089V27.5991ZM52.9026 39.9828C52.9026 33.168 47.577 27.5991 41.0001 27.5991V28.3089C47.1579 28.3089 52.1928 33.5324 52.1928 39.9828H52.9026ZM50.0101 48.0666C51.8123 45.8949 52.9026 43.0679 52.9026 39.9828H52.1928C52.1928 42.8987 51.1628 45.5662 49.4639 47.6133L50.0101 48.0666ZM53.5914 49.9407L49.9315 47.5431L49.5425 48.1368L53.2024 50.5345L53.5914 49.9407ZM58.9848 54.8063C57.4823 52.951 55.6716 51.3035 53.5914 49.9407L53.2024 50.5345C55.2211 51.8569 56.9769 53.4548 58.4332 55.253L58.9848 54.8063ZM57.5859 46.9818L58.3557 55.0633L59.0623 54.996L58.2925 46.9145L57.5859 46.9818ZM71.4503 30.5872L57.6693 46.7177L58.209 47.1787L71.99 31.0482L71.4503 30.5872ZM51.3901 26.5516L71.6413 31.1637L71.799 30.4716L51.5477 25.8596L51.3901 26.5516ZM40.6907 7.74229L51.1595 26.3794L51.7783 26.0318L41.3095 7.39467L40.6907 7.74229ZM30.8406 26.3794L41.3095 7.74229L40.6907 7.39467L30.2218 26.0318L30.8406 26.3794ZM10.3588 31.1636L30.61 26.5516L30.4524 25.8596L10.2012 30.4715L10.3588 31.1636ZM24.3309 46.7175L10.5499 30.587L10.0102 31.0481L23.7912 47.1786L24.3309 46.7175ZM23.6501 55.004L24.4143 46.9817L23.7077 46.9144L22.9435 54.9367L23.6501 55.004ZM59.3839 65.8579L59.6216 68.3523L60.3282 68.285L60.0905 65.7906L59.3839 65.8579ZM51.2688 53.737C55.6651 56.6172 58.567 61.0266 59.3873 65.8834L60.0872 65.7652C59.2326 60.7052 56.2123 56.127 51.6578 53.1432L51.2688 53.737ZM46.6022 50.6797L51.2688 53.737L51.6578 53.1432L46.9912 50.086L46.6022 50.6797ZM41.0002 52.3666C43.1791 52.3666 45.2229 51.7535 46.9809 50.6862L46.6125 50.0795C44.9609 51.0822 43.0438 51.6568 41.0002 51.6568V52.3666ZM35.019 50.6861C36.7769 51.7535 38.821 52.3666 41.0002 52.3666V51.6568C38.9563 51.6568 37.0389 51.0822 35.3874 50.0794L35.019 50.6861ZM30.6679 53.7433L35.3961 50.6806L35.0102 50.0849L30.282 53.1475L30.6679 53.7433ZM22.5287 66.7755C23.1311 61.4898 26.0753 56.7182 30.6679 53.7433L30.282 53.1475C25.5131 56.2367 22.4501 61.1964 21.8235 66.6951L22.5287 66.7755ZM22.4658 67.436L22.5294 66.769L21.8228 66.7017L21.7592 67.3687L22.4658 67.436ZM22.4178 68.4212C22.4248 68.089 22.4411 67.7585 22.4664 67.4295L21.7587 67.3751C21.7324 67.7171 21.7155 68.0608 21.7082 68.4063L22.4178 68.4212ZM40.8527 59.4452L21.9156 68.0909L22.2104 68.7366L41.1474 60.0909L40.8527 59.4452ZM60.1241 68.1091L41.1474 59.4452L40.8527 60.0909L59.8293 68.7548L60.1241 68.1091ZM59.6213 68.4001L59.6218 68.4371L60.3316 68.4268L60.331 68.3898L59.6213 68.4001ZM59.6213 68.3989L59.6213 68.3997L60.331 68.3901L60.331 68.3893L59.6213 68.3989ZM59.6201 68.3266C59.6206 68.35 59.6209 68.3736 59.6213 68.399L60.331 68.3891C60.3307 68.3642 60.3303 68.3376 60.3297 68.3107L59.6201 68.3266ZM41.0001 48.5831C45.5812 48.5831 49.2705 44.7189 49.2705 39.9828H48.5607C48.5607 44.3544 45.1622 47.8733 41.0001 47.8733V48.5831ZM32.7296 39.9828C32.7296 44.7189 36.4189 48.5831 41.0001 48.5831V47.8733C36.8379 47.8733 33.4394 44.3544 33.4394 39.9828H32.7296ZM41.0001 31.3825C36.4189 31.3825 32.7296 35.2468 32.7296 39.9828H33.4394C33.4394 35.6112 36.8379 32.0923 41.0001 32.0923V31.3825ZM49.2705 39.9828C49.2705 35.2468 45.5812 31.3825 41.0001 31.3825V32.0923C45.1622 32.0923 48.5607 35.6112 48.5607 39.9828H49.2705Z" fill="url(#paint1_radial_165_80)" style="mix-blend-mode:plus-lighter"/>
</g>
<defs>
<filter id="filter0_di_165_80" x="0.228874" y="0.749507" width="81.5423" height="80.9656" filterUnits="userSpaceOnUse" color-interpolation-filters="sRGB">
<feFlood flood-opacity="0" result="BackgroundImageFix"/>
<feColorMatrix in="SourceAlpha" type="matrix" values="0 0 0 0 0 0 0 0 0 0 0 0 0 0 0 0 0 0 127 0" result="hardAlpha"/>
<feOffset dy="3.23206"/>
<feGaussianBlur stdDeviation="4.84809"/>
<feComposite in2="hardAlpha" operator="out"/>
<feColorMatrix type="matrix" values="0 0 0 0 1 0 0 0 0 1 0 0 0 0 1 0 0 0 0.2 0"/>
<feBlend mode="normal" in2="BackgroundImageFix" result="effect1_dropShadow_165_80"/>
<feBlend mode="normal" in="SourceGraphic" in2="effect1_dropShadow_165_80" result="shape"/>
<feColorMatrix in="SourceAlpha" type="matrix" values="0 0 0 0 0 0 0 0 0 0 0 0 0 0 0 0 0 0 127 0" result="hardAlpha"/>
<feOffset/>
<feGaussianBlur stdDeviation="1.34071"/>
<feComposite in2="hardAlpha" operator="arithmetic" k2="-1" k3="1"/>
<feColorMatrix type="matrix" values="0 0 0 0 1 0 0 0 0 1 0 0 0 0 1 0 0 0 1 0"/>
<feBlend mode="normal" in2="shape" result="effect2_innerShadow_165_80"/>
</filter>
<linearGradient id="paint0_linear_165_80" x1="32.9996" y1="19.0777" x2="55.0678" y2="67.9484" gradientUnits="userSpaceOnUse">
<stop stop-color="white"/>
<stop offset="0.770693" stop-color="#848484"/>
</linearGradient>
<radialGradient id="paint1_radial_165_80" cx="0" cy="0" r="1" gradientUnits="userSpaceOnUse" gradientTransform="translate(41.0001 7.56848) rotate(90) scale(80.457 81.2193)">
<stop stop-color="#D3D3D3"/>
<stop offset="0.82495" stop-color="white" stop-opacity="0"/>
</radialGradient>
</defs>
</svg>
