<svg width="86" height="75" viewBox="0 0 86 75" fill="none" xmlns="http://www.w3.org/2000/svg">
<g filter="url(#filter0_di_203_31)">
<path d="M65.7612 36.165H60.8117C61.3162 37.5462 61.5919 39.0369 61.5919 40.5905V59.2967C61.5919 59.9445 61.4791 60.5662 61.274 61.1445H69.4566C72.5133 61.1445 74.9999 58.6577 74.9999 55.6012V45.4036C75 40.3095 70.8555 36.165 65.7612 36.165ZM24.4081 40.5906C24.4081 39.0369 24.6837 37.5464 25.1882 36.1651H20.2388C15.1445 36.1651 11 40.3096 11 45.4039V55.6015C11 58.658 13.4866 61.1447 16.5433 61.1447H24.726C24.5154 60.5514 24.4079 59.9264 24.4081 59.2969V40.5906ZM48.6576 31.3519H37.3424C32.2481 31.3519 28.1036 35.4964 28.1036 40.5906V59.2969C28.1036 60.3172 28.9309 61.1446 29.9514 61.1446H56.0486C57.0691 61.1446 57.8964 60.3174 57.8964 59.2969V40.5906C57.8964 35.4964 53.7519 31.3519 48.6576 31.3519ZM43 6.85498C36.8735 6.85498 31.8892 11.8392 31.8892 17.9659C31.8892 22.1215 34.1829 25.7509 37.5701 27.6564C39.1768 28.5601 41.029 29.0766 43 29.0766C44.971 29.0766 46.8232 28.5601 48.4299 27.6564C51.8172 25.7509 54.1107 22.1214 54.1107 17.9659C54.1107 11.8394 49.1265 6.85498 43 6.85498ZM23.4897 17.2111C18.9079 17.2111 15.1804 20.9386 15.1804 25.5205C15.1804 30.1024 18.9079 33.8299 23.4897 33.8299C24.6157 33.8308 25.73 33.6016 26.7641 33.1564C28.5024 32.408 29.9356 31.0832 30.8225 29.4239C31.465 28.2232 31.8005 26.8822 31.7991 25.5205C31.7991 20.9387 28.0716 17.2111 23.4897 17.2111ZM62.5103 17.2111C57.9284 17.2111 54.2009 20.9386 54.2009 25.5205C54.1995 26.8822 54.535 28.2232 55.1775 29.4239C56.0644 31.0834 57.4976 32.4081 59.2359 33.1564C60.27 33.6016 61.3843 33.8308 62.5103 33.8299C67.0921 33.8299 70.8196 30.1024 70.8196 25.5205C70.8196 20.9386 67.0921 17.2111 62.5103 17.2111Z" fill="url(#paint0_linear_203_31)" shape-rendering="crispEdges"/>
<path d="M65.7612 36.165H60.8117C61.3162 37.5462 61.5919 39.0369 61.5919 40.5905V59.2967C61.5919 59.9445 61.4791 60.5662 61.274 61.1445H69.4566C72.5133 61.1445 74.9999 58.6577 74.9999 55.6012V45.4036C75 40.3095 70.8555 36.165 65.7612 36.165ZM24.4081 40.5906C24.4081 39.0369 24.6837 37.5464 25.1882 36.1651H20.2388C15.1445 36.1651 11 40.3096 11 45.4039V55.6015C11 58.658 13.4866 61.1447 16.5433 61.1447H24.726C24.5154 60.5514 24.4079 59.9264 24.4081 59.2969V40.5906ZM48.6576 31.3519H37.3424C32.2481 31.3519 28.1036 35.4964 28.1036 40.5906V59.2969C28.1036 60.3172 28.9309 61.1446 29.9514 61.1446H56.0486C57.0691 61.1446 57.8964 60.3174 57.8964 59.2969V40.5906C57.8964 35.4964 53.7519 31.3519 48.6576 31.3519ZM43 6.85498C36.8735 6.85498 31.8892 11.8392 31.8892 17.9659C31.8892 22.1215 34.1829 25.7509 37.5701 27.6564C39.1768 28.5601 41.029 29.0766 43 29.0766C44.971 29.0766 46.8232 28.5601 48.4299 27.6564C51.8172 25.7509 54.1107 22.1214 54.1107 17.9659C54.1107 11.8394 49.1265 6.85498 43 6.85498ZM23.4897 17.2111C18.9079 17.2111 15.1804 20.9386 15.1804 25.5205C15.1804 30.1024 18.9079 33.8299 23.4897 33.8299C24.6157 33.8308 25.73 33.6016 26.7641 33.1564C28.5024 32.408 29.9356 31.0832 30.8225 29.4239C31.465 28.2232 31.8005 26.8822 31.7991 25.5205C31.7991 20.9387 28.0716 17.2111 23.4897 17.2111ZM62.5103 17.2111C57.9284 17.2111 54.2009 20.9386 54.2009 25.5205C54.1995 26.8822 54.535 28.2232 55.1775 29.4239C56.0644 31.0834 57.4976 32.4081 59.2359 33.1564C60.27 33.6016 61.3843 33.8308 62.5103 33.8299C67.0921 33.8299 70.8196 30.1024 70.8196 25.5205C70.8196 20.9386 67.0921 17.2111 62.5103 17.2111Z" stroke="url(#paint1_radial_203_31)" stroke-width="0.70979" stroke-linecap="round" stroke-linejoin="round" style="mix-blend-mode:plus-lighter" shape-rendering="crispEdges"/>
</g>
<defs>
<filter id="filter0_di_203_31" x="0.948845" y="0.0360057" width="84.1021" height="74.3919" filterUnits="userSpaceOnUse" color-interpolation-filters="sRGB">
<feFlood flood-opacity="0" result="BackgroundImageFix"/>
<feColorMatrix in="SourceAlpha" type="matrix" values="0 0 0 0 0 0 0 0 0 0 0 0 0 0 0 0 0 0 127 0" result="hardAlpha"/>
<feOffset dy="3.23206"/>
<feGaussianBlur stdDeviation="4.84809"/>
<feComposite in2="hardAlpha" operator="out"/>
<feColorMatrix type="matrix" values="0 0 0 0 1 0 0 0 0 1 0 0 0 0 1 0 0 0 0.2 0"/>
<feBlend mode="normal" in2="BackgroundImageFix" result="effect1_dropShadow_203_31"/>
<feBlend mode="normal" in="SourceGraphic" in2="effect1_dropShadow_203_31" result="shape"/>
<feColorMatrix in="SourceAlpha" type="matrix" values="0 0 0 0 0 0 0 0 0 0 0 0 0 0 0 0 0 0 127 0" result="hardAlpha"/>
<feOffset/>
<feGaussianBlur stdDeviation="1.34071"/>
<feComposite in2="hardAlpha" operator="arithmetic" k2="-1" k3="1"/>
<feColorMatrix type="matrix" values="0 0 0 0 1 0 0 0 0 1 0 0 0 0 1 0 0 0 1 0"/>
<feBlend mode="normal" in2="shape" result="effect2_innerShadow_203_31"/>
</filter>
<linearGradient id="paint0_linear_203_31" x1="34.6662" y1="17.1211" x2="52.3199" y2="62.7759" gradientUnits="userSpaceOnUse">
<stop stop-color="white"/>
<stop offset="0.770693" stop-color="#848484"/>
</linearGradient>
<radialGradient id="paint1_radial_203_31" cx="0" cy="0" r="1" gradientUnits="userSpaceOnUse" gradientTransform="translate(42.9999 6.85498) rotate(90) scale(71.7671 84.6031)">
<stop stop-color="#D3D3D3"/>
<stop offset="0.82495" stop-color="white" stop-opacity="0"/>
</radialGradient>
</defs>
</svg>
