<svg width="62" height="62" viewBox="0 0 62 62" fill="none" xmlns="http://www.w3.org/2000/svg">
<g filter="url(#filter0_di_165_45)">
<path d="M31 31C32.3261 31 33.5979 30.4732 34.5355 29.5355C35.4732 28.5979 36 27.3261 36 26C36 24.6739 35.4732 23.4021 34.5355 22.4645C33.5979 21.5268 32.3261 21 31 21C29.6739 21 28.4021 21.5268 27.4645 22.4645C26.5268 23.4021 26 24.6739 26 26C26 27.3261 26.5268 28.5979 27.4645 29.5355C28.4021 30.4732 29.6739 31 31 31Z" fill="url(#paint0_linear_165_45)" shape-rendering="crispEdges"/>
<path d="M31 31C32.3261 31 33.5979 30.4732 34.5355 29.5355C35.4732 28.5979 36 27.3261 36 26C36 24.6739 35.4732 23.4021 34.5355 22.4645C33.5979 21.5268 32.3261 21 31 21C29.6739 21 28.4021 21.5268 27.4645 22.4645C26.5268 23.4021 26 24.6739 26 26C26 27.3261 26.5268 28.5979 27.4645 29.5355C28.4021 30.4732 29.6739 31 31 31Z" stroke="url(#paint1_radial_165_45)" stroke-width="1.10905" stroke-linecap="round" stroke-linejoin="round" style="mix-blend-mode:plus-lighter" shape-rendering="crispEdges"/>
</g>
<g filter="url(#filter1_di_165_45)">
<path fill-rule="evenodd" clip-rule="evenodd" d="M31 11C31.442 11 31.8659 11.1756 32.1785 11.4882C32.4911 11.8007 32.6667 12.2246 32.6667 12.6667V14.45C35.1599 14.8104 37.4697 15.9677 39.251 17.749C41.0323 19.5303 42.1896 21.8401 42.55 24.3333H44.3333C44.7754 24.3333 45.1993 24.5089 45.5118 24.8215C45.8244 25.134 46 25.558 46 26C46 26.442 45.8244 26.8659 45.5118 27.1785C45.1993 27.4911 44.7754 27.6667 44.3333 27.6667H42.55C42.1896 30.1599 41.0323 32.4697 39.251 34.251C37.4697 36.0323 35.1599 37.1896 32.6667 37.55V39.3333C32.6667 39.7754 32.4911 40.1993 32.1785 40.5118C31.8659 40.8244 31.442 41 31 41C30.558 41 30.134 40.8244 29.8215 40.5118C29.5089 40.1993 29.3333 39.7754 29.3333 39.3333V37.55C26.8401 37.1896 24.5303 36.0323 22.749 34.251C20.9677 32.4697 19.8104 30.1599 19.45 27.6667H17.6667C17.2246 27.6667 16.8007 27.4911 16.4882 27.1785C16.1756 26.8659 16 26.442 16 26C16 25.558 16.1756 25.134 16.4882 24.8215C16.8007 24.5089 17.2246 24.3333 17.6667 24.3333H19.45C19.8106 21.8402 20.968 19.5305 22.7493 17.7493C24.5305 15.968 26.8402 14.8106 29.3333 14.45V12.6667C29.3333 12.2246 29.5089 11.8007 29.8215 11.4882C30.134 11.1756 30.558 11 31 11ZM22.6667 26C22.6667 23.7899 23.5446 21.6702 25.1074 20.1074C26.6702 18.5446 28.7899 17.6667 31 17.6667C33.2101 17.6667 35.3298 18.5446 36.8926 20.1074C38.4554 21.6702 39.3333 23.7899 39.3333 26C39.3333 28.2101 38.4554 30.3298 36.8926 31.8926C35.3298 33.4554 33.2101 34.3333 31 34.3333C28.7899 34.3333 26.6702 33.4554 25.1074 31.8926C23.5446 30.3298 22.6667 28.2101 22.6667 26Z" fill="url(#paint2_linear_165_45)" shape-rendering="crispEdges"/>
<path fill-rule="evenodd" clip-rule="evenodd" d="M31 11C31.442 11 31.8659 11.1756 32.1785 11.4882C32.4911 11.8007 32.6667 12.2246 32.6667 12.6667V14.45C35.1599 14.8104 37.4697 15.9677 39.251 17.749C41.0323 19.5303 42.1896 21.8401 42.55 24.3333H44.3333C44.7754 24.3333 45.1993 24.5089 45.5118 24.8215C45.8244 25.134 46 25.558 46 26C46 26.442 45.8244 26.8659 45.5118 27.1785C45.1993 27.4911 44.7754 27.6667 44.3333 27.6667H42.55C42.1896 30.1599 41.0323 32.4697 39.251 34.251C37.4697 36.0323 35.1599 37.1896 32.6667 37.55V39.3333C32.6667 39.7754 32.4911 40.1993 32.1785 40.5118C31.8659 40.8244 31.442 41 31 41C30.558 41 30.134 40.8244 29.8215 40.5118C29.5089 40.1993 29.3333 39.7754 29.3333 39.3333V37.55C26.8401 37.1896 24.5303 36.0323 22.749 34.251C20.9677 32.4697 19.8104 30.1599 19.45 27.6667H17.6667C17.2246 27.6667 16.8007 27.4911 16.4882 27.1785C16.1756 26.8659 16 26.442 16 26C16 25.558 16.1756 25.134 16.4882 24.8215C16.8007 24.5089 17.2246 24.3333 17.6667 24.3333H19.45C19.8106 21.8402 20.968 19.5305 22.7493 17.7493C24.5305 15.968 26.8402 14.8106 29.3333 14.45V12.6667C29.3333 12.2246 29.5089 11.8007 29.8215 11.4882C30.134 11.1756 30.558 11 31 11ZM22.6667 26C22.6667 23.7899 23.5446 21.6702 25.1074 20.1074C26.6702 18.5446 28.7899 17.6667 31 17.6667C33.2101 17.6667 35.3298 18.5446 36.8926 20.1074C38.4554 21.6702 39.3333 23.7899 39.3333 26C39.3333 28.2101 38.4554 30.3298 36.8926 31.8926C35.3298 33.4554 33.2101 34.3333 31 34.3333C28.7899 34.3333 26.6702 33.4554 25.1074 31.8926C23.5446 30.3298 22.6667 28.2101 22.6667 26Z" stroke="url(#paint3_radial_165_45)" stroke-width="1.10905" stroke-linecap="round" stroke-linejoin="round" style="mix-blend-mode:plus-lighter" shape-rendering="crispEdges"/>
</g>
<defs>
<filter id="filter0_di_165_45" x="10.2953" y="10.3453" width="41.4094" height="41.4097" filterUnits="userSpaceOnUse" color-interpolation-filters="sRGB">
<feFlood flood-opacity="0" result="BackgroundImageFix"/>
<feColorMatrix in="SourceAlpha" type="matrix" values="0 0 0 0 0 0 0 0 0 0 0 0 0 0 0 0 0 0 127 0" result="hardAlpha"/>
<feOffset dy="5.05009"/>
<feGaussianBlur stdDeviation="7.57514"/>
<feComposite in2="hardAlpha" operator="out"/>
<feColorMatrix type="matrix" values="0 0 0 0 1 0 0 0 0 1 0 0 0 0 1 0 0 0 0.2 0"/>
<feBlend mode="normal" in2="BackgroundImageFix" result="effect1_dropShadow_165_45"/>
<feBlend mode="normal" in="SourceGraphic" in2="effect1_dropShadow_165_45" result="shape"/>
<feColorMatrix in="SourceAlpha" type="matrix" values="0 0 0 0 0 0 0 0 0 0 0 0 0 0 0 0 0 0 127 0" result="hardAlpha"/>
<feOffset/>
<feGaussianBlur stdDeviation="2.09485"/>
<feComposite in2="hardAlpha" operator="arithmetic" k2="-1" k3="1"/>
<feColorMatrix type="matrix" values="0 0 0 0 1 0 0 0 0 1 0 0 0 0 1 0 0 0 1 0"/>
<feBlend mode="normal" in2="shape" result="effect2_innerShadow_165_45"/>
</filter>
<filter id="filter1_di_165_45" x="0.295283" y="0.345253" width="61.4094" height="61.4097" filterUnits="userSpaceOnUse" color-interpolation-filters="sRGB">
<feFlood flood-opacity="0" result="BackgroundImageFix"/>
<feColorMatrix in="SourceAlpha" type="matrix" values="0 0 0 0 0 0 0 0 0 0 0 0 0 0 0 0 0 0 127 0" result="hardAlpha"/>
<feOffset dy="5.05009"/>
<feGaussianBlur stdDeviation="7.57514"/>
<feComposite in2="hardAlpha" operator="out"/>
<feColorMatrix type="matrix" values="0 0 0 0 1 0 0 0 0 1 0 0 0 0 1 0 0 0 0.2 0"/>
<feBlend mode="normal" in2="BackgroundImageFix" result="effect1_dropShadow_165_45"/>
<feBlend mode="normal" in="SourceGraphic" in2="effect1_dropShadow_165_45" result="shape"/>
<feColorMatrix in="SourceAlpha" type="matrix" values="0 0 0 0 0 0 0 0 0 0 0 0 0 0 0 0 0 0 127 0" result="hardAlpha"/>
<feOffset/>
<feGaussianBlur stdDeviation="2.09485"/>
<feComposite in2="hardAlpha" operator="arithmetic" k2="-1" k3="1"/>
<feColorMatrix type="matrix" values="0 0 0 0 1 0 0 0 0 1 0 0 0 0 1 0 0 0 1 0"/>
<feBlend mode="normal" in2="shape" result="effect2_innerShadow_165_45"/>
</filter>
<linearGradient id="paint0_linear_165_45" x1="29.6978" y1="22.891" x2="33.3463" y2="30.8947" gradientUnits="userSpaceOnUse">
<stop stop-color="white"/>
<stop offset="0.770693" stop-color="#848484"/>
</linearGradient>
<radialGradient id="paint1_radial_165_45" cx="0" cy="0" r="1" gradientUnits="userSpaceOnUse" gradientTransform="translate(31 21) rotate(90) scale(13.2193)">
<stop stop-color="#D3D3D3"/>
<stop offset="0.82495" stop-color="white" stop-opacity="0"/>
</radialGradient>
<linearGradient id="paint2_linear_165_45" x1="27.0935" y1="16.673" x2="38.0388" y2="40.6842" gradientUnits="userSpaceOnUse">
<stop stop-color="white"/>
<stop offset="0.770693" stop-color="#848484"/>
</linearGradient>
<radialGradient id="paint3_radial_165_45" cx="0" cy="0" r="1" gradientUnits="userSpaceOnUse" gradientTransform="translate(31 11) rotate(90) scale(39.6578)">
<stop stop-color="#D3D3D3"/>
<stop offset="0.82495" stop-color="white" stop-opacity="0"/>
</radialGradient>
</defs>
</svg>
