<svg width="78" height="74" viewBox="0 0 78 74" fill="none" xmlns="http://www.w3.org/2000/svg">
<g filter="url(#filter0_di_213_280)">
<path fill-rule="evenodd" clip-rule="evenodd" d="M30.1112 7.33337H47.889C49.8527 7.33337 51.4446 8.92525 51.4446 10.8889V21.5556C51.4446 23.5193 49.8527 25.1112 47.889 25.1112H30.1112C28.1475 25.1112 26.5557 23.5193 26.5557 21.5556V10.8889C26.5557 8.92525 28.1475 7.33337 30.1112 7.33337ZM53.5779 35.4222H24.4223V40.8978H21.5779V32.5778H37.5779V26.8889H40.4223V32.5778H56.4223V40.8978H53.5779V35.4222ZM14.1112 42.8889H31.889C33.8527 42.8889 35.4446 44.4808 35.4446 46.4445V57.1111C35.4446 59.0748 33.8527 60.6667 31.889 60.6667H14.1112C12.1475 60.6667 10.5557 59.0748 10.5557 57.1111V46.4445C10.5557 44.4808 12.1475 42.8889 14.1112 42.8889ZM63.889 42.8889H46.1112C44.1475 42.8889 42.5557 44.4808 42.5557 46.4445V57.1111C42.5557 59.0748 44.1475 60.6667 46.1112 60.6667H63.889C65.8527 60.6667 67.4446 59.0748 67.4446 57.1111V46.4445C67.4446 44.4808 65.8527 42.8889 63.889 42.8889Z" fill="url(#paint0_linear_213_280)" shape-rendering="crispEdges"/>
<path d="M24.4223 35.4222V35.0674C24.2263 35.0674 24.0674 35.2262 24.0674 35.4222H24.4223ZM53.5779 35.4222H53.9328C53.9328 35.2262 53.7739 35.0674 53.5779 35.0674V35.4222ZM24.4223 40.8978V41.2527C24.6183 41.2527 24.7772 41.0938 24.7772 40.8978H24.4223ZM21.5779 40.8978H21.223C21.223 41.0938 21.3819 41.2527 21.5779 41.2527V40.8978ZM21.5779 32.5778V32.2229C21.3819 32.2229 21.223 32.3818 21.223 32.5778H21.5779ZM37.5779 32.5778V32.9327C37.7739 32.9327 37.9328 32.7738 37.9328 32.5778H37.5779ZM37.5779 26.8889V26.534C37.3819 26.534 37.223 26.6929 37.223 26.8889H37.5779ZM40.4223 26.8889H40.7772C40.7772 26.6929 40.6183 26.534 40.4223 26.534V26.8889ZM40.4223 32.5778H40.0674C40.0674 32.7738 40.2263 32.9327 40.4223 32.9327V32.5778ZM56.4223 32.5778H56.7772C56.7772 32.3818 56.6183 32.2229 56.4223 32.2229V32.5778ZM56.4223 40.8978V41.2527C56.6183 41.2527 56.7772 41.0938 56.7772 40.8978H56.4223ZM53.5779 40.8978H53.223C53.223 41.0938 53.3819 41.2527 53.5779 41.2527V40.8978ZM47.889 6.97848H30.1112V7.68827H47.889V6.97848ZM51.7994 10.8889C51.7994 8.72925 50.0487 6.97848 47.889 6.97848V7.68827C49.6567 7.68827 51.0897 9.12125 51.0897 10.8889H51.7994ZM51.7994 21.5556V10.8889H51.0897V21.5556H51.7994ZM47.889 25.466C50.0487 25.466 51.7994 23.7153 51.7994 21.5556H51.0897C51.0897 23.3233 49.6567 24.7563 47.889 24.7563V25.466ZM30.1112 25.466H47.889V24.7563H30.1112V25.466ZM26.2008 21.5556C26.2008 23.7153 27.9515 25.466 30.1112 25.466V24.7563C28.3435 24.7563 26.9106 23.3233 26.9106 21.5556H26.2008ZM26.2008 10.8889V21.5556H26.9106V10.8889H26.2008ZM30.1112 6.97848C27.9515 6.97848 26.2008 8.72925 26.2008 10.8889H26.9106C26.9106 9.12125 28.3435 7.68827 30.1112 7.68827V6.97848ZM24.4223 35.7771H53.5779V35.0674H24.4223V35.7771ZM24.7772 40.8978V35.4222H24.0674V40.8978H24.7772ZM21.5779 41.2527H24.4223V40.5429H21.5779V41.2527ZM21.223 32.5778V40.8978H21.9328V32.5778H21.223ZM37.5779 32.2229H21.5779V32.9327H37.5779V32.2229ZM37.223 26.8889V32.5778H37.9328V26.8889H37.223ZM40.4223 26.534H37.5779V27.2438H40.4223V26.534ZM40.7772 32.5778V26.8889H40.0674V32.5778H40.7772ZM56.4223 32.2229H40.4223V32.9327H56.4223V32.2229ZM56.7772 40.8978V32.5778H56.0674V40.8978H56.7772ZM53.5779 41.2527H56.4223V40.5429H53.5779V41.2527ZM53.223 35.4222V40.8978H53.9328V35.4222H53.223ZM31.889 42.534H14.1112V43.2438H31.889V42.534ZM35.7994 46.4445C35.7994 44.2848 34.0487 42.534 31.889 42.534V43.2438C33.6567 43.2438 35.0897 44.6768 35.0897 46.4445H35.7994ZM35.7994 57.1111V46.4445H35.0897V57.1111H35.7994ZM31.889 61.0216C34.0487 61.0216 35.7994 59.2708 35.7994 57.1111H35.0897C35.0897 58.8788 33.6567 60.3118 31.889 60.3118V61.0216ZM14.1112 61.0216H31.889V60.3118H14.1112V61.0216ZM10.2008 57.1111C10.2008 59.2708 11.9515 61.0216 14.1112 61.0216V60.3118C12.3435 60.3118 10.9106 58.8788 10.9106 57.1111H10.2008ZM10.2008 46.4445V57.1111H10.9106V46.4445H10.2008ZM14.1112 42.534C11.9515 42.534 10.2008 44.2848 10.2008 46.4445H10.9106C10.9106 44.6768 12.3435 43.2438 14.1112 43.2438V42.534ZM46.1112 43.2438H63.889V42.534H46.1112V43.2438ZM42.9106 46.4445C42.9106 44.6768 44.3435 43.2438 46.1112 43.2438V42.534C43.9515 42.534 42.2008 44.2848 42.2008 46.4445H42.9106ZM42.9106 57.1111V46.4445H42.2008V57.1111H42.9106ZM46.1112 60.3118C44.3435 60.3118 42.9106 58.8788 42.9106 57.1111H42.2008C42.2008 59.2708 43.9515 61.0216 46.1112 61.0216V60.3118ZM63.889 60.3118H46.1112V61.0216H63.889V60.3118ZM67.0897 57.1111C67.0897 58.8788 65.6567 60.3118 63.889 60.3118V61.0216C66.0487 61.0216 67.7994 59.2708 67.7994 57.1111H67.0897ZM67.0897 46.4445V57.1111H67.7994V46.4445H67.0897ZM63.889 43.2438C65.6567 43.2438 67.0897 44.6768 67.0897 46.4445H67.7994C67.7994 44.2848 66.0487 42.534 63.889 42.534V43.2438Z" fill="url(#paint1_radial_213_280)" style="mix-blend-mode:plus-lighter"/>
</g>
<defs>
<filter id="filter0_di_213_280" x="0.504509" y="0.514399" width="76.9912" height="73.4354" filterUnits="userSpaceOnUse" color-interpolation-filters="sRGB">
<feFlood flood-opacity="0" result="BackgroundImageFix"/>
<feColorMatrix in="SourceAlpha" type="matrix" values="0 0 0 0 0 0 0 0 0 0 0 0 0 0 0 0 0 0 127 0" result="hardAlpha"/>
<feOffset dy="3.23206"/>
<feGaussianBlur stdDeviation="4.84809"/>
<feComposite in2="hardAlpha" operator="out"/>
<feColorMatrix type="matrix" values="0 0 0 0 1 0 0 0 0 1 0 0 0 0 1 0 0 0 0.2 0"/>
<feBlend mode="normal" in2="BackgroundImageFix" result="effect1_dropShadow_213_280"/>
<feBlend mode="normal" in="SourceGraphic" in2="effect1_dropShadow_213_280" result="shape"/>
<feColorMatrix in="SourceAlpha" type="matrix" values="0 0 0 0 0 0 0 0 0 0 0 0 0 0 0 0 0 0 127 0" result="hardAlpha"/>
<feOffset/>
<feGaussianBlur stdDeviation="1.34071"/>
<feComposite in2="hardAlpha" operator="arithmetic" k2="-1" k3="1"/>
<feColorMatrix type="matrix" values="0 0 0 0 1 0 0 0 0 1 0 0 0 0 1 0 0 0 1 0"/>
<feBlend mode="normal" in2="shape" result="effect2_innerShadow_213_280"/>
</filter>
<linearGradient id="paint0_linear_213_280" x1="31.5923" y1="17.4187" x2="50.2226" y2="61.0136" gradientUnits="userSpaceOnUse">
<stop stop-color="white"/>
<stop offset="0.770693" stop-color="#848484"/>
</linearGradient>
<radialGradient id="paint1_radial_213_280" cx="0" cy="0" r="1" gradientUnits="userSpaceOnUse" gradientTransform="translate(39.0001 7.33337) rotate(90) scale(70.5027 75.2029)">
<stop stop-color="#D3D3D3"/>
<stop offset="0.82495" stop-color="white" stop-opacity="0"/>
</radialGradient>
</defs>
</svg>
