<svg width="66" height="59" viewBox="0 0 66 59" fill="none" xmlns="http://www.w3.org/2000/svg">
<g filter="url(#filter0_di_165_51)">
<path fill-rule="evenodd" clip-rule="evenodd" d="M19.6666 10.6666C18.7825 10.6666 17.9347 11.0178 17.3096 11.6429C16.6844 12.2681 16.3333 13.1159 16.3333 14V34C16.3333 34.884 16.6844 35.7319 17.3096 36.357C17.9347 36.9821 18.7825 37.3333 19.6666 37.3333H46.3333C47.2173 37.3333 48.0652 36.9821 48.6903 36.357C49.3154 35.7319 49.6666 34.884 49.6666 34V14C49.6666 13.1159 49.3154 12.2681 48.6903 11.6429C48.0652 11.0178 47.2173 10.6666 46.3333 10.6666H19.6666ZM36.3333 19C36.3333 18.5579 36.5088 18.134 36.8214 17.8214C37.134 17.5089 37.5579 17.3333 37.9999 17.3333H42.9999C43.4419 17.3333 43.8659 17.5089 44.1784 17.8214C44.491 18.134 44.6666 18.5579 44.6666 19C44.6666 19.442 44.491 19.8659 44.1784 20.1785C43.8659 20.491 43.4419 20.6666 42.9999 20.6666H37.9999C37.5579 20.6666 37.134 20.491 36.8214 20.1785C36.5088 19.8659 36.3333 19.442 36.3333 19ZM36.3333 24C36.3333 23.5579 36.5088 23.134 36.8214 22.8214C37.134 22.5089 37.5579 22.3333 37.9999 22.3333H42.9999C43.4419 22.3333 43.8659 22.5089 44.1784 22.8214C44.491 23.134 44.6666 23.5579 44.6666 24C44.6666 24.442 44.491 24.8659 44.1784 25.1785C43.8659 25.491 43.4419 25.6666 42.9999 25.6666H37.9999C37.5579 25.6666 37.134 25.491 36.8214 25.1785C36.5088 24.8659 36.3333 24.442 36.3333 24ZM36.3333 29C36.3333 28.5579 36.5088 28.134 36.8214 27.8214C37.134 27.5089 37.5579 27.3333 37.9999 27.3333H42.9999C43.4419 27.3333 43.8659 27.5089 44.1784 27.8214C44.491 28.134 44.6666 28.5579 44.6666 29C44.6666 29.442 44.491 29.8659 44.1784 30.1785C43.8659 30.491 43.4419 30.6666 42.9999 30.6666H37.9999C37.5579 30.6666 37.134 30.491 36.8214 30.1785C36.5088 29.8659 36.3333 29.442 36.3333 29ZM22.9999 20.6666C22.9999 19.3405 23.5267 18.0688 24.4644 17.1311C25.4021 16.1934 26.6738 15.6666 27.9999 15.6666C29.326 15.6666 30.5978 16.1934 31.5355 17.1311C32.4731 18.0688 32.9999 19.3405 32.9999 20.6666C32.9999 21.9927 32.4731 23.2645 31.5355 24.2022C30.5978 25.1398 29.326 25.6666 27.9999 25.6666C26.6738 25.6666 25.4021 25.1398 24.4644 24.2022C23.5267 23.2645 22.9999 21.9927 22.9999 20.6666ZM26.2366 27.3333C25.187 27.3329 24.1638 27.6629 23.3122 28.2764C22.4606 28.8899 21.8236 29.7559 21.4916 30.7516L21.4183 30.9733L21.4116 30.9933C21.3416 31.2033 21.3199 31.2716 21.3416 31.3183C21.3516 31.34 21.3749 31.3566 21.4049 31.3833C21.4583 31.425 21.5383 31.49 21.6483 31.6416C21.8027 31.8557 22.0058 32.0301 22.2407 32.1503C22.4757 32.2706 22.7359 32.3333 22.9999 32.3333H32.9999C33.2639 32.3333 33.5241 32.2706 33.7591 32.1503C33.9941 32.0301 34.1972 31.8557 34.3516 31.6416C34.419 31.5436 34.5011 31.4565 34.5949 31.3833C34.6266 31.3566 34.6466 31.34 34.6583 31.3166C34.6816 31.2716 34.6583 31.2033 34.5883 30.9933L34.5816 30.9733L34.5083 30.7516C34.1763 29.7562 33.5396 28.8904 32.6883 28.2769C31.837 27.6634 30.8143 27.3333 29.7649 27.3333H26.2366Z" fill="url(#paint0_linear_165_51)" shape-rendering="crispEdges"/>
<path fill-rule="evenodd" clip-rule="evenodd" d="M19.6666 10.6666C18.7825 10.6666 17.9347 11.0178 17.3096 11.6429C16.6844 12.2681 16.3333 13.1159 16.3333 14V34C16.3333 34.884 16.6844 35.7319 17.3096 36.357C17.9347 36.9821 18.7825 37.3333 19.6666 37.3333H46.3333C47.2173 37.3333 48.0652 36.9821 48.6903 36.357C49.3154 35.7319 49.6666 34.884 49.6666 34V14C49.6666 13.1159 49.3154 12.2681 48.6903 11.6429C48.0652 11.0178 47.2173 10.6666 46.3333 10.6666H19.6666ZM36.3333 19C36.3333 18.5579 36.5088 18.134 36.8214 17.8214C37.134 17.5089 37.5579 17.3333 37.9999 17.3333H42.9999C43.4419 17.3333 43.8659 17.5089 44.1784 17.8214C44.491 18.134 44.6666 18.5579 44.6666 19C44.6666 19.442 44.491 19.8659 44.1784 20.1785C43.8659 20.491 43.4419 20.6666 42.9999 20.6666H37.9999C37.5579 20.6666 37.134 20.491 36.8214 20.1785C36.5088 19.8659 36.3333 19.442 36.3333 19ZM36.3333 24C36.3333 23.5579 36.5088 23.134 36.8214 22.8214C37.134 22.5089 37.5579 22.3333 37.9999 22.3333H42.9999C43.4419 22.3333 43.8659 22.5089 44.1784 22.8214C44.491 23.134 44.6666 23.5579 44.6666 24C44.6666 24.442 44.491 24.8659 44.1784 25.1785C43.8659 25.491 43.4419 25.6666 42.9999 25.6666H37.9999C37.5579 25.6666 37.134 25.491 36.8214 25.1785C36.5088 24.8659 36.3333 24.442 36.3333 24ZM36.3333 29C36.3333 28.5579 36.5088 28.134 36.8214 27.8214C37.134 27.5089 37.5579 27.3333 37.9999 27.3333H42.9999C43.4419 27.3333 43.8659 27.5089 44.1784 27.8214C44.491 28.134 44.6666 28.5579 44.6666 29C44.6666 29.442 44.491 29.8659 44.1784 30.1785C43.8659 30.491 43.4419 30.6666 42.9999 30.6666H37.9999C37.5579 30.6666 37.134 30.491 36.8214 30.1785C36.5088 29.8659 36.3333 29.442 36.3333 29ZM22.9999 20.6666C22.9999 19.3405 23.5267 18.0688 24.4644 17.1311C25.4021 16.1934 26.6738 15.6666 27.9999 15.6666C29.326 15.6666 30.5978 16.1934 31.5355 17.1311C32.4731 18.0688 32.9999 19.3405 32.9999 20.6666C32.9999 21.9927 32.4731 23.2645 31.5355 24.2022C30.5978 25.1398 29.326 25.6666 27.9999 25.6666C26.6738 25.6666 25.4021 25.1398 24.4644 24.2022C23.5267 23.2645 22.9999 21.9927 22.9999 20.6666ZM26.2366 27.3333C25.187 27.3329 24.1638 27.6629 23.3122 28.2764C22.4606 28.8899 21.8236 29.7559 21.4916 30.7516L21.4183 30.9733L21.4116 30.9933C21.3416 31.2033 21.3199 31.2716 21.3416 31.3183C21.3516 31.34 21.3749 31.3566 21.4049 31.3833C21.4583 31.425 21.5383 31.49 21.6483 31.6416C21.8027 31.8557 22.0058 32.0301 22.2407 32.1503C22.4757 32.2706 22.7359 32.3333 22.9999 32.3333H32.9999C33.2639 32.3333 33.5241 32.2706 33.7591 32.1503C33.9941 32.0301 34.1972 31.8557 34.3516 31.6416C34.419 31.5436 34.5011 31.4565 34.5949 31.3833C34.6266 31.3566 34.6466 31.34 34.6583 31.3166C34.6816 31.2716 34.6583 31.2033 34.5883 30.9933L34.5816 30.9733L34.5083 30.7516C34.1763 29.7562 33.5396 28.8904 32.6883 28.2769C31.837 27.6634 30.8143 27.3333 29.7649 27.3333H26.2366Z" stroke="url(#paint1_radial_165_51)" stroke-width="1.10905" stroke-linecap="round" stroke-linejoin="round" style="mix-blend-mode:plus-lighter" shape-rendering="crispEdges"/>
</g>
<defs>
<filter id="filter0_di_165_51" x="0.628535" y="0.0118785" width="64.7429" height="58.0763" filterUnits="userSpaceOnUse" color-interpolation-filters="sRGB">
<feFlood flood-opacity="0" result="BackgroundImageFix"/>
<feColorMatrix in="SourceAlpha" type="matrix" values="0 0 0 0 0 0 0 0 0 0 0 0 0 0 0 0 0 0 127 0" result="hardAlpha"/>
<feOffset dy="5.05009"/>
<feGaussianBlur stdDeviation="7.57514"/>
<feComposite in2="hardAlpha" operator="out"/>
<feColorMatrix type="matrix" values="0 0 0 0 1 0 0 0 0 1 0 0 0 0 1 0 0 0 0.2 0"/>
<feBlend mode="normal" in2="BackgroundImageFix" result="effect1_dropShadow_165_51"/>
<feBlend mode="normal" in="SourceGraphic" in2="effect1_dropShadow_165_51" result="shape"/>
<feColorMatrix in="SourceAlpha" type="matrix" values="0 0 0 0 0 0 0 0 0 0 0 0 0 0 0 0 0 0 127 0" result="hardAlpha"/>
<feOffset/>
<feGaussianBlur stdDeviation="2.09485"/>
<feComposite in2="hardAlpha" operator="arithmetic" k2="-1" k3="1"/>
<feColorMatrix type="matrix" values="0 0 0 0 1 0 0 0 0 1 0 0 0 0 1 0 0 0 1 0"/>
<feBlend mode="normal" in2="shape" result="effect2_innerShadow_165_51"/>
</filter>
<linearGradient id="paint0_linear_165_51" x1="28.6594" y1="15.7093" x2="36.9566" y2="38.4618" gradientUnits="userSpaceOnUse">
<stop stop-color="white"/>
<stop offset="0.770693" stop-color="#848484"/>
</linearGradient>
<radialGradient id="paint1_radial_165_51" cx="0" cy="0" r="1" gradientUnits="userSpaceOnUse" gradientTransform="translate(32.9999 10.6666) rotate(90) scale(35.2514 44.0642)">
<stop stop-color="#D3D3D3"/>
<stop offset="0.82495" stop-color="white" stop-opacity="0"/>
</radialGradient>
</defs>
</svg>
