<svg width="64" height="73" viewBox="0 0 64 73" fill="none" xmlns="http://www.w3.org/2000/svg">
<g filter="url(#filter0_di_165_97)">
<path fill-rule="evenodd" clip-rule="evenodd" d="M11.1797 33.2269C11.1797 35.9503 13.3875 38.1581 16.1109 38.1581C18.8343 38.1581 21.042 35.9503 21.042 33.2269V23.4255C21.042 20.0633 23.7676 17.3376 27.1299 17.3376C28.3664 17.3376 29.5164 17.7068 30.4767 18.3403V7C23.1405 7.69794 17.2594 13.3842 16.2616 20.629C16.2114 20.6268 16.1612 20.6255 16.111 20.6252C13.9928 20.6252 12.2756 22.3423 12.2756 24.4605C12.2756 26.5787 13.9928 28.2958 16.111 28.2958C13.3875 28.2957 11.1797 30.5035 11.1797 33.2269ZM42.9581 23.4255V33.2269C42.9581 35.9503 45.1659 38.1581 47.8893 38.1581C50.6126 38.1581 52.8204 35.9503 52.8204 33.2269C52.8204 30.5035 50.6126 28.2957 47.8893 28.2957C50.0074 28.2957 51.7246 26.5786 51.7246 24.4604C51.7246 22.3422 50.0074 20.6251 47.8893 20.6251C47.8388 20.6251 47.7887 20.6269 47.7386 20.6289C46.7407 13.3842 40.8596 7.69794 33.5234 7V18.3404C34.5163 17.6847 35.6804 17.336 36.8702 17.3377C40.2325 17.3377 42.9581 20.0633 42.9581 23.4255ZM28.5726 48.3623L25.6101 43.4744L22.6476 46.4367L28.5726 48.3623ZM35.4274 48.3623L41.3524 46.4367L38.3899 43.4744L35.4274 48.3623ZM29.5639 21.6028C28.9823 20.8286 28.0951 20.3846 27.1298 20.3846C25.453 20.3846 24.0889 21.7488 24.0889 23.4255V33.2269C24.0898 34.3904 23.8345 35.5398 23.3413 36.5936C25.48 38.9564 28.5696 40.4432 32 40.4432C35.4304 40.4432 38.52 38.9564 40.6587 36.5936C40.1655 35.5398 39.9103 34.3904 39.9111 33.2269V23.4255C39.9111 21.7487 38.5469 20.3846 36.8702 20.3846C35.9049 20.3846 35.0176 20.8287 34.4361 21.6028C34.1522 21.9806 33.7844 22.2873 33.3616 22.4985C32.9388 22.7097 32.4726 22.8196 32 22.8196C31.5274 22.8196 31.0613 22.7097 30.6385 22.4985C30.2157 22.2873 29.8478 21.9806 29.5639 21.6028ZM41.7713 42.5469H44.1875C49.5076 42.5469 53.8359 46.8752 53.8359 52.1953V57.4766C53.8359 58.3179 53.1538 59 52.3125 59H39.3525L37.7785 50.8021L44.6582 48.5662C44.9062 48.4856 45.1292 48.3428 45.3062 48.1514C45.4831 47.96 45.608 47.7264 45.6688 47.4729C45.7297 47.2194 45.7245 46.9546 45.6537 46.7037C45.583 46.4529 45.449 46.2243 45.2647 46.04L41.7713 42.5469ZM33.5234 59V52.185L34.8584 51.7511L36.25 59H33.5234ZM30.4766 59H27.75L29.1416 51.7511L30.4766 52.185V59ZM28.9924 43.1768C29.9748 43.383 30.9822 43.4901 32 43.4901C33.0107 43.4897 34.0186 43.3847 35.0076 43.1767L32 48.139L28.9924 43.1768ZM18.3462 46.7036C18.2755 46.9545 18.2703 47.2193 18.3311 47.4728C18.3919 47.7262 18.5168 47.9599 18.6937 48.1513C18.8707 48.3427 19.0937 48.4855 19.3417 48.5661L26.2214 50.802L24.6475 59H11.6875C10.8462 59 10.1641 58.3179 10.1641 57.4766V52.1953C10.1641 46.8752 14.4924 42.5469 19.8125 42.5469H22.2287L18.7352 46.0399C18.5509 46.2242 18.417 46.4527 18.3462 46.7036Z" fill="url(#paint0_linear_165_97)" shape-rendering="crispEdges"/>
<path d="M30.4767 18.3403L30.2812 18.6365C30.3902 18.7084 30.5299 18.7146 30.6449 18.6528C30.7599 18.5909 30.8316 18.4708 30.8316 18.3403H30.4767ZM30.4767 7H30.8316C30.8316 6.90003 30.7894 6.8047 30.7154 6.73744C30.6415 6.67018 30.5426 6.63723 30.4431 6.6467L30.4767 7ZM16.2616 20.629L16.2459 20.9835C16.429 20.9916 16.5881 20.859 16.6131 20.6774L16.2616 20.629ZM16.111 20.6252L16.113 20.2703H16.111V20.6252ZM16.111 28.2958V28.6507C16.307 28.6507 16.4658 28.4918 16.4658 28.2958C16.4659 28.0998 16.307 27.9409 16.111 27.9409L16.111 28.2958ZM47.8893 27.9408C47.6932 27.9408 47.5344 28.0997 47.5344 28.2957C47.5344 28.4917 47.6932 28.6506 47.8893 28.6506V27.9408ZM47.7386 20.6289L47.3871 20.6773C47.412 20.8581 47.5699 20.9905 47.7523 20.9835L47.7386 20.6289ZM33.5234 7L33.557 6.6467C33.4575 6.63723 33.3586 6.67018 33.2847 6.73744C33.2107 6.8047 33.1685 6.90003 33.1685 7H33.5234ZM33.5234 18.3404H33.1685C33.1685 18.471 33.2403 18.591 33.3553 18.6529C33.4703 18.7148 33.61 18.7085 33.719 18.6365L33.5234 18.3404ZM36.8702 17.3377L36.8697 17.6926H36.8702V17.3377ZM25.6101 43.4744L25.9136 43.2905C25.8571 43.1973 25.7609 43.1352 25.6527 43.1221C25.5445 43.109 25.4362 43.1464 25.3592 43.2235L25.6101 43.4744ZM28.5726 48.3623L28.4629 48.6999C28.6039 48.7457 28.7586 48.699 28.8507 48.5827C28.9428 48.4665 28.9529 48.3052 28.8761 48.1784L28.5726 48.3623ZM22.6476 46.4367L22.3967 46.1858C22.3094 46.2731 22.2737 46.3995 22.3025 46.5195C22.3313 46.6396 22.4205 46.7361 22.5379 46.7742L22.6476 46.4367ZM41.3524 46.4367L41.4621 46.7742C41.5795 46.7361 41.6687 46.6396 41.6975 46.5195C41.7263 46.3995 41.6906 46.2731 41.6033 46.1858L41.3524 46.4367ZM35.4274 48.3623L35.1239 48.1784C35.0471 48.3052 35.0572 48.4665 35.1493 48.5827C35.2414 48.699 35.3961 48.7457 35.5371 48.6999L35.4274 48.3623ZM38.3899 43.4744L38.6408 43.2235C38.5638 43.1464 38.4555 43.109 38.3473 43.1221C38.2391 43.1352 38.1429 43.1973 38.0864 43.2905L38.3899 43.4744ZM29.5639 21.6028L29.8477 21.3896L29.8477 21.3896L29.5639 21.6028ZM24.0889 33.2269H23.734V33.2272L24.0889 33.2269ZM23.3413 36.5936L23.0199 36.4432C22.9593 36.5726 22.9823 36.7258 23.0782 36.8318L23.3413 36.5936ZM40.6587 36.5936L40.9218 36.8318C41.0178 36.7258 41.0407 36.5726 40.9802 36.4432L40.6587 36.5936ZM39.9111 33.2269L40.266 33.2272V33.2269H39.9111ZM34.4361 21.6028L34.1523 21.3896L34.1523 21.3896L34.4361 21.6028ZM33.3616 22.4985L33.5201 22.816V22.816L33.3616 22.4985ZM30.6385 22.4985L30.4799 22.816V22.816L30.6385 22.4985ZM41.7713 42.5469V42.192C41.6278 42.192 41.4984 42.2785 41.4434 42.4111C41.3885 42.5437 41.4189 42.6963 41.5204 42.7978L41.7713 42.5469ZM39.3525 59L39.004 59.0669C39.0361 59.2341 39.1823 59.3549 39.3525 59.3549V59ZM37.7785 50.8021L37.6688 50.4646C37.4986 50.5199 37.3962 50.6932 37.43 50.869L37.7785 50.8021ZM44.6582 48.5662L44.5486 48.2287L44.5485 48.2287L44.6582 48.5662ZM45.6688 47.4729L46.0139 47.5558L46.0139 47.5558L45.6688 47.4729ZM45.6537 46.7037L45.9953 46.6074V46.6074L45.6537 46.7037ZM45.2647 46.04L45.0137 46.291H45.0137L45.2647 46.04ZM33.5234 52.185L33.4137 51.8474C33.2675 51.895 33.1685 52.0312 33.1685 52.185H33.5234ZM33.5234 59H33.1685C33.1685 59.196 33.3274 59.3549 33.5234 59.3549V59ZM34.8584 51.7511L35.2069 51.6842C35.1877 51.5842 35.1265 51.4973 35.0388 51.4455C34.9512 51.3937 34.8455 51.3821 34.7487 51.4136L34.8584 51.7511ZM36.25 59V59.3549C36.3558 59.3549 36.4561 59.3077 36.5236 59.2261C36.591 59.1445 36.6185 59.037 36.5985 58.9331L36.25 59ZM27.75 59L27.4015 58.9331C27.3815 59.037 27.409 59.1445 27.4764 59.2261C27.5439 59.3077 27.6442 59.3549 27.75 59.3549V59ZM30.4766 59V59.3549C30.6726 59.3549 30.8315 59.196 30.8315 59H30.4766ZM29.1416 51.7511L29.2513 51.4136C29.1545 51.3821 29.0488 51.3937 28.9612 51.4455C28.8735 51.4973 28.8123 51.5842 28.7931 51.6842L29.1416 51.7511ZM30.4766 52.185H30.8315C30.8315 52.0312 30.7325 51.895 30.5863 51.8474L30.4766 52.185ZM32 43.4901V43.845H32.0001L32 43.4901ZM28.9924 43.1768L29.0654 42.8294C28.927 42.8004 28.7846 42.8562 28.7029 42.9716C28.6211 43.0869 28.6157 43.2398 28.6889 43.3607L28.9924 43.1768ZM35.0076 43.1767L35.3111 43.3606C35.3844 43.2397 35.3789 43.0868 35.2971 42.9714C35.2153 42.8561 35.0729 42.8003 34.9345 42.8294L35.0076 43.1767ZM32 48.139L31.6965 48.323C31.7608 48.4291 31.8759 48.4939 32 48.4939C32.1241 48.4939 32.2392 48.4291 32.3035 48.323L32 48.139ZM18.3311 47.4728L18.6762 47.3899L18.6762 47.3899L18.3311 47.4728ZM18.3462 46.7036L18.0047 46.6073H18.0047L18.3462 46.7036ZM18.6937 48.1513L18.9544 47.9104L18.9543 47.9104L18.6937 48.1513ZM19.3417 48.5661L19.4513 48.2286L19.4513 48.2286L19.3417 48.5661ZM26.2214 50.802L26.5699 50.8689C26.6037 50.6931 26.5013 50.5198 26.3311 50.4645L26.2214 50.802ZM24.6475 59V59.3549C24.8177 59.3549 24.9639 59.2341 24.996 59.0669L24.6475 59ZM22.2287 42.5469L22.4796 42.7978C22.5811 42.6963 22.6115 42.5437 22.5566 42.4111C22.5016 42.2785 22.3722 42.192 22.2287 42.192V42.5469ZM18.7352 46.0399L18.4843 45.789L18.4843 45.789L18.7352 46.0399ZM16.1109 37.8032C13.5835 37.8032 11.5346 35.7543 11.5346 33.2269H10.8248C10.8248 36.1463 13.1915 38.5129 16.1109 38.5129V37.8032ZM20.6871 33.2269C20.6871 35.7543 18.6382 37.8032 16.1109 37.8032V38.5129C19.0303 38.5129 21.3969 36.1463 21.3969 33.2269H20.6871ZM20.6871 23.4255V33.2269H21.3969V23.4255H20.6871ZM27.1299 16.9827C23.5716 16.9827 20.6871 19.8673 20.6871 23.4255H21.3969C21.3969 20.2593 23.9637 17.6925 27.1299 17.6925V16.9827ZM30.6721 18.044C29.6557 17.3736 28.4381 16.9827 27.1299 16.9827V17.6925C28.2947 17.6925 29.3771 18.0401 30.2812 18.6365L30.6721 18.044ZM30.1218 7V18.3403H30.8316V7H30.1218ZM16.6131 20.6774C17.5886 13.595 23.3387 8.03558 30.5103 7.3533L30.4431 6.6467C22.9423 7.3603 16.9302 13.1734 15.91 20.5806L16.6131 20.6774ZM16.109 20.9801C16.1546 20.9804 16.2003 20.9815 16.2459 20.9835L16.2773 20.2744C16.2225 20.272 16.1677 20.2706 16.113 20.2703L16.109 20.9801ZM12.6305 24.4605C12.6305 22.5383 14.1888 20.9801 16.111 20.9801V20.2703C13.7968 20.2703 11.9208 22.1463 11.9208 24.4605H12.6305ZM16.111 27.9409C14.1888 27.9409 12.6305 26.3827 12.6305 24.4605H11.9208C11.9208 26.7747 13.7968 28.6507 16.111 28.6507V27.9409ZM11.5346 33.2269C11.5346 30.6995 13.5835 28.6506 16.1109 28.6507L16.111 27.9409C13.1915 27.9408 10.8248 30.3075 10.8248 33.2269H11.5346ZM43.313 33.2269V23.4255H42.6032V33.2269H43.313ZM47.8893 37.8032C45.3619 37.8032 43.313 35.7543 43.313 33.2269H42.6032C42.6032 36.1463 44.9698 38.5129 47.8893 38.5129V37.8032ZM52.4655 33.2269C52.4655 35.7543 50.4166 37.8032 47.8893 37.8032V38.5129C50.8087 38.5129 53.1753 36.1463 53.1753 33.2269H52.4655ZM47.8893 28.6506C50.4166 28.6506 52.4655 30.6995 52.4655 33.2269H53.1753C53.1753 30.3075 50.8087 27.9408 47.8893 27.9408V28.6506ZM51.3697 24.4604C51.3697 26.3826 49.8114 27.9408 47.8893 27.9408V28.6506C50.2034 28.6506 52.0795 26.7746 52.0795 24.4604H51.3697ZM47.8893 20.98C49.8114 20.98 51.3697 22.5382 51.3697 24.4604H52.0795C52.0795 22.1462 50.2034 20.2702 47.8893 20.2702V20.98ZM47.7523 20.9835C47.8028 20.9816 47.8465 20.98 47.8893 20.98V20.2702C47.8311 20.2702 47.7746 20.2723 47.725 20.2742L47.7523 20.9835ZM33.4898 7.3533C40.6614 8.03558 46.4115 13.595 47.3871 20.6773L48.0902 20.5804C47.0699 13.1734 41.0578 7.3603 33.557 6.6467L33.4898 7.3533ZM33.8783 18.3404V7H33.1685V18.3404H33.8783ZM36.8707 16.9828C35.6112 16.981 34.379 17.3501 33.3279 18.0442L33.719 18.6365C34.6537 18.0193 35.7496 17.691 36.8697 17.6926L36.8707 16.9828ZM43.313 23.4255C43.313 19.8673 40.4284 16.9828 36.8702 16.9828V17.6926C40.0365 17.6926 42.6032 20.2593 42.6032 23.4255H43.313ZM25.3066 43.6584L28.2691 48.5463L28.8761 48.1784L25.9136 43.2905L25.3066 43.6584ZM22.8986 46.6877L25.861 43.7254L25.3592 43.2235L22.3967 46.1858L22.8986 46.6877ZM28.6823 48.0248L22.7573 46.0992L22.5379 46.7742L28.4629 48.6999L28.6823 48.0248ZM41.2427 46.0992L35.3177 48.0248L35.5371 48.6999L41.4621 46.7742L41.2427 46.0992ZM38.139 43.7254L41.1014 46.6877L41.6033 46.1858L38.6408 43.2235L38.139 43.7254ZM35.7309 48.5463L38.6934 43.6584L38.0864 43.2905L35.1239 48.1784L35.7309 48.5463ZM27.1298 20.7395C27.9831 20.7395 28.7653 21.1306 29.2802 21.8159L29.8477 21.3896C29.1992 20.5265 28.2071 20.0297 27.1298 20.0297V20.7395ZM24.4438 23.4255C24.4438 21.9448 25.649 20.7395 27.1298 20.7395V20.0297C25.257 20.0297 23.734 21.5528 23.734 23.4255H24.4438ZM24.4438 33.2269V23.4255H23.734V33.2269H24.4438ZM23.6627 36.744C24.178 35.6431 24.4447 34.4422 24.4438 33.2266L23.734 33.2272C23.7348 34.3386 23.491 35.4365 23.0199 36.4432L23.6627 36.744ZM32 40.0883C28.6744 40.0883 25.6789 38.6474 23.6044 36.3554L23.0782 36.8318C25.2811 39.2655 28.4649 40.7981 32 40.7981V40.0883ZM40.3956 36.3554C38.3211 38.6474 35.3256 40.0883 32 40.0883V40.7981C35.5351 40.7981 38.7189 39.2655 40.9218 36.8318L40.3956 36.3554ZM39.5562 33.2266C39.5553 34.4422 39.822 35.6431 40.3373 36.744L40.9802 36.4432C40.509 35.4365 40.2652 34.3386 40.266 33.2272L39.5562 33.2266ZM39.5562 23.4255V33.2269H40.266V23.4255H39.5562ZM36.8702 20.7395C38.3509 20.7395 39.5562 21.9447 39.5562 23.4255H40.266C40.266 21.5527 38.7429 20.0297 36.8702 20.0297V20.7395ZM34.7198 21.8159C35.2346 21.1307 36.0169 20.7395 36.8702 20.7395V20.0297C35.7929 20.0297 34.8007 20.5266 34.1523 21.3896L34.7198 21.8159ZM33.5201 22.816C33.9922 22.5802 34.4029 22.2378 34.7198 21.8159L34.1523 21.3896C33.9015 21.7235 33.5765 21.9944 33.203 22.181L33.5201 22.816ZM32 23.1745C32.5277 23.1745 33.0481 23.0518 33.5201 22.816L33.203 22.181C32.8294 22.3676 32.4176 22.4647 32 22.4647V23.1745ZM30.4799 22.816C30.9519 23.0518 31.4724 23.1745 32 23.1745V22.4647C31.5825 22.4647 31.1706 22.3676 30.7971 22.181L30.4799 22.816ZM29.2802 21.8159C29.5971 22.2378 30.0078 22.5802 30.4799 22.816L30.7971 22.181C30.4235 21.9944 30.0985 21.7235 29.8477 21.3896L29.2802 21.8159ZM44.1875 42.192H41.7713V42.9018H44.1875V42.192ZM54.1908 52.1953C54.1908 46.6792 49.7037 42.192 44.1875 42.192V42.9018C49.3116 42.9018 53.481 47.0712 53.481 52.1953H54.1908ZM54.1908 57.4766V52.1953H53.481V57.4766H54.1908ZM52.3125 59.3549C53.3498 59.3549 54.1908 58.5139 54.1908 57.4766H53.481C53.481 58.1219 52.9578 58.6451 52.3125 58.6451V59.3549ZM39.3525 59.3549H52.3125V58.6451H39.3525V59.3549ZM37.43 50.869L39.004 59.0669L39.701 58.9331L38.127 50.7352L37.43 50.869ZM44.5485 48.2287L37.6688 50.4646L37.8882 51.1396L44.7679 48.9037L44.5485 48.2287ZM45.0456 47.9105C44.9099 48.0573 44.7387 48.1669 44.5486 48.2287L44.7679 48.9037C45.0736 48.8044 45.3486 48.6283 45.5668 48.3923L45.0456 47.9105ZM45.3238 47.3901C45.2771 47.5845 45.1813 47.7637 45.0456 47.9105L45.5668 48.3923C45.785 48.1563 45.9389 47.8683 46.0139 47.5558L45.3238 47.3901ZM45.3121 46.8001C45.3664 46.9925 45.3704 47.1956 45.3237 47.3901L46.0139 47.5558C46.089 47.2432 46.0825 46.9167 45.9953 46.6074L45.3121 46.8001ZM45.0137 46.291C45.1551 46.4324 45.2579 46.6076 45.3121 46.8001L45.9953 46.6074C45.908 46.2981 45.7429 46.0163 45.5156 45.7891L45.0137 46.291ZM41.5204 42.7978L45.0137 46.291L45.5156 45.7891L42.0223 42.2959L41.5204 42.7978ZM33.1685 52.185V59H33.8783V52.185H33.1685ZM34.7487 51.4136L33.4137 51.8474L33.6331 52.5225L34.9681 52.0886L34.7487 51.4136ZM36.5985 58.9331L35.2069 51.6842L34.5098 51.818L35.9015 59.0669L36.5985 58.9331ZM33.5234 59.3549H36.25V58.6451H33.5234V59.3549ZM27.75 59.3549H30.4766V58.6451H27.75V59.3549ZM28.7931 51.6842L27.4015 58.9331L28.0985 59.0669L29.4902 51.818L28.7931 51.6842ZM30.5863 51.8474L29.2513 51.4136L29.0319 52.0886L30.3669 52.5225L30.5863 51.8474ZM30.8315 59V52.185H30.1217V59H30.8315ZM32 43.1352C31.0071 43.1352 30.0242 43.0308 29.0654 42.8294L28.9195 43.5241C29.9255 43.7353 30.9573 43.845 32 43.845V43.1352ZM34.9345 42.8294C33.9695 43.0324 32.986 43.1349 31.9999 43.1352L32.0001 43.845C33.0353 43.8446 34.0676 43.737 35.0806 43.524L34.9345 42.8294ZM32.3035 48.323L35.3111 43.3606L34.7041 42.9927L31.6965 47.9551L32.3035 48.323ZM28.6889 43.3607L31.6965 48.323L32.3035 47.9551L29.2959 42.9928L28.6889 43.3607ZM18.6762 47.3899C18.6295 47.1955 18.6335 46.9924 18.6878 46.7999L18.0047 46.6073C17.9174 46.9166 17.911 47.2431 17.986 47.5556L18.6762 47.3899ZM18.9543 47.9104C18.8186 47.7636 18.7229 47.5844 18.6762 47.3899L17.986 47.5556C18.061 47.8681 18.215 48.1561 18.4331 48.3922L18.9543 47.9104ZM19.4513 48.2286C19.2612 48.1668 19.0901 48.0572 18.9544 47.9104L18.4331 48.3922C18.6513 48.6282 18.9263 48.8043 19.232 48.9036L19.4513 48.2286ZM26.3311 50.4645L19.4513 48.2286L19.232 48.9036L26.1117 51.1395L26.3311 50.4645ZM24.996 59.0669L26.5699 50.8689L25.8729 50.7351L24.299 58.9331L24.996 59.0669ZM11.6875 59.3549H24.6475V58.6451H11.6875V59.3549ZM9.80917 57.4766C9.80917 58.5139 10.6502 59.3549 11.6875 59.3549V58.6451C11.0422 58.6451 10.519 58.1219 10.519 57.4766H9.80917ZM9.80917 52.1953V57.4766H10.519V52.1953H9.80917ZM19.8125 42.192C14.2963 42.192 9.80917 46.6792 9.80917 52.1953H10.519C10.519 47.0712 14.6884 42.9018 19.8125 42.9018V42.192ZM22.2287 42.192H19.8125V42.9018H22.2287V42.192ZM18.9862 46.2909L22.4796 42.7978L21.9777 42.2959L18.4843 45.789L18.9862 46.2909ZM18.6878 46.7999C18.7421 46.6075 18.8448 46.4322 18.9862 46.2909L18.4843 45.789C18.257 46.0162 18.0919 46.298 18.0047 46.6073L18.6878 46.7999Z" fill="url(#paint1_radial_165_97)" style="mix-blend-mode:plus-lighter"/>
</g>
<defs>
<filter id="filter0_di_165_97" x="0.112907" y="0.181025" width="63.7742" height="72.1021" filterUnits="userSpaceOnUse" color-interpolation-filters="sRGB">
<feFlood flood-opacity="0" result="BackgroundImageFix"/>
<feColorMatrix in="SourceAlpha" type="matrix" values="0 0 0 0 0 0 0 0 0 0 0 0 0 0 0 0 0 0 127 0" result="hardAlpha"/>
<feOffset dy="3.23206"/>
<feGaussianBlur stdDeviation="4.84809"/>
<feComposite in2="hardAlpha" operator="out"/>
<feColorMatrix type="matrix" values="0 0 0 0 1 0 0 0 0 1 0 0 0 0 1 0 0 0 0.2 0"/>
<feBlend mode="normal" in2="BackgroundImageFix" result="effect1_dropShadow_165_97"/>
<feBlend mode="normal" in="SourceGraphic" in2="effect1_dropShadow_165_97" result="shape"/>
<feColorMatrix in="SourceAlpha" type="matrix" values="0 0 0 0 0 0 0 0 0 0 0 0 0 0 0 0 0 0 127 0" result="hardAlpha"/>
<feOffset/>
<feGaussianBlur stdDeviation="1.34071"/>
<feComposite in2="hardAlpha" operator="arithmetic" k2="-1" k3="1"/>
<feColorMatrix type="matrix" values="0 0 0 0 1 0 0 0 0 1 0 0 0 0 1 0 0 0 1 0"/>
<feBlend mode="normal" in2="shape" result="effect2_innerShadow_165_97"/>
</filter>
<linearGradient id="paint0_linear_165_97" x1="26.3132" y1="16.8332" x2="47.3883" y2="55.662" gradientUnits="userSpaceOnUse">
<stop stop-color="white"/>
<stop offset="0.770693" stop-color="#848484"/>
</linearGradient>
<radialGradient id="paint1_radial_165_97" cx="0" cy="0" r="1" gradientUnits="userSpaceOnUse" gradientTransform="translate(32 7) rotate(90) scale(68.7402 57.731)">
<stop stop-color="#D3D3D3"/>
<stop offset="0.82495" stop-color="white" stop-opacity="0"/>
</radialGradient>
</defs>
</svg>
