<svg width="74" height="77" viewBox="0 0 74 77" fill="none" xmlns="http://www.w3.org/2000/svg">
<g filter="url(#filter0_di_203_23)">
<path fill-rule="evenodd" clip-rule="evenodd" d="M11 62V33H63V62C63 62.2652 62.8946 62.5196 62.7071 62.7071C62.5196 62.8947 62.2652 63 62 63H12C11.7348 63 11.4804 62.8947 11.2929 62.7071C11.1054 62.5196 11 62.2652 11 62ZM37.707 57.217L46.192 48.732C47.3021 47.6037 47.9213 46.0825 47.9149 44.4996C47.9085 42.9168 47.2768 41.4007 46.1576 40.2814C45.0384 39.1622 43.5222 38.5306 41.9394 38.5241C40.3566 38.5177 38.8353 39.1369 37.707 40.247L37 40.954L36.293 40.247C35.1647 39.1369 33.6434 38.5177 32.0606 38.5241C30.4778 38.5306 28.9616 39.1622 27.8424 40.2814C26.7232 41.4007 26.0915 42.9168 26.0851 44.4996C26.0787 46.0825 26.6979 47.6037 27.808 48.732L36.293 57.217C36.4805 57.4045 36.7348 57.5098 37 57.5098C37.2652 57.5098 37.5195 57.4045 37.707 57.217ZM46.5378 19.9855C45.9063 21.99 44.6594 23.7445 42.974 25H31.026C29.3406 23.7445 28.0937 21.99 27.4622 19.9855C26.8306 17.981 26.8467 15.8285 27.508 13.8337C28.1694 11.8389 29.4424 10.1031 31.1463 8.87292C32.8502 7.64271 34.8984 6.98059 37 6.98059C39.1016 6.98059 41.1498 7.64271 42.8537 8.87292C44.5576 10.1031 45.8306 11.8389 46.492 13.8337C47.1533 15.8285 47.1694 17.981 46.5378 19.9855ZM35.0678 17.2975C35.6087 17.7525 36.2932 18.0014 37 18C37.1978 18 37.3911 18.0587 37.5556 18.1686C37.72 18.2784 37.8482 18.4346 37.9239 18.6173C37.9996 18.8001 38.0194 19.0011 37.9808 19.1951C37.9422 19.3891 37.847 19.5673 37.7071 19.7071C37.5673 19.847 37.3891 19.9422 37.1951 19.9808C37.0011 20.0194 36.8 19.9996 36.6173 19.9239C36.4346 19.8482 36.2784 19.72 36.1685 19.5556C36.0586 19.3911 36 19.1978 36 19C36 18.7348 35.8946 18.4805 35.7071 18.2929C35.5196 18.1054 35.2652 18 35 18C34.7348 18 34.4804 18.1054 34.2929 18.2929C34.1054 18.4805 34 18.7348 34 19C34.0018 19.6185 34.1951 20.2212 34.5532 20.7254C34.9113 21.2296 35.4167 21.6106 36 21.816V22C36 22.2652 36.1054 22.5196 36.2929 22.7071C36.4804 22.8947 36.7348 23 37 23C37.2652 23 37.5196 22.8947 37.7071 22.7071C37.8946 22.5196 38 22.2652 38 22V21.816C38.6667 21.5812 39.2287 21.118 39.5866 20.5085C39.9445 19.899 40.0752 19.1825 39.9554 18.4858C39.8356 17.7892 39.4732 17.1575 38.9322 16.7025C38.3913 16.2475 37.7068 15.9987 37 16C36.8022 16 36.6089 15.9414 36.4444 15.8315C36.28 15.7216 36.1518 15.5654 36.0761 15.3827C36.0004 15.2 35.9806 14.9989 36.0192 14.8049C36.0578 14.611 36.153 14.4328 36.2929 14.2929C36.4327 14.1531 36.6109 14.0578 36.8049 14.0192C36.9989 13.9807 37.2 14.0005 37.3827 14.0761C37.5654 14.1518 37.7216 14.28 37.8315 14.4445C37.9414 14.6089 38 14.8022 38 15C38 15.2652 38.1054 15.5196 38.2929 15.7071C38.4804 15.8947 38.7348 16 39 16C39.2652 16 39.5196 15.8947 39.7071 15.7071C39.8946 15.5196 40 15.2652 40 15C39.9982 14.3816 39.8049 13.7789 39.4468 13.2747C39.0887 12.7705 38.5833 12.3895 38 12.184V12C38 11.7348 37.8946 11.4805 37.7071 11.2929C37.5196 11.1054 37.2652 11 37 11C36.7348 11 36.4804 11.1054 36.2929 11.2929C36.1054 11.4805 36 11.7348 36 12V12.184C35.3333 12.4188 34.7713 12.882 34.4134 13.4916C34.0555 14.1011 33.9248 14.8176 34.0446 15.5142C34.1644 16.2108 34.5268 16.8425 35.0678 17.2975ZM37.7071 43.075L39.1211 41.661C39.8713 40.9108 40.8887 40.4894 41.9496 40.4894C43.0105 40.4894 44.0279 40.9108 44.7781 41.661C45.5283 42.4112 45.9497 43.4286 45.9497 44.4895C45.9497 45.5504 45.5283 46.5678 44.7781 47.318L37.0001 55.096L29.2221 47.318C28.4719 46.5678 28.0505 45.5504 28.0505 44.4895C28.0505 43.4286 28.4719 42.4112 29.2221 41.661C29.9723 40.9108 30.9897 40.4894 32.0506 40.4894C33.1115 40.4894 34.1289 40.9108 34.8791 41.661L36.2931 43.075C36.4806 43.2625 36.7349 43.3678 37.0001 43.3678C37.2653 43.3678 37.5196 43.2625 37.7071 43.075ZM56.8941 19.553L62.6181 31H11.3811L17.1061 19.553C17.1891 19.3869 17.3167 19.2472 17.4746 19.1496C17.6325 19.0519 17.8144 19.0001 18.0001 19H25.1771C25.5582 21.2344 26.5651 23.3149 28.0811 25H24.0001C23.7349 25 23.4805 25.1054 23.293 25.2929C23.1055 25.4804 23.0001 25.7348 23.0001 26C23.0001 26.2652 23.1055 26.5196 23.293 26.7071C23.4805 26.8946 23.7349 27 24.0001 27H50.0001C50.2653 27 50.5197 26.8946 50.7072 26.7071C50.8947 26.5196 51.0001 26.2652 51.0001 26C51.0001 25.7348 50.8947 25.4804 50.7072 25.2929C50.5197 25.1054 50.2653 25 50.0001 25H45.9191C47.4351 23.3149 48.4421 21.2344 48.8231 19H56.0001C56.1858 19.0001 56.3677 19.0519 56.5256 19.1496C56.6835 19.2472 56.8111 19.3869 56.8941 19.553Z" fill="url(#paint0_linear_203_23)" shape-rendering="crispEdges"/>
<path d="M11 33V32.6451C10.804 32.6451 10.6451 32.804 10.6451 33H11ZM63 33H63.3549C63.3549 32.804 63.196 32.6451 63 32.6451V33ZM11.2929 62.7071L11.5438 62.4562L11.2929 62.7071ZM46.192 48.732L46.443 48.983L46.445 48.9809L46.192 48.732ZM37.707 57.217L37.9579 57.468L37.9579 57.468L37.707 57.217ZM37.707 40.247L37.4581 39.994L37.4561 39.9961L37.707 40.247ZM37 40.954L36.7491 41.205C36.8876 41.3436 37.1124 41.3436 37.2509 41.205L37 40.954ZM36.293 40.247L36.544 39.9961L36.5419 39.994L36.293 40.247ZM27.8424 40.2814L27.5915 40.0305L27.8424 40.2814ZM27.808 48.732L27.555 48.9809L27.5571 48.983L27.808 48.732ZM36.293 57.217L36.0421 57.468L36.0421 57.468L36.293 57.217ZM42.974 25V25.3549C43.0504 25.3549 43.1247 25.3303 43.186 25.2846L42.974 25ZM31.026 25L30.814 25.2846C30.8752 25.3303 30.9496 25.3549 31.026 25.3549V25ZM37 18V17.6451L36.9993 17.6451L37 18ZM34 19H33.6451L33.6451 19.0011L34 19ZM36 21.816H36.3549C36.3549 21.6655 36.2599 21.5313 36.1179 21.4813L36 21.816ZM38 21.816L37.8821 21.4813C37.7401 21.5313 37.6451 21.6655 37.6451 21.816H38ZM37 16V16.3549L37.0007 16.3549L37 16ZM40 15H40.3549L40.3549 14.999L40 15ZM38 12.184H37.6451C37.6451 12.3346 37.7401 12.4687 37.8821 12.5188L38 12.184ZM36 12.184L36.1179 12.5188C36.2599 12.4687 36.3549 12.3346 36.3549 12.184H36ZM39.1211 41.661L38.8702 41.41L39.1211 41.661ZM37.7071 43.075L37.958 43.326L37.9581 43.326L37.7071 43.075ZM37.0001 55.096L36.7492 55.347C36.8877 55.4855 37.1125 55.4855 37.2511 55.347L37.0001 55.096ZM34.8791 41.661L35.1301 41.41L34.8791 41.661ZM36.2931 43.075L36.0422 43.326L36.0422 43.326L36.2931 43.075ZM62.6181 31V31.3549C62.7411 31.3549 62.8553 31.2912 62.92 31.1866C62.9847 31.0819 62.9905 30.9513 62.9355 30.8413L62.6181 31ZM56.8941 19.553L56.5766 19.7116L56.5767 19.7117L56.8941 19.553ZM11.3811 31L11.0637 30.8413C11.0087 30.9513 11.0145 31.0819 11.0792 31.1866C11.1439 31.2912 11.2581 31.3549 11.3811 31.3549V31ZM17.1061 19.553L17.4235 19.7117L17.4236 19.7116L17.1061 19.553ZM18.0001 19V18.6451H17.9999L18.0001 19ZM25.1771 19L25.5269 18.9403C25.4979 18.7698 25.3501 18.6451 25.1771 18.6451V19ZM28.0811 25V25.3549C28.2212 25.3549 28.3483 25.2724 28.4053 25.1444C28.4623 25.0164 28.4387 24.8668 28.3449 24.7626L28.0811 25ZM45.9191 25L45.6553 24.7626C45.5615 24.8668 45.5379 25.0164 45.5949 25.1444C45.6519 25.2724 45.779 25.3549 45.9191 25.3549V25ZM48.8231 19V18.6451C48.6501 18.6451 48.5023 18.7698 48.4733 18.9403L48.8231 19ZM56.0001 19L56.0003 18.6451H56.0001V19ZM10.6451 33V62H11.3549V33H10.6451ZM63 32.6451H11V33.3549H63V32.6451ZM63.3549 62V33H62.6451V62H63.3549ZM62.9581 62.9581C63.2122 62.704 63.3549 62.3594 63.3549 62H62.6451C62.6451 62.1711 62.5771 62.3352 62.4562 62.4562L62.9581 62.9581ZM62 63.3549C62.3593 63.3549 62.704 63.2122 62.9581 62.9581L62.4562 62.4562C62.3352 62.5772 62.1711 62.6451 62 62.6451V63.3549ZM12 63.3549H62V62.6451H12V63.3549ZM11.0419 62.9581C11.296 63.2122 11.6407 63.3549 12 63.3549V62.6451C11.8289 62.6451 11.6648 62.5772 11.5438 62.4562L11.0419 62.9581ZM10.6451 62C10.6451 62.3594 10.7879 62.704 11.0419 62.9581L11.5438 62.4562C11.4229 62.3352 11.3549 62.1711 11.3549 62H10.6451ZM45.9411 48.4811L37.4561 56.9661L37.9579 57.468L46.443 48.983L45.9411 48.4811ZM47.56 44.5011C47.5661 45.9903 46.9834 47.4216 45.939 48.4831L46.445 48.9809C47.6207 47.7859 48.2766 46.1746 48.2698 44.4982L47.56 44.5011ZM45.9066 40.5324C46.9597 41.5854 47.5539 43.0119 47.56 44.5011L48.2698 44.4982C48.263 42.8218 47.594 41.2159 46.4085 40.0305L45.9066 40.5324ZM41.9379 38.879C43.4271 38.8851 44.8536 39.4794 45.9066 40.5324L46.4085 40.0305C45.2231 38.8451 43.6173 38.1761 41.9408 38.1692L41.9379 38.879ZM37.9559 40.5C39.0175 39.4556 40.4487 38.873 41.9379 38.879L41.9408 38.1692C40.2644 38.1624 38.6532 38.8183 37.4581 39.994L37.9559 40.5ZM37.2509 41.205L37.9579 40.498L37.4561 39.9961L36.7491 40.7031L37.2509 41.205ZM36.0421 40.498L36.7491 41.205L37.2509 40.7031L36.5439 39.9961L36.0421 40.498ZM32.0621 38.879C33.5513 38.873 34.9825 39.4556 36.0441 40.5L36.5419 39.994C35.3468 38.8183 33.7356 38.1624 32.0592 38.1692L32.0621 38.879ZM28.0934 40.5324C29.1464 39.4794 30.5729 38.8851 32.0621 38.879L32.0592 38.1692C30.3827 38.1761 28.7769 38.8451 27.5915 40.0305L28.0934 40.5324ZM26.44 44.5011C26.4461 43.0119 27.0403 41.5854 28.0934 40.5324L27.5915 40.0305C26.406 41.2159 25.737 42.8218 25.7302 44.4982L26.44 44.5011ZM28.061 48.4831C27.0166 47.4216 26.4339 45.9903 26.44 44.5011L25.7302 44.4982C25.7234 46.1746 26.3793 47.7859 27.555 48.9809L28.061 48.4831ZM36.5439 56.9661L28.0589 48.4811L27.5571 48.983L36.0421 57.468L36.5439 56.9661ZM37 57.1549C36.8289 57.1549 36.6649 57.087 36.5439 56.966L36.0421 57.468C36.2962 57.722 36.6407 57.8647 37 57.8647V57.1549ZM37.4561 56.966C37.3351 57.087 37.1711 57.1549 37 57.1549V57.8647C37.3593 57.8647 37.7038 57.722 37.9579 57.468L37.4561 56.966ZM43.186 25.2846C44.9312 23.9846 46.2224 22.1677 46.8763 20.0921L46.1994 19.8789C45.5903 21.8122 44.3875 23.5045 42.762 24.7154L43.186 25.2846ZM31.026 25.3549H42.974V24.6451H31.026V25.3549ZM27.1237 20.0921C27.7776 22.1677 29.0688 23.9846 30.814 25.2846L31.238 24.7154C29.6125 23.5045 28.4097 21.8122 27.8006 19.8789L27.1237 20.0921ZM27.1712 13.722C26.4864 15.7877 26.4697 18.0165 27.1237 20.0921L27.8006 19.8789C27.1915 17.9455 27.207 15.8694 27.8449 13.9454L27.1712 13.722ZM30.9386 8.58518C29.1742 9.85905 27.856 11.6564 27.1712 13.722L27.8449 13.9454C28.4828 12.0214 29.7106 10.3472 31.3541 9.16065L30.9386 8.58518ZM37 6.6257C34.8238 6.6257 32.7029 7.31131 30.9386 8.58518L31.3541 9.16065C32.9975 7.9741 34.973 7.33549 37 7.33549V6.6257ZM43.0614 8.58518C41.2971 7.31131 39.1762 6.6257 37 6.6257V7.33549C39.027 7.33549 41.0025 7.9741 42.6459 9.16065L43.0614 8.58518ZM46.8288 13.722C46.144 11.6564 44.8258 9.85905 43.0614 8.58518L42.6459 9.16065C44.2894 10.3472 45.5172 12.0214 46.1551 13.9454L46.8288 13.722ZM46.8763 20.0921C47.5303 18.0165 47.5136 15.7877 46.8288 13.722L46.1551 13.9454C46.793 15.8694 46.8085 17.9455 46.1994 19.8789L46.8763 20.0921ZM36.9993 17.6451C36.3763 17.6463 35.773 17.427 35.2962 17.0259L34.8393 17.5691C35.4444 18.0781 36.21 18.3564 37.0007 18.3549L36.9993 17.6451ZM37.7527 17.8735C37.5299 17.7246 37.268 17.6451 37 17.6451V18.3549C37.1276 18.3549 37.2523 18.3928 37.3584 18.4636L37.7527 17.8735ZM38.2518 18.4815C38.1492 18.234 37.9755 18.0223 37.7527 17.8735L37.3584 18.4636C37.4645 18.5345 37.5472 18.6353 37.596 18.7532L38.2518 18.4815ZM38.3289 19.2644C38.3811 19.0015 38.3543 18.7291 38.2518 18.4815L37.596 18.7532C37.6448 18.871 37.6576 19.0007 37.6327 19.1259L38.3289 19.2644ZM37.9581 19.9581C38.1475 19.7686 38.2766 19.5272 38.3289 19.2644L37.6327 19.1259C37.6078 19.251 37.5464 19.366 37.4562 19.4562L37.9581 19.9581ZM37.2643 20.3289C37.5272 20.2766 37.7686 20.1476 37.9581 19.9581L37.4562 19.4562C37.3659 19.5464 37.251 19.6078 37.1259 19.6327L37.2643 20.3289ZM36.4815 20.2518C36.7291 20.3543 37.0015 20.3812 37.2643 20.3289L37.1259 19.6327C37.0007 19.6576 36.871 19.6449 36.7531 19.596L36.4815 20.2518ZM35.8734 19.7528C36.0223 19.9756 36.2339 20.1492 36.4815 20.2518L36.7531 19.596C36.6353 19.5472 36.5345 19.4645 36.4636 19.3584L35.8734 19.7528ZM35.6451 19C35.6451 19.268 35.7246 19.53 35.8734 19.7528L36.4636 19.3584C36.3927 19.2523 36.3549 19.1276 36.3549 19H35.6451ZM35.4562 18.5439C35.5771 18.6648 35.6451 18.8289 35.6451 19H36.3549C36.3549 18.6407 36.2121 18.2961 35.9581 18.042L35.4562 18.5439ZM35 18.3549C35.1711 18.3549 35.3352 18.4229 35.4562 18.5439L35.9581 18.042C35.704 17.7879 35.3593 17.6451 35 17.6451V18.3549ZM34.5438 18.5439C34.6648 18.4229 34.8289 18.3549 35 18.3549V17.6451C34.6407 17.6451 34.296 17.7879 34.0419 18.042L34.5438 18.5439ZM34.3549 19C34.3549 18.8289 34.4229 18.6648 34.5438 18.5439L34.0419 18.042C33.7879 18.2961 33.6451 18.6407 33.6451 19H34.3549ZM34.8425 20.5199C34.5269 20.0754 34.3565 19.5441 34.3549 18.999L33.6451 19.0011C33.6472 19.6928 33.8633 20.3669 34.2638 20.9309L34.8425 20.5199ZM36.1179 21.4813C35.6037 21.3002 35.1582 20.9643 34.8425 20.5199L34.2638 20.9309C34.6644 21.4948 35.2297 21.921 35.8821 22.1508L36.1179 21.4813ZM36.3549 22V21.816H35.6451V22H36.3549ZM36.5438 22.4562C36.4229 22.3352 36.3549 22.1711 36.3549 22H35.6451C35.6451 22.3594 35.7879 22.704 36.0419 22.9581L36.5438 22.4562ZM37 22.6451C36.8289 22.6451 36.6648 22.5772 36.5438 22.4562L36.0419 22.9581C36.296 23.2122 36.6407 23.3549 37 23.3549V22.6451ZM37.4562 22.4562C37.3352 22.5772 37.1711 22.6451 37 22.6451V23.3549C37.3593 23.3549 37.704 23.2122 37.9581 22.9581L37.4562 22.4562ZM37.6451 22C37.6451 22.1711 37.5771 22.3352 37.4562 22.4562L37.9581 22.9581C38.2121 22.704 38.3549 22.3594 38.3549 22H37.6451ZM37.6451 21.816V22H38.3549V21.816H37.6451ZM39.2806 20.3288C38.9651 20.866 38.4697 21.2743 37.8821 21.4813L38.1179 22.1508C38.8636 21.8881 39.4923 21.37 39.8927 20.6882L39.2806 20.3288ZM39.6056 18.546C39.7112 19.16 39.5961 19.7915 39.2806 20.3288L39.8927 20.6882C40.293 20.0064 40.4391 19.2049 40.3051 18.4257L39.6056 18.546ZM38.7038 16.9741C39.1806 17.3751 39.5001 17.932 39.6056 18.546L40.3051 18.4257C40.1712 17.6465 39.7658 16.9399 39.1607 16.4309L38.7038 16.9741ZM37.0007 16.3549C37.6237 16.3537 38.227 16.5731 38.7038 16.9741L39.1607 16.4309C38.5556 15.922 37.79 15.6436 36.9993 15.6451L37.0007 16.3549ZM36.2473 16.1266C36.4701 16.2755 36.732 16.3549 37 16.3549V15.6451C36.8724 15.6451 36.7477 15.6073 36.6416 15.5364L36.2473 16.1266ZM35.7482 15.5185C35.8508 15.7661 36.0244 15.9777 36.2473 16.1266L36.6416 15.5364C36.5355 15.4655 36.4528 15.3648 36.404 15.2469L35.7482 15.5185ZM35.6711 14.7357C35.6189 14.9985 35.6457 15.2709 35.7482 15.5185L36.404 15.2469C36.3552 15.129 36.3424 14.9993 36.3673 14.8742L35.6711 14.7357ZM36.0419 14.042C35.8525 14.2315 35.7234 14.4729 35.6711 14.7357L36.3673 14.8742C36.3922 14.749 36.4536 14.6341 36.5438 14.5439L36.0419 14.042ZM36.7357 13.6712C36.4728 13.7234 36.2314 13.8525 36.0419 14.042L36.5438 14.5439C36.6341 14.4536 36.749 14.3922 36.8741 14.3673L36.7357 13.6712ZM37.5185 13.7483C37.2709 13.6457 36.9985 13.6189 36.7357 13.6712L36.8741 14.3673C36.9993 14.3424 37.129 14.3552 37.2469 14.404L37.5185 13.7483ZM38.1266 14.2473C37.9777 14.0245 37.7661 13.8508 37.5185 13.7483L37.2469 14.404C37.3647 14.4529 37.4655 14.5355 37.5364 14.6416L38.1266 14.2473ZM38.3549 15C38.3549 14.7321 38.2754 14.4701 38.1266 14.2473L37.5364 14.6416C37.6073 14.7477 37.6451 14.8724 37.6451 15H38.3549ZM38.5438 15.4562C38.4229 15.3352 38.3549 15.1711 38.3549 15H37.6451C37.6451 15.3594 37.7879 15.704 38.0419 15.9581L38.5438 15.4562ZM39 15.6451C38.8289 15.6451 38.6648 15.5772 38.5438 15.4562L38.0419 15.9581C38.296 16.2122 38.6407 16.3549 39 16.3549V15.6451ZM39.4562 15.4562C39.3352 15.5772 39.1711 15.6451 39 15.6451V16.3549C39.3593 16.3549 39.704 16.2122 39.9581 15.9581L39.4562 15.4562ZM39.6451 15C39.6451 15.1711 39.5771 15.3352 39.4562 15.4562L39.9581 15.9581C40.2121 15.704 40.3549 15.3594 40.3549 15H39.6451ZM39.1575 13.4802C39.4731 13.9246 39.6435 14.4559 39.6451 15.0011L40.3549 14.999C40.3528 14.3073 40.1367 13.6331 39.7362 13.0692L39.1575 13.4802ZM37.8821 12.5188C38.3963 12.6999 38.8418 13.0357 39.1575 13.4802L39.7362 13.0692C39.3356 12.5052 38.7703 12.0791 38.1179 11.8493L37.8821 12.5188ZM37.6451 12V12.184H38.3549V12H37.6451ZM37.4562 11.5439C37.5771 11.6648 37.6451 11.8289 37.6451 12H38.3549C38.3549 11.6407 38.2121 11.2961 37.9581 11.042L37.4562 11.5439ZM37 11.3549C37.1711 11.3549 37.3352 11.4229 37.4562 11.5439L37.9581 11.042C37.704 10.7879 37.3593 10.6451 37 10.6451V11.3549ZM36.5438 11.5439C36.6648 11.4229 36.8289 11.3549 37 11.3549V10.6451C36.6407 10.6451 36.296 10.7879 36.0419 11.042L36.5438 11.5439ZM36.3549 12C36.3549 11.8289 36.4229 11.6648 36.5438 11.5439L36.0419 11.042C35.7879 11.2961 35.6451 11.6407 35.6451 12H36.3549ZM36.3549 12.184V12H35.6451V12.184H36.3549ZM34.7194 13.6713C35.0349 13.134 35.5303 12.7257 36.1179 12.5188L35.8821 11.8493C35.1364 12.112 34.5077 12.6301 34.1073 13.3119L34.7194 13.6713ZM34.3944 15.4541C34.2888 14.8401 34.4039 14.2085 34.7194 13.6713L34.1073 13.3119C33.707 13.9937 33.5609 14.7951 33.6949 15.5743L34.3944 15.4541ZM35.2962 17.0259C34.8194 16.6249 34.4999 16.0681 34.3944 15.4541L33.6949 15.5743C33.8288 16.3535 34.2342 17.0602 34.8393 17.5691L35.2962 17.0259ZM38.8702 41.41L37.4562 42.8241L37.9581 43.326L39.372 41.9119L38.8702 41.41ZM41.9496 40.1345C40.7946 40.1345 39.6869 40.5933 38.8702 41.41L39.372 41.9119C40.0557 41.2283 40.9828 40.8443 41.9496 40.8443V40.1345ZM45.0291 41.41C44.2123 40.5933 43.1046 40.1345 41.9496 40.1345V40.8443C42.9164 40.8443 43.8435 41.2283 44.5272 41.9119L45.0291 41.41ZM46.3046 44.4895C46.3046 43.3345 45.8458 42.2268 45.0291 41.41L44.5272 41.9119C45.2108 42.5956 45.5948 43.5227 45.5948 44.4895H46.3046ZM45.0291 47.569C45.8458 46.7522 46.3046 45.6445 46.3046 44.4895H45.5948C45.5948 45.4563 45.2108 46.3834 44.5272 47.0671L45.0291 47.569ZM37.2511 55.347L45.0291 47.569L44.5272 47.0671L36.7492 54.8451L37.2511 55.347ZM28.9712 47.569L36.7492 55.347L37.2511 54.8451L29.4731 47.0671L28.9712 47.569ZM27.6956 44.4895C27.6956 45.6445 28.1544 46.7522 28.9712 47.569L29.4731 47.0671C28.7894 46.3834 28.4054 45.4563 28.4054 44.4895H27.6956ZM28.9712 41.41C28.1544 42.2268 27.6956 43.3345 27.6956 44.4895H28.4054C28.4054 43.5227 28.7894 42.5956 29.4731 41.9119L28.9712 41.41ZM32.0506 40.1345C30.8956 40.1345 29.7879 40.5933 28.9712 41.41L29.4731 41.9119C30.1567 41.2283 31.0838 40.8443 32.0506 40.8443V40.1345ZM35.1301 41.41C34.3133 40.5933 33.2056 40.1345 32.0506 40.1345V40.8443C33.0174 40.8443 33.9445 41.2283 34.6282 41.9119L35.1301 41.41ZM36.5441 42.8241L35.1301 41.41L34.6282 41.9119L36.0422 43.326L36.5441 42.8241ZM37.0001 43.0129C36.829 43.0129 36.665 42.945 36.544 42.824L36.0422 43.326C36.2963 43.58 36.6408 43.7227 37.0001 43.7227V43.0129ZM37.4562 42.824C37.3352 42.945 37.1712 43.0129 37.0001 43.0129V43.7227C37.3594 43.7227 37.7039 43.58 37.958 43.326L37.4562 42.824ZM62.9355 30.8413L57.2115 19.3943L56.5767 19.7117L62.3007 31.1587L62.9355 30.8413ZM11.3811 31.3549H62.6181V30.6451H11.3811V31.3549ZM16.7887 19.3943L11.0637 30.8413L11.6985 31.1587L17.4235 19.7117L16.7887 19.3943ZM17.2879 18.8477C17.0739 18.9801 16.9011 19.1693 16.7886 19.3944L17.4236 19.7116C17.4771 19.6045 17.5594 19.5144 17.6613 19.4514L17.2879 18.8477ZM17.9999 18.6451C17.7484 18.6452 17.5018 18.7154 17.2879 18.8477L17.6613 19.4514C17.7631 19.3884 17.8805 19.355 18.0003 19.3549L17.9999 18.6451ZM25.1771 18.6451H18.0001V19.3549H25.1771V18.6451ZM28.3449 24.7626C26.8739 23.1275 25.8967 21.1086 25.5269 18.9403L24.8273 19.0597C25.2196 21.3602 26.2564 23.5024 27.8173 25.2374L28.3449 24.7626ZM24.0001 25.3549H28.0811V24.6451H24.0001V25.3549ZM23.5439 25.5438C23.6649 25.4229 23.829 25.3549 24.0001 25.3549V24.6451C23.6408 24.6451 23.2961 24.7879 23.042 25.0419L23.5439 25.5438ZM23.355 26C23.355 25.8289 23.423 25.6648 23.5439 25.5438L23.042 25.0419C22.788 25.296 22.6452 25.6407 22.6452 26H23.355ZM23.5439 26.4562C23.423 26.3352 23.355 26.1711 23.355 26H22.6452C22.6452 26.3593 22.788 26.704 23.042 26.9581L23.5439 26.4562ZM24.0001 26.6451C23.829 26.6451 23.6649 26.5771 23.5439 26.4562L23.042 26.9581C23.2961 27.2121 23.6408 27.3549 24.0001 27.3549V26.6451ZM50.0001 26.6451H24.0001V27.3549H50.0001V26.6451ZM50.4563 26.4562C50.3353 26.5771 50.1712 26.6451 50.0001 26.6451V27.3549C50.3594 27.3549 50.7041 27.2121 50.9582 26.9581L50.4563 26.4562ZM50.6452 26C50.6452 26.1711 50.5772 26.3352 50.4563 26.4562L50.9582 26.9581C51.2123 26.704 51.355 26.3593 51.355 26H50.6452ZM50.4563 25.5438C50.5772 25.6648 50.6452 25.8289 50.6452 26H51.355C51.355 25.6407 51.2123 25.296 50.9582 25.0419L50.4563 25.5438ZM50.0001 25.3549C50.1712 25.3549 50.3353 25.4229 50.4563 25.5438L50.9582 25.0419C50.7041 24.7879 50.3594 24.6451 50.0001 24.6451V25.3549ZM45.9191 25.3549H50.0001V24.6451H45.9191V25.3549ZM48.4733 18.9403C48.1035 21.1086 47.1264 23.1275 45.6553 24.7626L46.1829 25.2374C47.7438 23.5024 48.7806 21.3602 49.1729 19.0597L48.4733 18.9403ZM56.0001 18.6451H48.8231V19.3549H56.0001V18.6451ZM56.7123 18.8477C56.4984 18.7154 56.2518 18.6452 56.0003 18.6451L55.9999 19.3549C56.1197 19.355 56.2371 19.3884 56.3389 19.4514L56.7123 18.8477ZM57.2116 19.3944C57.0991 19.1693 56.9263 18.9801 56.7123 18.8477L56.3389 19.4514C56.4408 19.5144 56.5231 19.6045 56.5766 19.7116L57.2116 19.3944Z" fill="url(#paint1_radial_203_23)" style="mix-blend-mode:plus-lighter"/>
</g>
<defs>
<filter id="filter0_di_203_23" x="0.948845" y="0.161616" width="72.1023" height="76.1216" filterUnits="userSpaceOnUse" color-interpolation-filters="sRGB">
<feFlood flood-opacity="0" result="BackgroundImageFix"/>
<feColorMatrix in="SourceAlpha" type="matrix" values="0 0 0 0 0 0 0 0 0 0 0 0 0 0 0 0 0 0 127 0" result="hardAlpha"/>
<feOffset dy="3.23206"/>
<feGaussianBlur stdDeviation="4.84809"/>
<feComposite in2="hardAlpha" operator="out"/>
<feColorMatrix type="matrix" values="0 0 0 0 1 0 0 0 0 1 0 0 0 0 1 0 0 0 0.2 0"/>
<feBlend mode="normal" in2="BackgroundImageFix" result="effect1_dropShadow_203_23"/>
<feBlend mode="normal" in="SourceGraphic" in2="effect1_dropShadow_203_23" result="shape"/>
<feColorMatrix in="SourceAlpha" type="matrix" values="0 0 0 0 0 0 0 0 0 0 0 0 0 0 0 0 0 0 127 0" result="hardAlpha"/>
<feOffset/>
<feGaussianBlur stdDeviation="1.34071"/>
<feComposite in2="hardAlpha" operator="arithmetic" k2="-1" k3="1"/>
<feColorMatrix type="matrix" values="0 0 0 0 1 0 0 0 0 1 0 0 0 0 1 0 0 0 1 0"/>
<feBlend mode="normal" in2="shape" result="effect2_innerShadow_203_23"/>
</filter>
<linearGradient id="paint0_linear_203_23" x1="30.2288" y1="17.5738" x2="51.655" y2="61.2051" gradientUnits="userSpaceOnUse">
<stop stop-color="white"/>
<stop offset="0.770693" stop-color="#848484"/>
</linearGradient>
<radialGradient id="paint1_radial_203_23" cx="0" cy="0" r="1" gradientUnits="userSpaceOnUse" gradientTransform="translate(37 6.98059) rotate(90) scale(74.0536 68.7402)">
<stop stop-color="#D3D3D3"/>
<stop offset="0.82495" stop-color="white" stop-opacity="0"/>
</radialGradient>
</defs>
</svg>
