<svg width="74" height="85" viewBox="0 0 74 85" fill="none" xmlns="http://www.w3.org/2000/svg">
<g filter="url(#filter0_di_165_88)">
<path fill-rule="evenodd" clip-rule="evenodd" d="M37.0001 20.6128C40.7592 20.6128 43.8065 17.5654 43.8065 13.8064C43.8065 10.0473 40.7592 7 37.0001 7C33.241 7 30.1937 10.0473 30.1937 13.8064C30.1937 17.5654 33.241 20.6128 37.0001 20.6128ZM22.5682 69.4546C22.7303 70.3592 23.5186 70.994 24.4066 70.993L49.5871 71C50.5643 71 51.367 70.2522 51.4541 69.2976C52.1416 65.5362 52.8995 61.7892 53.6574 58.0423L53.6579 58.04C54.0481 56.1108 54.4384 54.1815 54.819 52.2503H19.1775C19.57 54.2486 19.9732 56.2448 20.3764 58.2409L20.3765 58.2412L20.3765 58.2414C21.1306 61.9743 21.8847 65.7073 22.5682 69.4546ZM17.5 26.6429L21.165 24.19C22.0225 23.6156 22.2522 22.4547 21.6778 21.5972C21.1034 20.7397 19.9425 20.5102 19.085 21.0846L14.7139 24.01C14.139 24.3303 13.75 24.9441 13.75 25.649V31.25H17.5V26.6429ZM52.8352 24.19L56.5002 26.6429V31.25H60.2503V25.649C60.2503 24.9442 59.8613 24.3303 59.2864 24.01L54.9152 21.0845C54.0577 20.5101 52.8969 20.7396 52.3225 21.5971C51.7481 22.4547 51.9776 23.6156 52.8352 24.19ZM12.625 35.0002H61.3753C62.4108 35.0002 63.2503 35.8397 63.2503 36.8752V46.6252C63.2503 47.6608 62.4108 48.5003 61.3753 48.5003H12.625C11.5895 48.5003 10.75 47.6608 10.75 46.6252V36.8752C10.75 35.8397 11.5895 35.0002 12.625 35.0002ZM37 43.6252C37.99 43.6252 38.7988 42.8575 38.8683 41.8852L38.8692 41.873C38.8722 41.8323 38.8752 41.7917 38.875 41.7502C38.875 41.7087 38.8721 41.6678 38.8691 41.6269L38.8682 41.6142C38.8002 40.6693 38.0333 39.9201 37.081 39.8793C37.0707 39.8789 37.0604 39.8782 37.0501 39.8775C37.0335 39.8763 37.0169 39.8752 37 39.8752C36.9831 39.8752 36.9664 39.8763 36.9497 39.8775C36.9393 39.8782 36.9289 39.8789 36.9184 39.8793C35.9574 39.9208 35.1856 40.6841 35.1305 41.6415C35.1299 41.6512 35.1293 41.6609 35.1286 41.6707C35.1268 41.697 35.125 41.7234 35.125 41.7502C35.125 41.7767 35.1268 41.8028 35.1286 41.829C35.1293 41.8387 35.1299 41.8484 35.1305 41.8582C35.1868 42.8432 36.001 43.6252 37 43.6252ZM50.1149 25.3559C50.8485 25.6104 51.3752 26.3075 51.3752 27.1278V31.25H22.6251L22.6337 27.1278C22.6339 26.3914 23.0728 25.6939 23.797 25.3992C27.4722 23.9002 31.2192 22.7441 35.1251 22.4527V25.8182C35.1251 26.8538 35.9646 27.6933 37.0002 27.6933C38.0357 27.6933 38.8752 26.8538 38.8752 25.8182V22.4541C40.4885 22.5755 42.0929 22.8467 43.6907 23.2354C45.8622 23.7635 47.9985 24.4961 50.1149 25.3559Z" fill="url(#paint0_linear_165_88)" shape-rendering="crispEdges"/>
<path d="M24.4066 70.993L24.4067 70.6381L24.4062 70.6381L24.4066 70.993ZM22.5682 69.4546L22.9175 69.392L22.9173 69.3909L22.5682 69.4546ZM49.5871 71L49.587 71.3549H49.5871V71ZM51.4541 69.2976L51.105 69.2338C51.1031 69.2442 51.1016 69.2548 51.1007 69.2654L51.4541 69.2976ZM53.6574 58.0423L54.0053 58.1126L54.0053 58.1125L53.6574 58.0423ZM53.6579 58.04L53.31 57.9697L53.31 57.9697L53.6579 58.04ZM54.819 52.2503L55.1672 52.3189C55.1877 52.2147 55.1605 52.1069 55.0931 52.0249C55.0257 51.9429 54.9251 51.8954 54.819 51.8954V52.2503ZM19.1775 52.2503V51.8954C19.0714 51.8954 18.9709 51.9428 18.9035 52.0248C18.8361 52.1067 18.8088 52.2145 18.8293 52.3187L19.1775 52.2503ZM20.3764 58.2409L20.7243 58.1707L20.7243 58.1706L20.3764 58.2409ZM20.3765 58.2412L20.7247 58.1728L20.7244 58.1709L20.3765 58.2412ZM20.3765 58.2414L20.0283 58.3098L20.0287 58.3116L20.3765 58.2414ZM21.165 24.19L21.3624 24.4849L21.3625 24.4848L21.165 24.19ZM17.5 26.6429L17.3026 26.3479C17.2042 26.4138 17.1451 26.5244 17.1451 26.6429H17.5ZM21.6778 21.5972L21.9727 21.3997V21.3997L21.6778 21.5972ZM19.085 21.0846L19.2824 21.3795L19.2825 21.3794L19.085 21.0846ZM14.7139 24.01L14.8866 24.32C14.8951 24.3153 14.9033 24.3103 14.9113 24.3049L14.7139 24.01ZM13.75 31.25H13.3951C13.3951 31.446 13.554 31.6049 13.75 31.6049V31.25ZM17.5 31.25V31.6049C17.696 31.6049 17.8549 31.446 17.8549 31.25H17.5ZM56.5002 26.6429H56.8551C56.8551 26.5244 56.7961 26.4138 56.6976 26.3479L56.5002 26.6429ZM52.8352 24.19L52.6377 24.4848L52.6378 24.4849L52.8352 24.19ZM56.5002 31.25H56.1454C56.1454 31.446 56.3042 31.6049 56.5002 31.6049V31.25ZM60.2503 31.25V31.6049C60.4463 31.6049 60.6052 31.446 60.6052 31.25H60.2503ZM59.2864 24.01L59.089 24.3049C59.097 24.3103 59.1052 24.3153 59.1136 24.32L59.2864 24.01ZM54.9152 21.0845L54.7177 21.3793L54.7178 21.3794L54.9152 21.0845ZM52.3225 21.5971L52.0276 21.3996L52.0276 21.3996L52.3225 21.5971ZM38.8683 41.8852L38.5143 41.8593L38.5143 41.8599L38.8683 41.8852ZM38.8692 41.873L38.5152 41.847L38.5152 41.8471L38.8692 41.873ZM38.875 41.7502H38.5201L38.5201 41.7512L38.875 41.7502ZM38.8691 41.6269L38.5151 41.6526L38.5151 41.6527L38.8691 41.6269ZM38.8682 41.6142L38.5142 41.6397L38.5142 41.6399L38.8682 41.6142ZM37.081 39.8793L37.0962 39.5248L37.0958 39.5247L37.081 39.8793ZM37.0501 39.8775L37.0744 39.5234L37.0744 39.5234L37.0501 39.8775ZM36.9497 39.8775L36.9738 40.2316L36.9738 40.2316L36.9497 39.8775ZM36.9184 39.8793L36.9038 39.5247L36.9031 39.5248L36.9184 39.8793ZM35.1305 41.6415L35.4848 41.6623L35.4848 41.6619L35.1305 41.6415ZM35.1286 41.6707L35.4827 41.6948L35.4827 41.6948L35.1286 41.6707ZM35.1286 41.829L34.7745 41.8533L34.7745 41.8533L35.1286 41.829ZM35.1305 41.8582L35.4848 41.838L35.4848 41.8373L35.1305 41.8582ZM50.1149 25.3559L49.9813 25.6847C49.987 25.687 49.9927 25.6891 49.9985 25.6912L50.1149 25.3559ZM51.3752 31.25V31.6049C51.5712 31.6049 51.7301 31.446 51.7301 31.25H51.3752ZM22.6251 31.25L22.2702 31.2493C22.27 31.3435 22.3073 31.434 22.3739 31.5007C22.4404 31.5674 22.5308 31.6049 22.6251 31.6049V31.25ZM22.6337 27.1278L22.9886 27.1285V27.1279L22.6337 27.1278ZM23.797 25.3992L23.9307 25.728L23.931 25.7279L23.797 25.3992ZM35.1251 22.4527H35.48C35.48 22.354 35.4389 22.2598 35.3666 22.1926C35.2942 22.1255 35.1972 22.0915 35.0987 22.0988L35.1251 22.4527ZM38.8752 22.4541L38.9018 22.1002C38.8033 22.0928 38.7062 22.1268 38.6338 22.1939C38.5614 22.2611 38.5203 22.3554 38.5203 22.4541H38.8752ZM43.6907 23.2354L43.6068 23.5802L43.6068 23.5802L43.6907 23.2354ZM43.4516 13.8064C43.4516 17.3694 40.5632 20.2579 37.0001 20.2579V20.9676C40.9552 20.9676 44.1614 17.7614 44.1614 13.8064H43.4516ZM37.0001 7.35489C40.5632 7.35489 43.4516 10.2433 43.4516 13.8064H44.1614C44.1614 9.85131 40.9552 6.64511 37.0001 6.64511V7.35489ZM30.5486 13.8064C30.5486 10.2433 33.437 7.35489 37.0001 7.35489V6.64511C33.045 6.64511 29.8388 9.85132 29.8388 13.8064H30.5486ZM37.0001 20.2579C33.437 20.2579 30.5486 17.3694 30.5486 13.8064H29.8388C29.8388 17.7614 33.045 20.9676 37.0001 20.9676V20.2579ZM24.4062 70.6381C23.6871 70.6389 23.0487 70.1243 22.9175 69.392L22.2188 69.5172C22.4119 70.5942 23.35 71.3491 24.407 71.3479L24.4062 70.6381ZM49.5872 70.6451L24.4067 70.6381L24.4065 71.3479L49.587 71.3549L49.5872 70.6451ZM51.1007 69.2654C51.0301 70.0389 50.3791 70.6451 49.5871 70.6451V71.3549C50.7495 71.3549 51.7039 70.4655 51.8075 69.3299L51.1007 69.2654ZM53.3096 57.9719C52.5518 61.7183 51.7932 65.4686 51.105 69.2338L51.8032 69.3614C52.49 65.6039 53.2473 61.8601 54.0053 58.1126L53.3096 57.9719ZM53.31 57.9697L53.3096 57.972L54.0053 58.1125L54.0058 58.1103L53.31 57.9697ZM54.4708 52.1816C54.0904 54.1119 53.7003 56.0403 53.31 57.9697L54.0057 58.1104C54.396 56.1813 54.7864 54.2511 55.1672 52.3189L54.4708 52.1816ZM19.1775 52.6052H54.819V51.8954H19.1775V52.6052ZM20.7243 58.1706C20.321 56.1743 19.918 54.1791 19.5258 52.1819L18.8293 52.3187C19.2219 54.3181 19.6254 56.3152 20.0286 58.3112L20.7243 58.1706ZM20.7244 58.1709L20.7243 58.1707L20.0286 58.3111L20.0286 58.3114L20.7244 58.1709ZM20.7248 58.1729L20.7247 58.1728L20.0283 58.3096L20.0283 58.3098L20.7248 58.1729ZM22.9173 69.3909C22.2331 65.6398 21.4784 61.9035 20.7244 58.1711L20.0287 58.3116C20.7829 62.0452 21.5363 65.7748 22.219 69.5183L22.9173 69.3909ZM20.9677 23.895L17.3026 26.3479L17.6974 26.9378L21.3624 24.4849L20.9677 23.895ZM21.3829 21.7947C21.8482 22.4893 21.6622 23.4298 20.9675 23.8951L21.3625 24.4848C22.3829 23.8014 22.6561 22.4201 21.9727 21.3997L21.3829 21.7947ZM19.2825 21.3794C19.9772 20.9141 20.9176 21.1001 21.3829 21.7947L21.9727 21.3997C21.2892 20.3793 19.9079 20.1063 18.8875 20.7897L19.2825 21.3794ZM14.9113 24.3049L19.2824 21.3795L18.8876 20.7896L14.5165 23.715L14.9113 24.3049ZM14.1049 25.649C14.1049 25.0781 14.4195 24.5803 14.8866 24.32L14.5411 23.7C13.8585 24.0804 13.3951 24.8101 13.3951 25.649H14.1049ZM14.1049 31.25V25.649H13.3951V31.25H14.1049ZM17.5 30.8951H13.75V31.6049H17.5V30.8951ZM17.1451 26.6429V31.25H17.8549V26.6429H17.1451ZM56.6976 26.3479L53.0326 23.895L52.6378 24.4849L56.3029 26.9378L56.6976 26.3479ZM56.8551 31.25V26.6429H56.1454V31.25H56.8551ZM60.2503 30.8951H56.5002V31.6049H60.2503V30.8951ZM59.8954 25.649V31.25H60.6052V25.649H59.8954ZM59.1136 24.32C59.5807 24.5803 59.8954 25.0782 59.8954 25.649H60.6052C60.6052 24.8103 60.1418 24.0804 59.4592 23.7L59.1136 24.32ZM54.7178 21.3794L59.089 24.3049L59.4838 23.715L55.1126 20.7895L54.7178 21.3794ZM52.6173 21.7946C53.0826 21.0999 54.0231 20.914 54.7177 21.3793L55.1127 20.7896C54.0924 20.1061 52.7111 20.3792 52.0276 21.3996L52.6173 21.7946ZM53.0327 23.8951C52.338 23.4298 52.152 22.4894 52.6173 21.7946L52.0276 21.3996C51.3442 22.42 51.6172 23.8014 52.6377 24.4848L53.0327 23.8951ZM61.3753 34.6453H12.625V35.3551H61.3753V34.6453ZM63.6052 36.8752C63.6052 35.6437 62.6068 34.6453 61.3753 34.6453V35.3551C62.2148 35.3551 62.8954 36.0357 62.8954 36.8752H63.6052ZM63.6052 46.6252V36.8752H62.8954V46.6252H63.6052ZM61.3753 48.8552C62.6068 48.8552 63.6052 47.8568 63.6052 46.6252H62.8954C62.8954 47.4647 62.2148 48.1454 61.3753 48.1454V48.8552ZM12.625 48.8552H61.3753V48.1454H12.625V48.8552ZM10.3951 46.6252C10.3951 47.8568 11.3935 48.8552 12.625 48.8552V48.1454C11.7855 48.1454 11.1049 47.4647 11.1049 46.6252H10.3951ZM10.3951 36.8752V46.6252H11.1049V36.8752H10.3951ZM12.625 34.6453C11.3935 34.6453 10.3951 35.6437 10.3951 36.8752H11.1049C11.1049 36.0357 11.7855 35.3551 12.625 35.3551V34.6453ZM38.5143 41.8599C38.4579 42.6484 37.8019 43.2703 37 43.2703V43.9801C38.1782 43.9801 39.1396 43.0665 39.2223 41.9105L38.5143 41.8599ZM38.5152 41.8471L38.5143 41.8593L39.2222 41.9111L39.2231 41.8989L38.5152 41.8471ZM38.5201 41.7512C38.5202 41.777 38.5184 41.8043 38.5152 41.847L39.2231 41.899C39.226 41.8604 39.2301 41.8064 39.2299 41.7492L38.5201 41.7512ZM38.5151 41.6527C38.5183 41.6956 38.5201 41.7237 38.5201 41.7502H39.2299C39.2299 41.6936 39.2259 41.64 39.223 41.6012L38.5151 41.6527ZM38.5142 41.6399L38.5151 41.6526L39.2231 41.6013L39.2221 41.5886L38.5142 41.6399ZM37.0659 40.2339C37.8376 40.2669 38.4591 40.8742 38.5142 41.6397L39.2221 41.5887C39.1412 40.4644 38.229 39.5732 37.0962 39.5248L37.0659 40.2339ZM37.0257 40.2315C37.0352 40.2322 37.0503 40.2333 37.0663 40.2339L37.0958 39.5247C37.091 39.5245 37.0855 39.5242 37.0744 39.5234L37.0257 40.2315ZM37 40.2301C37.0028 40.2301 37.0073 40.2303 37.0258 40.2315L37.0744 39.5234C37.0596 39.5224 37.031 39.5203 37 39.5203V40.2301ZM36.9738 40.2316C36.9924 40.2303 36.9971 40.2301 37 40.2301V39.5203C36.969 39.5203 36.9404 39.5224 36.9256 39.5234L36.9738 40.2316ZM36.933 40.2339C36.949 40.2333 36.9642 40.2322 36.9738 40.2316L36.9256 39.5234C36.9144 39.5242 36.9087 39.5245 36.9038 39.5247L36.933 40.2339ZM35.4848 41.6619C35.5295 40.8861 36.155 40.2675 36.9337 40.2339L36.9031 39.5248C35.7598 39.5741 34.8418 40.4821 34.7762 41.6211L35.4848 41.6619ZM35.4827 41.6948C35.4833 41.6854 35.4841 41.674 35.4848 41.6623L34.7762 41.6206C34.7758 41.6284 34.7752 41.6365 34.7745 41.6465L35.4827 41.6948ZM35.4799 41.7502C35.4799 41.7374 35.4808 41.723 35.4827 41.6948L34.7745 41.6465C34.7729 41.6709 34.7701 41.7093 34.7701 41.7502H35.4799ZM35.4827 41.8047C35.4807 41.7766 35.4799 41.7626 35.4799 41.7502H34.7701C34.7701 41.7909 34.7729 41.829 34.7745 41.8533L35.4827 41.8047ZM35.4848 41.8373C35.4841 41.8256 35.4833 41.8141 35.4827 41.8046L34.7745 41.8533C34.7752 41.8633 34.7758 41.8713 34.7762 41.8791L35.4848 41.8373ZM37 43.2703C36.191 43.2703 35.5305 42.637 35.4848 41.838L34.7762 41.8785C34.8431 43.0495 35.8111 43.9801 37 43.9801V43.2703ZM51.7301 27.1278C51.7301 26.1517 51.1031 25.3231 50.2312 25.0206L49.9985 25.6912C50.5938 25.8977 51.0203 26.4633 51.0203 27.1278H51.7301ZM51.7301 31.25V27.1278H51.0203V31.25H51.7301ZM22.6251 31.6049H51.3752V30.8951H22.6251V31.6049ZM22.2788 27.127L22.2702 31.2493L22.98 31.2508L22.9886 27.1285L22.2788 27.127ZM23.6632 25.0705C22.8008 25.4214 22.2791 26.2519 22.2788 27.1276L22.9886 27.1279C22.9888 26.5308 23.3448 25.9664 23.9307 25.728L23.6632 25.0705ZM35.0987 22.0988C31.1411 22.3941 27.3554 23.5646 23.6629 25.0706L23.931 25.7279C27.5891 24.2359 31.2974 23.0942 35.1515 22.8066L35.0987 22.0988ZM35.48 25.8182V22.4527H34.7702V25.8182H35.48ZM37.0002 27.3384C36.1607 27.3384 35.48 26.6578 35.48 25.8182H34.7702C34.7702 27.0498 35.7686 28.0482 37.0002 28.0482V27.3384ZM38.5203 25.8182C38.5203 26.6578 37.8397 27.3384 37.0002 27.3384V28.0482C38.2317 28.0482 39.2301 27.0498 39.2301 25.8182H38.5203ZM38.5203 22.4541V25.8182H39.2301V22.4541H38.5203ZM43.7746 22.8905C42.1607 22.498 40.5371 22.2232 38.9018 22.1002L38.8485 22.808C40.44 22.9277 42.0252 23.1955 43.6068 23.5802L43.7746 22.8905ZM50.2484 25.0271C48.1203 24.1626 45.9671 23.4238 43.7746 22.8905L43.6068 23.5802C45.7573 24.1032 47.8766 24.8297 49.9813 25.6847L50.2484 25.0271Z" fill="url(#paint1_radial_165_88)" style="mix-blend-mode:plus-lighter"/>
</g>
<defs>
<filter id="filter0_di_165_88" x="0.698845" y="0.181025" width="72.6026" height="84.1021" filterUnits="userSpaceOnUse" color-interpolation-filters="sRGB">
<feFlood flood-opacity="0" result="BackgroundImageFix"/>
<feColorMatrix in="SourceAlpha" type="matrix" values="0 0 0 0 0 0 0 0 0 0 0 0 0 0 0 0 0 0 127 0" result="hardAlpha"/>
<feOffset dy="3.23206"/>
<feGaussianBlur stdDeviation="4.84809"/>
<feComposite in2="hardAlpha" operator="out"/>
<feColorMatrix type="matrix" values="0 0 0 0 1 0 0 0 0 1 0 0 0 0 1 0 0 0 0.2 0"/>
<feBlend mode="normal" in2="BackgroundImageFix" result="effect1_dropShadow_165_88"/>
<feBlend mode="normal" in="SourceGraphic" in2="effect1_dropShadow_165_88" result="shape"/>
<feColorMatrix in="SourceAlpha" type="matrix" values="0 0 0 0 0 0 0 0 0 0 0 0 0 0 0 0 0 0 127 0" result="hardAlpha"/>
<feOffset/>
<feGaussianBlur stdDeviation="1.34071"/>
<feComposite in2="hardAlpha" operator="arithmetic" k2="-1" k3="1"/>
<feColorMatrix type="matrix" values="0 0 0 0 1 0 0 0 0 1 0 0 0 0 1 0 0 0 1 0"/>
<feBlend mode="normal" in2="shape" result="effect2_innerShadow_165_88"/>
</filter>
<linearGradient id="paint0_linear_165_88" x1="30.1638" y1="19.1023" x2="56.4318" y2="66.3735" gradientUnits="userSpaceOnUse">
<stop stop-color="white"/>
<stop offset="0.770693" stop-color="#848484"/>
</linearGradient>
<radialGradient id="paint1_radial_165_88" cx="0" cy="0" r="1" gradientUnits="userSpaceOnUse" gradientTransform="translate(37.0002 7) rotate(90) scale(84.6033 69.4016)">
<stop stop-color="#D3D3D3"/>
<stop offset="0.82495" stop-color="white" stop-opacity="0"/>
</radialGradient>
</defs>
</svg>
