<svg width="86" height="67" viewBox="0 0 86 67" fill="none" xmlns="http://www.w3.org/2000/svg">
<g filter="url(#filter0_di_213_5)">
<path fill-rule="evenodd" clip-rule="evenodd" d="M20.4312 11.835C20.4312 14.4395 18.32 16.5509 15.7156 16.5509C13.1113 16.5509 11 14.4395 11 11.835C11 9.23051 13.1113 7.11914 15.7156 7.11914C18.32 7.11914 20.4312 9.23051 20.4312 11.835ZM59.1211 18.6357L60.3278 21.8863C59.2508 22.5889 57.9932 22.9669 56.678 22.9669C55.0228 22.9669 53.4586 22.3693 52.2316 21.2776L53.2086 18.6456C54.138 19.0494 55.1405 19.2574 56.1538 19.2566C57.1752 19.2573 58.1857 19.0459 59.1211 18.6357ZM32.7912 18.6456L33.776 21.2983C32.5527 22.3764 30.9981 22.9669 29.3536 22.967C28.028 22.967 26.7606 22.5835 25.678 21.8701L26.8787 18.6357C27.8141 19.0459 28.8246 19.2573 29.846 19.2566C30.8593 19.2574 31.8618 19.0494 32.7912 18.6456ZM20.111 51.0564V45.7495L20.1138 45.7496L20.118 45.7496H65.889V51.0564C65.889 52.064 65.0721 52.8809 64.0645 52.8809H21.9355C20.9278 52.8809 20.111 52.064 20.111 51.0564ZM43 16.5509C45.6044 16.5509 47.7157 14.4395 47.7157 11.835C47.7157 9.23051 45.6044 7.11914 43 7.11914C40.3957 7.11914 38.2844 9.23051 38.2844 11.835C38.2844 14.4395 40.3957 16.5509 43 16.5509ZM75 11.835C75 14.4395 72.8887 16.5509 70.2844 16.5509C67.68 16.5509 65.5687 14.4395 65.5687 11.835C65.5687 9.23051 67.68 7.11914 70.2844 7.11914C72.8887 7.11914 75 9.23051 75 11.835ZM56.1539 15.4317C58.1402 15.4317 59.7505 13.8214 59.7505 11.835C59.7505 9.84867 58.1402 8.2384 56.1539 8.2384C54.1675 8.2384 52.5573 9.84867 52.5573 11.835C52.5573 13.8214 54.1675 15.4317 56.1539 15.4317ZM33.4428 11.835C33.4428 13.8214 31.8325 15.4317 29.8461 15.4317C27.8598 15.4317 26.2495 13.8214 26.2495 11.835C26.2495 9.84867 27.8598 8.2384 29.8461 8.2384C31.8325 8.2384 33.4428 9.84867 33.4428 11.835ZM42.2269 31.7212L43.0001 33.1735L43.7732 31.7212L43.0001 30.2005L42.2269 31.7212ZM56.6781 26.7915C61.3362 26.7915 65.2844 23.7644 66.6708 19.5709C67.8015 20.1018 69.0354 20.3767 70.2845 20.3758C70.3094 20.3758 70.334 20.3749 70.3587 20.374C70.3777 20.3733 70.3968 20.3727 70.4159 20.3724L65.896 41.925H20.1181L15.5864 20.3724C15.6051 20.3726 15.6237 20.3733 15.6423 20.3739C15.6667 20.3748 15.6911 20.3756 15.7157 20.3756C16.975 20.3768 18.2187 20.0976 19.3568 19.5585C20.7394 23.7585 24.6911 26.7915 29.3538 26.7915C34.0178 26.7915 37.9703 23.757 39.3519 19.5553C40.4918 20.0966 41.7381 20.3768 43 20.3756C44.2722 20.377 45.5283 20.0924 46.6757 19.5429C48.0536 23.751 52.0096 26.7915 56.6781 26.7915ZM27.5251 34.5821C27.5251 35.6391 28.3818 36.4959 29.4387 36.4959C30.4956 36.4959 31.3523 35.6391 31.3523 34.5821C31.3523 33.5251 30.4956 32.6684 29.4387 32.6684C28.3818 32.6684 27.5251 33.5251 27.5251 34.5821ZM44.688 38.1416L47.6169 32.6401C47.7614 32.3689 47.8383 32.0668 47.8412 31.7595C47.844 31.4521 47.7728 31.1487 47.6334 30.8748L44.7045 25.1144C44.5446 24.7997 44.3007 24.5355 43.9998 24.351C43.699 24.1664 43.3529 24.0687 42.9999 24.0687C42.647 24.0687 42.3009 24.1664 42 24.351C41.6992 24.5355 41.4553 24.7997 41.2953 25.1144L38.3664 30.8748C38.2272 31.1487 38.156 31.4522 38.1589 31.7595C38.1618 32.0668 38.2387 32.3688 38.383 32.6401L41.3119 38.1416C41.4749 38.4478 41.7182 38.7038 42.0155 38.8823C42.3129 39.0609 42.6532 39.1552 43 39.1552C43.3468 39.1552 43.6871 39.0609 43.9845 38.8823C44.2818 38.7038 44.525 38.4478 44.688 38.1416ZM54.6478 34.5821C54.6478 35.6391 55.5046 36.4959 56.5614 36.4959C57.6183 36.4959 58.475 35.6391 58.475 34.5821C58.475 33.5251 57.6183 32.6684 56.5614 32.6684C55.5046 32.6684 54.6478 33.5251 54.6478 34.5821Z" fill="url(#paint0_linear_213_5)" shape-rendering="crispEdges"/>
<path d="M60.3278 21.8863L60.5217 22.1835C60.6606 22.0929 60.7183 21.9182 60.6605 21.7628L60.3278 21.8863ZM59.1211 18.6357L59.4538 18.5121C59.4198 18.4206 59.3496 18.347 59.2596 18.3089C59.1697 18.2708 59.068 18.2714 58.9786 18.3106L59.1211 18.6357ZM52.2316 21.2776L51.8989 21.1541C51.848 21.2913 51.8864 21.4456 51.9957 21.5428L52.2316 21.2776ZM53.2086 18.6456L53.35 18.3201C53.2606 18.2813 53.1592 18.2809 53.0695 18.3192C52.9798 18.3574 52.9098 18.4308 52.8759 18.5221L53.2086 18.6456ZM56.1538 19.2566L56.1541 18.9018H56.1536L56.1538 19.2566ZM33.776 21.2983L34.0106 21.5645C34.1208 21.4674 34.1598 21.3125 34.1087 21.1748L33.776 21.2983ZM32.7912 18.6456L33.1239 18.5221C33.09 18.4308 33.02 18.3574 32.9303 18.3191C32.8406 18.2809 32.7392 18.2813 32.6498 18.3201L32.7912 18.6456ZM29.3536 22.967V23.3219H29.3536L29.3536 22.967ZM25.678 21.8701L25.3453 21.7466C25.2878 21.9015 25.3447 22.0756 25.4827 22.1665L25.678 21.8701ZM26.8787 18.6357L27.0212 18.3106C26.9318 18.2714 26.8301 18.2708 26.7402 18.3089C26.6502 18.347 26.58 18.4206 26.546 18.5121L26.8787 18.6357ZM29.846 19.2566L29.8462 18.9018H29.8457L29.846 19.2566ZM20.111 45.7495L20.1206 45.3948C20.0248 45.3922 19.9321 45.4284 19.8634 45.4952C19.7948 45.562 19.7561 45.6537 19.7561 45.7495H20.111ZM20.1138 45.7496L20.1041 46.1044L20.1099 46.1045L20.1138 45.7496ZM20.118 45.7496L20.1141 46.1045H20.118V45.7496ZM65.889 45.7496H66.2439C66.2439 45.5536 66.085 45.3948 65.889 45.3948V45.7496ZM43.0001 33.1735L42.6868 33.3403C42.7484 33.4561 42.8689 33.5284 43.0001 33.5284C43.1312 33.5284 43.2517 33.4561 43.3133 33.3403L43.0001 33.1735ZM42.2269 31.7212L41.9106 31.5604C41.8581 31.6636 41.8593 31.7859 41.9137 31.888L42.2269 31.7212ZM43.7732 31.7212L44.0864 31.888C44.1408 31.7859 44.142 31.6636 44.0895 31.5604L43.7732 31.7212ZM43.0001 30.2005L43.3164 30.0397C43.2559 29.9206 43.1336 29.8456 43.0001 29.8456C42.8665 29.8456 42.7442 29.9206 42.6837 30.0397L43.0001 30.2005ZM66.6708 19.5709L66.8216 19.2496C66.7298 19.2065 66.6238 19.2048 66.5306 19.2449C66.4373 19.285 66.3657 19.3631 66.3338 19.4595L66.6708 19.5709ZM70.2845 20.3758V20.0209H70.2843L70.2845 20.3758ZM70.3587 20.374L70.3713 20.7287H70.3713L70.3587 20.374ZM70.4159 20.3724L70.7633 20.4452C70.7854 20.3397 70.7584 20.2299 70.6898 20.1467C70.6213 20.0635 70.5186 20.016 70.4109 20.0175L70.4159 20.3724ZM65.896 41.925V42.2799C66.064 42.2799 66.2089 42.1622 66.2434 41.9978L65.896 41.925ZM20.1181 41.925L19.7708 41.998C19.8053 42.1623 19.9502 42.2799 20.1181 42.2799V41.925ZM15.5864 20.3724L15.5915 20.0175C15.4837 20.016 15.381 20.0635 15.3125 20.1468C15.2439 20.23 15.2169 20.3399 15.2391 20.4454L15.5864 20.3724ZM15.6423 20.3739L15.6546 20.0193L15.6546 20.0193L15.6423 20.3739ZM15.7157 20.3756L15.716 20.0207H15.7157V20.3756ZM19.3568 19.5585L19.6939 19.4475C19.6621 19.3508 19.5902 19.2725 19.4967 19.2323C19.4031 19.1922 19.2969 19.1942 19.2049 19.2378L19.3568 19.5585ZM39.3519 19.5553L39.5042 19.2347C39.4121 19.191 39.3058 19.1889 39.2121 19.2291C39.1185 19.2692 39.0466 19.3476 39.0148 19.4444L39.3519 19.5553ZM43 20.3756L43.0004 20.0207L42.9997 20.0207L43 20.3756ZM46.6757 19.5429L47.013 19.4324C46.9812 19.3354 46.9091 19.2567 46.8151 19.2165C46.7212 19.1764 46.6145 19.1787 46.5224 19.2228L46.6757 19.5429ZM47.6169 32.6401L47.3037 32.4733L47.3037 32.4734L47.6169 32.6401ZM44.688 38.1416L45.0013 38.3084L45.0013 38.3084L44.688 38.1416ZM47.6334 30.8748L47.3171 31.0356L47.3171 31.0357L47.6334 30.8748ZM44.7045 25.1144L44.3882 25.2752L44.3882 25.2752L44.7045 25.1144ZM41.2953 25.1144L41.6117 25.2752L41.6117 25.2752L41.2953 25.1144ZM38.3664 30.8748L38.0501 30.7139L38.0501 30.7139L38.3664 30.8748ZM38.383 32.6401L38.0698 32.8069L38.0698 32.8069L38.383 32.6401ZM41.3119 38.1416L40.9987 38.3084L40.9987 38.3084L41.3119 38.1416ZM15.7156 16.9058C18.516 16.9058 20.7861 14.6355 20.7861 11.835H20.0764C20.0764 14.2435 18.124 16.196 15.7156 16.196V16.9058ZM10.6451 11.835C10.6451 14.6355 12.9152 16.9058 15.7156 16.9058V16.196C13.3073 16.196 11.3549 14.2435 11.3549 11.835H10.6451ZM15.7156 6.76425C12.9152 6.76425 10.6451 9.03452 10.6451 11.835H11.3549C11.3549 9.42649 13.3073 7.47404 15.7156 7.47404V6.76425ZM20.7861 11.835C20.7861 9.03452 18.516 6.76425 15.7156 6.76425V7.47404C18.124 7.47404 20.0764 9.42649 20.0764 11.835H20.7861ZM60.6605 21.7628L59.4538 18.5121L58.7884 18.7592L59.9951 22.0098L60.6605 21.7628ZM56.678 23.3218C58.062 23.3218 59.387 22.9238 60.5217 22.1835L60.1339 21.589C59.1146 22.254 57.9244 22.612 56.678 22.612V23.3218ZM51.9957 21.5428C53.2877 22.6922 54.9359 23.3218 56.678 23.3218V22.612C55.1098 22.612 53.6295 22.0463 52.4675 21.0125L51.9957 21.5428ZM52.8759 18.5221L51.8989 21.1541L52.5643 21.4012L53.5413 18.7692L52.8759 18.5221ZM56.1536 18.9018C55.189 18.9025 54.2347 18.7045 53.35 18.3201L53.0672 18.9712C54.0413 19.3943 55.0921 19.6123 56.1541 19.6115L56.1536 18.9018ZM58.9786 18.3106C58.0881 18.7011 57.1263 18.9024 56.1541 18.9018L56.1536 19.6115C57.2242 19.6122 58.2832 19.3906 59.2636 18.9607L58.9786 18.3106ZM34.1087 21.1748L33.1239 18.5221L32.4585 18.7692L33.4433 21.4218L34.1087 21.1748ZM29.3536 23.3219C31.0846 23.3218 32.7226 22.6997 34.0106 21.5645L33.5413 21.032C32.3828 22.0531 30.9116 22.612 29.3536 22.6121L29.3536 23.3219ZM25.4827 22.1665C26.6234 22.9182 27.9587 23.3219 29.3536 23.3219V22.6121C28.0972 22.6121 26.8978 22.2489 25.8732 21.5738L25.4827 22.1665ZM26.546 18.5121L25.3453 21.7466L26.0107 21.9937L27.2114 18.7592L26.546 18.5121ZM29.8457 18.9018C28.8735 18.9024 27.9117 18.7011 27.0212 18.3106L26.7362 18.9607C27.7166 19.3906 28.7756 19.6123 29.8462 19.6115L29.8457 18.9018ZM32.6498 18.3201C31.7651 18.7045 30.8108 18.9025 29.8462 18.9018L29.8457 19.6115C30.9077 19.6123 31.9585 19.3943 32.9326 18.9712L32.6498 18.3201ZM19.7561 45.7495V51.0564H20.4659V45.7495H19.7561ZM20.1234 45.3948L20.1206 45.3948L20.1013 46.1043L20.1041 46.1044L20.1234 45.3948ZM20.1218 45.3948L20.1176 45.3947L20.1099 46.1045L20.1141 46.1045L20.1218 45.3948ZM65.889 45.3948H20.118V46.1045H65.889V45.3948ZM66.2439 51.0564V45.7496H65.5341V51.0564H66.2439ZM64.0645 53.2358C65.2681 53.2358 66.2439 52.26 66.2439 51.0564H65.5341C65.5341 51.868 64.8761 52.526 64.0645 52.526V53.2358ZM21.9355 53.2358H64.0645V52.526H21.9355V53.2358ZM19.7561 51.0564C19.7561 52.26 20.7318 53.2358 21.9355 53.2358V52.526C21.1238 52.526 20.4659 51.868 20.4659 51.0564H19.7561ZM47.3608 11.835C47.3608 14.2435 45.4084 16.196 43 16.196V16.9058C45.8004 16.9058 48.0706 14.6355 48.0706 11.835H47.3608ZM43 7.47404C45.4084 7.47404 47.3608 9.42649 47.3608 11.835H48.0706C48.0706 9.03452 45.8004 6.76425 43 6.76425V7.47404ZM38.6393 11.835C38.6393 9.42649 40.5917 7.47404 43 7.47404V6.76425C40.1997 6.76425 37.9295 9.03452 37.9295 11.835H38.6393ZM43 16.196C40.5917 16.196 38.6393 14.2435 38.6393 11.835H37.9295C37.9295 14.6355 40.1997 16.9058 43 16.9058V16.196ZM70.2844 16.9058C73.0847 16.9058 75.3549 14.6355 75.3549 11.835H74.6451C74.6451 14.2435 72.6927 16.196 70.2844 16.196V16.9058ZM65.2138 11.835C65.2138 14.6355 67.484 16.9058 70.2844 16.9058V16.196C67.876 16.196 65.9236 14.2435 65.9236 11.835H65.2138ZM70.2844 6.76425C67.484 6.76425 65.2138 9.03452 65.2138 11.835H65.9236C65.9236 9.42649 67.876 7.47404 70.2844 7.47404V6.76425ZM75.3549 11.835C75.3549 9.03452 73.0847 6.76425 70.2844 6.76425V7.47404C72.6927 7.47404 74.6451 9.42649 74.6451 11.835H75.3549ZM59.3956 11.835C59.3956 13.6254 57.9442 15.0768 56.1539 15.0768V15.7865C58.3362 15.7865 60.1054 14.0174 60.1054 11.835H59.3956ZM56.1539 8.5933C57.9442 8.5933 59.3956 10.0447 59.3956 11.835H60.1054C60.1054 9.65266 58.3362 7.88351 56.1539 7.88351V8.5933ZM52.9121 11.835C52.9121 10.0447 54.3635 8.5933 56.1539 8.5933V7.88351C53.9715 7.88351 52.2024 9.65267 52.2024 11.835H52.9121ZM56.1539 15.0768C54.3635 15.0768 52.9121 13.6254 52.9121 11.835H52.2024C52.2024 14.0174 53.9715 15.7865 56.1539 15.7865V15.0768ZM29.8461 15.7865C32.0285 15.7865 33.7977 14.0174 33.7977 11.835H33.0879C33.0879 13.6254 31.6365 15.0768 29.8461 15.0768V15.7865ZM25.8946 11.835C25.8946 14.0174 27.6638 15.7865 29.8461 15.7865V15.0768C28.0558 15.0768 26.6044 13.6254 26.6044 11.835H25.8946ZM29.8461 7.88351C27.6638 7.88351 25.8946 9.65266 25.8946 11.835H26.6044C26.6044 10.0447 28.0558 8.5933 29.8461 8.5933V7.88351ZM33.7977 11.835C33.7977 9.65266 32.0285 7.88351 29.8461 7.88351V8.5933C31.6365 8.5933 33.0879 10.0447 33.0879 11.835H33.7977ZM43.3133 33.0067L42.5402 31.5545L41.9137 31.888L42.6868 33.3403L43.3133 33.0067ZM43.4599 31.5545L42.6868 33.0067L43.3133 33.3403L44.0864 31.888L43.4599 31.5545ZM42.6837 30.3613L43.4568 31.8821L44.0895 31.5604L43.3164 30.0397L42.6837 30.3613ZM42.5433 31.8821L43.3164 30.3613L42.6837 30.0397L41.9106 31.5604L42.5433 31.8821ZM66.3338 19.4595C64.994 23.5122 61.1784 26.4366 56.6781 26.4366V27.1464C61.494 27.1464 65.5748 24.0166 67.0078 19.6823L66.3338 19.4595ZM70.2843 20.0209C69.0874 20.0217 67.905 19.7584 66.8216 19.2496L66.52 19.8921C67.6979 20.4453 68.9834 20.7316 70.2848 20.7306L70.2843 20.0209ZM70.3461 20.0193C70.3204 20.0202 70.302 20.0209 70.2845 20.0209V20.7306C70.3167 20.7306 70.3476 20.7295 70.3713 20.7287L70.3461 20.0193ZM70.4109 20.0175C70.3873 20.0179 70.3645 20.0187 70.3461 20.0193L70.3713 20.7287C70.391 20.728 70.4062 20.7274 70.421 20.7272L70.4109 20.0175ZM66.2434 41.9978L70.7633 20.4452L70.0686 20.2995L65.5487 41.8522L66.2434 41.9978ZM20.1181 42.2799H65.896V41.5701H20.1181V42.2799ZM15.2391 20.4454L19.7708 41.998L20.4654 41.852L15.9337 20.2994L15.2391 20.4454ZM15.6546 20.0193C15.6366 20.0186 15.6144 20.0178 15.5915 20.0175L15.5813 20.7272C15.5958 20.7274 15.6109 20.728 15.63 20.7286L15.6546 20.0193ZM15.7157 20.0207C15.6982 20.0207 15.68 20.0201 15.6546 20.0193L15.63 20.7286C15.6534 20.7294 15.6839 20.7305 15.7157 20.7305V20.0207ZM19.2049 19.2378C18.1144 19.7544 16.9226 20.0218 15.716 20.0207L15.7154 20.7305C17.0273 20.7317 18.3231 20.4409 19.5087 19.8792L19.2049 19.2378ZM29.3538 26.4366C24.849 26.4366 21.0301 23.5065 19.6939 19.4475L19.0197 19.6695C20.4488 24.0105 24.5331 27.1464 29.3538 27.1464V26.4366ZM39.0148 19.4444C37.6796 23.505 33.8598 26.4366 29.3538 26.4366V27.1464C34.1758 27.1464 38.261 24.009 39.6891 19.6661L39.0148 19.4444ZM42.9997 20.0207C41.7906 20.0219 40.5964 19.7533 39.5042 19.2347L39.1997 19.8758C40.3873 20.4398 41.6857 20.7318 43.0004 20.7305L42.9997 20.0207ZM46.5224 19.2228C45.423 19.7493 44.2194 20.022 43.0004 20.0207L42.9997 20.7305C44.325 20.7319 45.6337 20.4354 46.829 19.863L46.5224 19.2228ZM56.6781 26.4366C52.1677 26.4366 48.3445 23.4992 47.013 19.4324L46.3384 19.6533C47.7626 24.0028 51.8514 27.1464 56.6781 27.1464V26.4366ZM29.4387 36.141C28.5778 36.141 27.8799 35.4431 27.8799 34.5821H27.1702C27.1702 35.8351 28.1858 36.8508 29.4387 36.8508V36.141ZM30.9974 34.5821C30.9974 35.4431 30.2995 36.141 29.4387 36.141V36.8508C30.6916 36.8508 31.7072 35.8351 31.7072 34.5821H30.9974ZM29.4387 33.0233C30.2995 33.0233 30.9974 33.7211 30.9974 34.5821H31.7072C31.7072 33.3291 30.6916 32.3135 29.4387 32.3135V33.0233ZM27.8799 34.5821C27.8799 33.7211 28.5778 33.0233 29.4387 33.0233V32.3135C28.1858 32.3135 27.1702 33.3291 27.1702 34.5821H27.8799ZM47.3037 32.4734L44.3748 37.9748L45.0013 38.3084L47.9302 32.8069L47.3037 32.4734ZM47.4863 31.7561C47.484 32.0064 47.4213 32.2524 47.3037 32.4733L47.9302 32.8069C48.1014 32.4853 48.1926 32.1271 48.1961 31.7628L47.4863 31.7561ZM47.3171 31.0357C47.4306 31.2587 47.4886 31.5059 47.4863 31.7561L48.1961 31.7628C48.1995 31.3984 48.115 31.0386 47.9497 30.7138L47.3171 31.0357ZM44.3882 25.2752L47.3171 31.0356L47.9498 30.7139L45.0209 24.9535L44.3882 25.2752ZM43.8143 24.6535C44.0593 24.8038 44.2579 25.019 44.3882 25.2752L45.0209 24.9535C44.8313 24.5805 44.5421 24.2673 44.1854 24.0484L43.8143 24.6535ZM42.9999 24.4236C43.2874 24.4236 43.5692 24.5032 43.8143 24.6535L44.1854 24.0484C43.8287 23.8296 43.4184 23.7138 42.9999 23.7138V24.4236ZM42.1856 24.6535C42.4306 24.5032 42.7125 24.4236 42.9999 24.4236V23.7138C42.5815 23.7138 42.1712 23.8296 41.8145 24.0484L42.1856 24.6535ZM41.6117 25.2752C41.7419 25.019 41.9406 24.8038 42.1856 24.6535L41.8145 24.0484C41.4578 24.2673 41.1686 24.5805 40.9789 24.9535L41.6117 25.2752ZM38.6828 31.0356L41.6117 25.2752L40.9789 24.9535L38.0501 30.7139L38.6828 31.0356ZM38.5138 31.7561C38.5114 31.5058 38.5694 31.2587 38.6828 31.0356L38.0501 30.7139C37.885 31.0387 37.8006 31.3985 37.804 31.7628L38.5138 31.7561ZM38.6963 32.4734C38.5787 32.2524 38.5161 32.0064 38.5138 31.7561L37.804 31.7628C37.8074 32.1271 37.8986 32.4853 38.0698 32.8069L38.6963 32.4734ZM41.6252 37.9748L38.6963 32.4734L38.0698 32.8069L40.9987 38.3084L41.6252 37.9748ZM42.1982 38.5781C41.956 38.4327 41.7579 38.2241 41.6252 37.9748L40.9987 38.3084C41.192 38.6714 41.4803 38.9749 41.8328 39.1866L42.1982 38.5781ZM43 38.8003C42.7175 38.8003 42.4404 38.7235 42.1982 38.5781L41.8328 39.1866C42.1853 39.3983 42.5888 39.5101 43 39.5101V38.8003ZM43.8018 38.5781C43.5596 38.7235 43.2825 38.8003 43 38.8003V39.5101C43.4112 39.5101 43.8146 39.3983 44.1672 39.1866L43.8018 38.5781ZM44.3748 37.9748C44.242 38.2241 44.044 38.4327 43.8018 38.5781L44.1672 39.1866C44.5197 38.9749 44.808 38.6714 45.0013 38.3084L44.3748 37.9748ZM56.5614 36.141C55.7006 36.141 55.0027 35.4431 55.0027 34.5821H54.2929C54.2929 35.8351 55.3085 36.8508 56.5614 36.8508V36.141ZM58.1202 34.5821C58.1202 35.4431 57.4223 36.141 56.5614 36.141V36.8508C57.8143 36.8508 58.8299 35.8351 58.8299 34.5821H58.1202ZM56.5614 33.0233C57.4223 33.0233 58.1202 33.7211 58.1202 34.5821H58.8299C58.8299 33.3291 57.8143 32.3135 56.5614 32.3135V33.0233ZM55.0027 34.5821C55.0027 33.7211 55.7006 33.0233 56.5614 33.0233V32.3135C55.3085 32.3135 54.2929 33.3291 54.2929 34.5821H55.0027Z" fill="url(#paint1_radial_213_5)" style="mix-blend-mode:plus-lighter"/>
</g>
<defs>
<filter id="filter0_di_213_5" x="0.948845" y="0.300166" width="84.1023" height="65.8639" filterUnits="userSpaceOnUse" color-interpolation-filters="sRGB">
<feFlood flood-opacity="0" result="BackgroundImageFix"/>
<feColorMatrix in="SourceAlpha" type="matrix" values="0 0 0 0 0 0 0 0 0 0 0 0 0 0 0 0 0 0 127 0" result="hardAlpha"/>
<feOffset dy="3.23206"/>
<feGaussianBlur stdDeviation="4.84809"/>
<feComposite in2="hardAlpha" operator="out"/>
<feColorMatrix type="matrix" values="0 0 0 0 1 0 0 0 0 1 0 0 0 0 1 0 0 0 0.2 0"/>
<feBlend mode="normal" in2="BackgroundImageFix" result="effect1_dropShadow_213_5"/>
<feBlend mode="normal" in="SourceGraphic" in2="effect1_dropShadow_213_5" result="shape"/>
<feColorMatrix in="SourceAlpha" type="matrix" values="0 0 0 0 0 0 0 0 0 0 0 0 0 0 0 0 0 0 127 0" result="hardAlpha"/>
<feOffset/>
<feGaussianBlur stdDeviation="1.34071"/>
<feComposite in2="hardAlpha" operator="arithmetic" k2="-1" k3="1"/>
<feColorMatrix type="matrix" values="0 0 0 0 1 0 0 0 0 1 0 0 0 0 1 0 0 0 1 0"/>
<feBlend mode="normal" in2="shape" result="effect2_innerShadow_213_5"/>
</filter>
<linearGradient id="paint0_linear_213_5" x1="34.6662" y1="15.7726" x2="47.7001" y2="55.7616" gradientUnits="userSpaceOnUse">
<stop stop-color="white"/>
<stop offset="0.770693" stop-color="#848484"/>
</linearGradient>
<radialGradient id="paint1_radial_213_5" cx="0" cy="0" r="1" gradientUnits="userSpaceOnUse" gradientTransform="translate(43 7.11914) rotate(90) scale(60.4937 84.6033)">
<stop stop-color="#D3D3D3"/>
<stop offset="0.82495" stop-color="white" stop-opacity="0"/>
</radialGradient>
</defs>
</svg>
