<svg width="71" height="45" viewBox="0 0 71 45" fill="none" xmlns="http://www.w3.org/2000/svg">
<g filter="url(#filter0_di_165_34)">
<path fill-rule="evenodd" clip-rule="evenodd" d="M16.8776 13.6866C17.1443 13.9522 18.4754 14.7499 18.741 15.5477C19.0076 16.3444 19.541 21.4444 21.1387 22.7744C22.7865 24.1433 29.0021 23.6333 30.1921 23.0411C32.8554 21.7133 33.1821 17.4244 33.6532 15.5466C33.9187 14.4833 35.5165 14.4833 35.5165 14.4833C35.5165 14.4833 37.1143 14.4833 37.381 15.5455C37.8521 17.4244 38.181 21.7255 40.8421 23.0511C42.0332 23.6455 48.2487 24.1555 49.8987 22.7866C51.4943 21.4566 52.0265 16.3433 52.2932 15.5455C52.5576 14.7488 53.891 13.9511 54.1565 13.6855C54.4243 13.4199 54.4243 12.3566 54.1565 12.0899C53.6243 11.5588 47.341 11.0855 40.5754 11.8244C39.2254 11.9722 38.7121 12.3555 35.5154 12.3555C32.321 12.3555 31.8054 11.9711 30.4565 11.8244C23.6954 11.0866 17.411 11.5599 16.8776 12.0911C16.6121 12.3566 16.6121 13.4211 16.8776 13.6866Z" fill="url(#paint0_linear_165_34)" shape-rendering="crispEdges"/>
<path fill-rule="evenodd" clip-rule="evenodd" d="M16.8776 13.6866C17.1443 13.9522 18.4754 14.7499 18.741 15.5477C19.0076 16.3444 19.541 21.4444 21.1387 22.7744C22.7865 24.1433 29.0021 23.6333 30.1921 23.0411C32.8554 21.7133 33.1821 17.4244 33.6532 15.5466C33.9187 14.4833 35.5165 14.4833 35.5165 14.4833C35.5165 14.4833 37.1143 14.4833 37.381 15.5455C37.8521 17.4244 38.181 21.7255 40.8421 23.0511C42.0332 23.6455 48.2487 24.1555 49.8987 22.7866C51.4943 21.4566 52.0265 16.3433 52.2932 15.5455C52.5576 14.7488 53.891 13.9511 54.1565 13.6855C54.4243 13.4199 54.4243 12.3566 54.1565 12.0899C53.6243 11.5588 47.341 11.0855 40.5754 11.8244C39.2254 11.9722 38.7121 12.3555 35.5154 12.3555C32.321 12.3555 31.8054 11.9711 30.4565 11.8244C23.6954 11.0866 17.411 11.5599 16.8776 12.0911C16.6121 12.3566 16.6121 13.4211 16.8776 13.6866Z" stroke="url(#paint1_radial_165_34)" stroke-width="1.10905" stroke-linecap="round" stroke-linejoin="round" style="mix-blend-mode:plus-lighter" shape-rendering="crispEdges"/>
</g>
<defs>
<filter id="filter0_di_165_34" x="0.97375" y="0.788856" width="69.0884" height="43.6239" filterUnits="userSpaceOnUse" color-interpolation-filters="sRGB">
<feFlood flood-opacity="0" result="BackgroundImageFix"/>
<feColorMatrix in="SourceAlpha" type="matrix" values="0 0 0 0 0 0 0 0 0 0 0 0 0 0 0 0 0 0 127 0" result="hardAlpha"/>
<feOffset dy="5.05009"/>
<feGaussianBlur stdDeviation="7.57514"/>
<feComposite in2="hardAlpha" operator="out"/>
<feColorMatrix type="matrix" values="0 0 0 0 1 0 0 0 0 1 0 0 0 0 1 0 0 0 0.2 0"/>
<feBlend mode="normal" in2="BackgroundImageFix" result="effect1_dropShadow_165_34"/>
<feBlend mode="normal" in="SourceGraphic" in2="effect1_dropShadow_165_34" result="shape"/>
<feColorMatrix in="SourceAlpha" type="matrix" values="0 0 0 0 0 0 0 0 0 0 0 0 0 0 0 0 0 0 127 0" result="hardAlpha"/>
<feOffset/>
<feGaussianBlur stdDeviation="2.09485"/>
<feComposite in2="hardAlpha" operator="arithmetic" k2="-1" k3="1"/>
<feColorMatrix type="matrix" values="0 0 0 0 1 0 0 0 0 1 0 0 0 0 1 0 0 0 1 0"/>
<feBlend mode="normal" in2="shape" result="effect2_innerShadow_165_34"/>
</filter>
<linearGradient id="paint0_linear_165_34" x1="30.6115" y1="13.7533" x2="32.319" y2="25.3084" gradientUnits="userSpaceOnUse">
<stop stop-color="white"/>
<stop offset="0.770693" stop-color="#848484"/>
</linearGradient>
<radialGradient id="paint1_radial_165_34" cx="0" cy="0" r="1" gradientUnits="userSpaceOnUse" gradientTransform="translate(35.5179 11.4436) rotate(90) scale(16.1464 49.8087)">
<stop stop-color="#D3D3D3"/>
<stop offset="0.82495" stop-color="white" stop-opacity="0"/>
</radialGradient>
</defs>
</svg>
