<svg width="57" height="68" viewBox="0 0 57 68" fill="none" xmlns="http://www.w3.org/2000/svg">
<g filter="url(#filter0_di_185_666)">
<path d="M40.768 46.664L16.432 46.712V42.104L27.904 32.408C32.656 28.376 34.24 26.072 34.24 22.712C34.24 18.728 32.08 16.472 28.384 16.472C24.544 16.472 22.144 19.16 22.096 23.672H16C16.048 15.992 20.944 11 28.384 11C35.872 11 40.528 15.272 40.528 22.376C40.528 27.272 37.84 30.968 32.512 35.528L26.176 40.952H40.768V46.664Z" fill="url(#paint0_linear_185_666)" shape-rendering="crispEdges"/>
<path d="M40.768 46.664L16.432 46.712V42.104L27.904 32.408C32.656 28.376 34.24 26.072 34.24 22.712C34.24 18.728 32.08 16.472 28.384 16.472C24.544 16.472 22.144 19.16 22.096 23.672H16C16.048 15.992 20.944 11 28.384 11C35.872 11 40.528 15.272 40.528 22.376C40.528 27.272 37.84 30.968 32.512 35.528L26.176 40.952H40.768V46.664Z" stroke="url(#paint1_radial_185_666)" stroke-width="1.10905" stroke-linecap="round" stroke-linejoin="round" style="mix-blend-mode:plus-lighter" shape-rendering="crispEdges"/>
</g>
<defs>
<filter id="filter0_di_185_666" x="0.295161" y="0.345253" width="56.1776" height="67.1216" filterUnits="userSpaceOnUse" color-interpolation-filters="sRGB">
<feFlood flood-opacity="0" result="BackgroundImageFix"/>
<feColorMatrix in="SourceAlpha" type="matrix" values="0 0 0 0 0 0 0 0 0 0 0 0 0 0 0 0 0 0 127 0" result="hardAlpha"/>
<feOffset dy="5.05009"/>
<feGaussianBlur stdDeviation="7.57514"/>
<feComposite in2="hardAlpha" operator="out"/>
<feColorMatrix type="matrix" values="0 0 0 0 1 0 0 0 0 1 0 0 0 0 1 0 0 0 0.2 0"/>
<feBlend mode="normal" in2="BackgroundImageFix" result="effect1_dropShadow_185_666"/>
<feBlend mode="normal" in="SourceGraphic" in2="effect1_dropShadow_185_666" result="shape"/>
<feColorMatrix in="SourceAlpha" type="matrix" values="0 0 0 0 0 0 0 0 0 0 0 0 0 0 0 0 0 0 127 0" result="hardAlpha"/>
<feOffset/>
<feGaussianBlur stdDeviation="2.09485"/>
<feComposite in2="hardAlpha" operator="arithmetic" k2="-1" k3="1"/>
<feColorMatrix type="matrix" values="0 0 0 0 1 0 0 0 0 1 0 0 0 0 1 0 0 0 1 0"/>
<feBlend mode="normal" in2="shape" result="effect2_innerShadow_185_666"/>
</filter>
<linearGradient id="paint0_linear_185_666" x1="24.9477" y1="1.97456" x2="64.6957" y2="31.3782" gradientUnits="userSpaceOnUse">
<stop stop-color="white"/>
<stop offset="0.770693" stop-color="#848484"/>
</linearGradient>
<radialGradient id="paint1_radial_185_666" cx="0" cy="0" r="1" gradientUnits="userSpaceOnUse" gradientTransform="translate(28.724 -14.288) rotate(90) scale(113.686 38.3359)">
<stop stop-color="#D3D3D3"/>
<stop offset="0.82495" stop-color="white" stop-opacity="0"/>
</radialGradient>
</defs>
</svg>
