<svg width="57" height="68" viewBox="0 0 57 68" fill="none" xmlns="http://www.w3.org/2000/svg">
<g filter="url(#filter0_di_185_667)">
<path d="M27.472 28.712H23.2V24.728L32.224 16.424H17.632V11H39.904V15.896L31.36 23.768C36.736 24.824 40.912 28.76 40.912 34.952C40.912 42.152 35.296 46.712 28.192 46.712C21.328 46.712 16 42.488 16 34.904H22.048C22.048 38.936 24.544 41.24 28.288 41.24C32.128 41.24 34.672 38.744 34.672 34.856C34.672 31.304 32.368 28.712 27.472 28.712Z" fill="url(#paint0_linear_185_667)" shape-rendering="crispEdges"/>
<path d="M27.472 28.712H23.2V24.728L32.224 16.424H17.632V11H39.904V15.896L31.36 23.768C36.736 24.824 40.912 28.76 40.912 34.952C40.912 42.152 35.296 46.712 28.192 46.712C21.328 46.712 16 42.488 16 34.904H22.048C22.048 38.936 24.544 41.24 28.288 41.24C32.128 41.24 34.672 38.744 34.672 34.856C34.672 31.304 32.368 28.712 27.472 28.712Z" stroke="url(#paint1_radial_185_667)" stroke-width="1.10905" stroke-linecap="round" stroke-linejoin="round" style="mix-blend-mode:plus-lighter" shape-rendering="crispEdges"/>
</g>
<defs>
<filter id="filter0_di_185_667" x="0.295161" y="0.345253" width="56.3217" height="67.1216" filterUnits="userSpaceOnUse" color-interpolation-filters="sRGB">
<feFlood flood-opacity="0" result="BackgroundImageFix"/>
<feColorMatrix in="SourceAlpha" type="matrix" values="0 0 0 0 0 0 0 0 0 0 0 0 0 0 0 0 0 0 127 0" result="hardAlpha"/>
<feOffset dy="5.05009"/>
<feGaussianBlur stdDeviation="7.57514"/>
<feComposite in2="hardAlpha" operator="out"/>
<feColorMatrix type="matrix" values="0 0 0 0 1 0 0 0 0 1 0 0 0 0 1 0 0 0 0.2 0"/>
<feBlend mode="normal" in2="BackgroundImageFix" result="effect1_dropShadow_185_667"/>
<feBlend mode="normal" in="SourceGraphic" in2="effect1_dropShadow_185_667" result="shape"/>
<feColorMatrix in="SourceAlpha" type="matrix" values="0 0 0 0 0 0 0 0 0 0 0 0 0 0 0 0 0 0 127 0" result="hardAlpha"/>
<feOffset/>
<feGaussianBlur stdDeviation="2.09485"/>
<feComposite in2="hardAlpha" operator="arithmetic" k2="-1" k3="1"/>
<feColorMatrix type="matrix" values="0 0 0 0 1 0 0 0 0 1 0 0 0 0 1 0 0 0 1 0"/>
<feBlend mode="normal" in2="shape" result="effect2_innerShadow_185_667"/>
</filter>
<linearGradient id="paint0_linear_185_667" x1="25.394" y1="1.35054" x2="64.7139" y2="29.4345" gradientUnits="userSpaceOnUse">
<stop stop-color="white"/>
<stop offset="0.770693" stop-color="#848484"/>
</linearGradient>
<radialGradient id="paint1_radial_185_667" cx="0" cy="0" r="1" gradientUnits="userSpaceOnUse" gradientTransform="translate(29.04 -14.912) rotate(90) scale(113.686 37.0139)">
<stop stop-color="#D3D3D3"/>
<stop offset="0.82495" stop-color="white" stop-opacity="0"/>
</radialGradient>
</defs>
</svg>
